<?xml version="1.0" standalone="no"?>
<!DOCTYPE svg PUBLIC "-//W3C//DTD SVG 1.1//EN" "http://www.w3.org/Graphics/SVG/1.1/DTD/svg11.dtd" >
<svg xmlns="http://www.w3.org/2000/svg" xmlns:xlink="http://www.w3.org/1999/xlink" version="1.1">
<metadata>
Created by FontForge 20170812 at Sun Oct 17 17:35:26 2010
 By www-data
Copyright (c) 2006 by Department of Intellectual Property (DIP), Ministry of Commerce and Software Industry Promotion Agency (Public Organization) (SIPA). All rights reserved.
</metadata>
<defs>
<font id="THNiramitIT-BoldItalic" horiz-adv-x="0" >
  <font-face 
    font-family="TH NiramitIT "
    font-weight="700"
    font-style="italic"
    font-stretch="normal"
    units-per-em="1000"
    panose-1="2 0 5 6 0 0 0 2 0 4"
    ascent="800"
    descent="-200"
    x-height="349"
    cap-height="477"
    bbox="-410.444 -499 1138 905"
    underline-thickness="30"
    underline-position="-50"
    unicode-range="U+0020-FB02"
  />
<missing-glyph horiz-adv-x="500" 
d="M409 35l133 625h-305l-133 -625h305zM436 0h-373l147 695h373z" />
    <glyph glyph-name="Aacute" unicode="A&#x301;" horiz-adv-x="445" 
d="M438 0l-70 -12l-24 136h-193l-80 -136l-65 12l278 455q4 6 14 17.5t22 17.5q6 3 13 2t14 -4t12 -7t7 -7q7 -9 0 -18t-10 -13zM301 377l-113 -191h145zM378 630l93 1l-122 -105h-58z" />
    <glyph glyph-name="Atilde" unicode="A&#x303;" horiz-adv-x="447" 
d="M438 0l-70 -12l-24 136h-193l-80 -136l-65 12l278 455q4 6 14 17.5t22 17.5q6 3 13 2t14 -4t12 -7t7 -7q7 -9 0 -18t-10 -13zM301 377l-113 -191h145zM206 533q5 27 18 48.5t31 33t40 12t46 -14.5q24 -13 39.5 -16.5t25 -0.5t14.5 11t7 19h54q-3 -19 -13 -39t-26.5 -34
t-39 -18t-50.5 9q-29 18 -46.5 21t-26.5 -2t-12.5 -14t-5.5 -15h-55z" />
    <glyph glyph-name="Egrave" unicode="E&#x300;" horiz-adv-x="368" 
d="M137 394q2 9 -2.5 16t-9 13t-7.5 12t2 13q3 5 9.5 12t13.5 13t14.5 9.5t13.5 0.5q3 -2 6 -3.5l7 -3.5h238l-15 -68h-199l-27 -127h178l-14 -68h-178l-31 -146h198l-14 -67h-266zM357 521h-58l-78 105l93 -1z" />
    <glyph glyph-name="Eacute" unicode="E&#x301;" horiz-adv-x="368" 
d="M137 394q2 9 -2.5 16t-9 13t-7.5 12t2 13q3 5 9.5 12t13.5 13t14.5 9.5t13.5 0.5q3 -2 6 -3.5l7 -3.5h238l-15 -68h-199l-27 -127h178l-14 -68h-178l-31 -146h198l-14 -67h-266zM315 625l93 1l-122 -105h-58z" />
    <glyph glyph-name="Igrave" unicode="I&#x300;" horiz-adv-x="181" 
d="M59 0l101 477h66l-101 -477h-66zM251 521h-58l-78 105l93 -1z" />
    <glyph glyph-name="Iacute" unicode="I&#x301;" horiz-adv-x="183" 
d="M59 0l101 477h66l-101 -477h-66zM236 630l93 1l-122 -105h-58z" />
    <glyph glyph-name="Ograve" unicode="O&#x300;" horiz-adv-x="464" 
d="M476 239q-12 -57 -35 -103t-55 -78.5t-71 -49.5t-84 -17q-51 0 -83.5 20.5t-49 55t-18 79.5t8.5 93q10 45 30 89t50.5 79t72 57t94.5 22q50 0 82 -21t48.5 -55.5t18 -79t-8.5 -91.5zM408 239q6 28 6.5 60t-8.5 59t-29 44.5t-55 17.5t-62.5 -16t-48 -42t-34.5 -58t-21 -65
q-6 -29 -6.5 -61t9 -59t30 -44.5t56.5 -17.5q34 0 61.5 17t48 43.5t34 58.5t19.5 63zM402 524h-58l-78 105l93 -1z" />
    <glyph glyph-name="Oacute" unicode="O&#x301;" horiz-adv-x="463" 
d="M476 239q-12 -57 -35 -103t-55 -78.5t-71 -49.5t-84 -17q-51 0 -83.5 20.5t-49 55t-18 79.5t8.5 93q10 45 30 89t50.5 79t72 57t94.5 22q50 0 82 -21t48.5 -55.5t18 -79t-8.5 -91.5zM408 239q6 28 6.5 60t-8.5 59t-29 44.5t-55 17.5t-62.5 -16t-48 -42t-34.5 -58t-21 -65
q-6 -29 -6.5 -61t9 -59t30 -44.5t56.5 -17.5q34 0 61.5 17t48 43.5t34 58.5t19.5 63zM360 627l93 1l-122 -105h-58z" />
    <glyph glyph-name="Otilde" unicode="O&#x303;" horiz-adv-x="464" 
d="M476 239q-12 -57 -35 -103t-55 -78.5t-71 -49.5t-84 -17q-51 0 -83.5 20.5t-49 55t-18 79.5t8.5 93q10 45 30 89t50.5 79t72 57t94.5 22q50 0 82 -21t48.5 -55.5t18 -79t-8.5 -91.5zM408 239q6 28 6.5 60t-8.5 59t-29 44.5t-55 17.5t-62.5 -16t-48 -42t-34.5 -58t-21 -65
q-6 -29 -6.5 -61t9 -59t30 -44.5t56.5 -17.5q34 0 61.5 17t48 43.5t34 58.5t19.5 63zM220 533q5 27 18 48.5t31 33t40 12t46 -14.5q24 -13 39.5 -16.5t25 -0.5t14.5 11t7 19h54q-3 -19 -13 -39t-26.5 -34t-39 -18t-50.5 9q-29 18 -46.5 21t-26.5 -2t-12.5 -14t-5.5 -15h-55z
" />
    <glyph glyph-name="Ugrave" unicode="U&#x300;" horiz-adv-x="498" 
d="M462 158q-9 -40 -29.5 -71t-49 -52t-63.5 -32t-73 -11q-40 0 -71.5 10t-52 30.5t-27.5 52t2 73.5l68 319h66l-69 -326q-11 -51 17.5 -74.5t79.5 -23.5t87.5 23.5t47.5 74.5l69 326h66l-68 -319v0zM413 524h-58l-78 105l93 -1z" />
    <glyph glyph-name="Uacute" unicode="U&#x301;" horiz-adv-x="498" 
d="M462 158q-9 -40 -29.5 -71t-49 -52t-63.5 -32t-73 -11q-40 0 -71.5 10t-52 30.5t-27.5 52t2 73.5l68 319h66l-69 -326q-11 -51 17.5 -74.5t79.5 -23.5t87.5 23.5t47.5 74.5l69 326h66l-68 -319v0zM381 627l93 1l-122 -105h-58z" />
    <glyph glyph-name="Yacute" unicode="Y&#x301;" horiz-adv-x="400" 
d="M484 474l-9 -11t-23.5 -28.5t-33 -40t-37.5 -45.5q-46 -55 -103 -125l-47 -224h-65l47 224l-50 125q-9 24 -18 46.5l-16 40t-11 28.5l-4 11l65 12l77 -213l169 212l59 -12v0zM334 627l93 1l-122 -105h-58z" />
    <glyph glyph-name="agrave" unicode="a&#x300;" horiz-adv-x="412" 
d="M320 156q2 12 3.5 19t2.5 11l1 5q1 18 -1.5 36t-11 32.5t-24 24t-38.5 9.5q-26 0 -46.5 -12t-35.5 -30t-24.5 -39t-13.5 -39q-3 -15 -3 -36t6.5 -39.5t22 -31.5t43.5 -13q22 0 41.5 9t34.5 23.5t26 33t17 37.5zM297 29q-24 -19 -51.5 -27t-57.5 -8q-40 0 -65.5 16
t-39.5 41.5t-16.5 57.5t4.5 64q7 33 23.5 65t41 57.5t57 41.5t72.5 16q29 0 51.5 -11.5t37.5 -29.5q1 4 2 9q1 7 6 28h63l-57 -267q-7 -30 -6 -44.5t5 -31.5l-62 -20q-5 13 -7 22.5t-1 20.5zM333 401h-58l-78 105l93 -1z" />
    <glyph glyph-name="aacute" unicode="a&#x301;" horiz-adv-x="412" 
d="M320 156q2 12 3.5 19t2.5 11l1 5q1 18 -1.5 36t-11 32.5t-24 24t-38.5 9.5q-26 0 -46.5 -12t-35.5 -30t-24.5 -39t-13.5 -39q-3 -15 -3 -36t6.5 -39.5t22 -31.5t43.5 -13q22 0 41.5 9t34.5 23.5t26 33t17 37.5zM297 29q-24 -19 -51.5 -27t-57.5 -8q-40 0 -65.5 16
t-39.5 41.5t-16.5 57.5t4.5 64q7 33 23.5 65t41 57.5t57 41.5t72.5 16q29 0 51.5 -11.5t37.5 -29.5q1 4 2 9q1 7 6 28h63l-57 -267q-7 -30 -6 -44.5t5 -31.5l-62 -20q-5 13 -7 22.5t-1 20.5zM294 507l93 1l-122 -105h-58z" />
    <glyph glyph-name="atilde" unicode="a&#x303;" horiz-adv-x="412" 
d="M320 156q2 12 3.5 19t2.5 11l1 5q1 18 -1.5 36t-11 32.5t-24 24t-38.5 9.5q-26 0 -46.5 -12t-35.5 -30t-24.5 -39t-13.5 -39q-3 -15 -3 -36t6.5 -39.5t22 -31.5t43.5 -13q22 0 41.5 9t34.5 23.5t26 33t17 37.5zM297 29q-24 -19 -51.5 -27t-57.5 -8q-40 0 -65.5 16
t-39.5 41.5t-16.5 57.5t4.5 64q7 33 23.5 65t41 57.5t57 41.5t72.5 16q29 0 51.5 -11.5t37.5 -29.5q1 4 2 9q1 7 6 28h63l-57 -267q-7 -30 -6 -44.5t5 -31.5l-62 -20q-5 13 -7 22.5t-1 20.5zM153 406q5 27 18 48.5t31 33t40 12t46 -14.5q24 -13 39.5 -16.5t25 -0.5t14.5 11
t7 19h54q-3 -19 -13 -39t-26.5 -34t-39 -18t-50.5 9q-29 18 -46.5 21t-26.5 -2t-12.5 -14t-5.5 -15h-55z" />
    <glyph glyph-name="egrave" unicode="e&#x300;" horiz-adv-x="387" 
d="M396 180q-5 -19 -16 -26.5t-31 -7.5h-217q-4 -35 10.5 -57.5t35.5 -31.5q25 -11 54 -5.5t70 28.5l28 -47q-16 -12 -40.5 -22t-52.5 -14t-55.5 -2t-49.5 14q-42 22 -58.5 64.5t-4.5 99.5q6 27 22 58.5t41.5 58.5t61.5 45t82 18q65 0 97 -39q12 -15 18.5 -33t8 -36t0.5 -34
t-4 -28v-3zM336 205q8 37 -12.5 64.5t-61.5 27.5q-26 0 -45.5 -9.5t-33.5 -24t-23.5 -30.5t-13.5 -28h190zM346 401h-58l-78 105l93 -1z" />
    <glyph glyph-name="eacute" unicode="e&#x301;" horiz-adv-x="387" 
d="M396 180q-5 -19 -16 -26.5t-31 -7.5h-217q-4 -35 10.5 -57.5t35.5 -31.5q25 -11 54 -5.5t70 28.5l28 -47q-16 -12 -40.5 -22t-52.5 -14t-55.5 -2t-49.5 14q-42 22 -58.5 64.5t-4.5 99.5q6 27 22 58.5t41.5 58.5t61.5 45t82 18q65 0 97 -39q12 -15 18.5 -33t8 -36t0.5 -34
t-4 -28v-3zM336 205q8 37 -12.5 64.5t-61.5 27.5q-26 0 -45.5 -9.5t-33.5 -24t-23.5 -30.5t-13.5 -28h190zM282 507l93 1l-122 -105h-58z" />
    <glyph glyph-name="igrave" unicode="i&#x300;" horiz-adv-x="181" 
d="M62 0l74 349h60l-74 -349h-60zM231 400h-58l-78 105l93 -1z" />
    <glyph glyph-name="iacute" unicode="i&#x301;" horiz-adv-x="176" 
d="M62 0l74 349h60l-74 -349h-60zM213 504l93 1l-122 -105h-58z" />
    <glyph glyph-name="ograve" unicode="o&#x300;" horiz-adv-x="390" 
d="M381 174q-7 -33 -23.5 -65t-41 -57t-57 -40.5t-70.5 -15.5q-40 0 -66 15.5t-40 41t-16.5 57.5t4.5 64t23 64t40.5 57.5t57 41t72.5 15.5t66 -15.5t39.5 -41t16 -57.5t-4.5 -64zM319 174q4 19 3.5 40.5t-8 40t-22.5 30.5t-39 12q-23 0 -43 -11t-35.5 -28.5t-26.5 -39.5
t-16 -44t-3.5 -44t10 -39.5t23.5 -28.5t38 -11q22 0 42 11t35.5 28.5t26 39.5t15.5 44zM319 401h-58l-78 105l93 -1z" />
    <glyph glyph-name="oacute" unicode="o&#x301;" horiz-adv-x="389" 
d="M381 174q-7 -33 -23.5 -65t-41 -57t-57 -40.5t-70.5 -15.5q-40 0 -66 15.5t-40 41t-16.5 57.5t4.5 64t23 64t40.5 57.5t57 41t72.5 15.5t66 -15.5t39.5 -41t16 -57.5t-4.5 -64zM319 174q4 19 3.5 40.5t-8 40t-22.5 30.5t-39 12q-23 0 -43 -11t-35.5 -28.5t-26.5 -39.5
t-16 -44t-3.5 -44t10 -39.5t23.5 -28.5t38 -11q22 0 42 11t35.5 28.5t26 39.5t15.5 44zM270 505l93 1l-122 -105h-58z" />
    <glyph glyph-name="otilde" unicode="o&#x303;" horiz-adv-x="389" 
d="M381 174q-7 -33 -23.5 -65t-41 -57t-57 -40.5t-70.5 -15.5q-40 0 -66 15.5t-40 41t-16.5 57.5t4.5 64t23 64t40.5 57.5t57 41t72.5 15.5t66 -15.5t39.5 -41t16 -57.5t-4.5 -64zM319 174q4 19 3.5 40.5t-8 40t-22.5 30.5t-39 12q-23 0 -43 -11t-35.5 -28.5t-26.5 -39.5
t-16 -44t-3.5 -44t10 -39.5t23.5 -28.5t38 -11q22 0 42 11t35.5 28.5t26 39.5t15.5 44zM141 400q5 27 18 48.5t31 33t40 12t46 -14.5q24 -13 39.5 -16.5t25 -0.5t14.5 11t7 19h54q-3 -19 -13 -39t-26.5 -34t-39 -18t-50.5 9q-29 18 -46.5 21t-26.5 -2t-12.5 -14t-5.5 -15
h-55z" />
    <glyph glyph-name="ugrave" unicode="u&#x300;" horiz-adv-x="409" 
d="M300 -14q-5 13 -7 21.5t-2 19.5q-23 -20 -51 -27.5t-51 -7.5q-39 0 -61.5 14t-33 34.5t-12 43t2.5 39.5l48 226h61l-49 -227q-7 -34 10 -55t52 -21q19 0 36.5 8.5t31.5 22.5t23.5 31.5t13.5 35.5l44 205h61l-57 -267q-7 -30 -5 -44.5t6 -31.5zM329 400h-58l-78 105l93 -1
z" />
    <glyph glyph-name="uacute" unicode="u&#x301;" horiz-adv-x="407" 
d="M300 -14q-5 13 -7 21.5t-2 19.5q-23 -20 -51 -27.5t-51 -7.5q-39 0 -61.5 14t-33 34.5t-12 43t2.5 39.5l48 226h61l-49 -227q-7 -34 10 -55t52 -21q19 0 36.5 8.5t31.5 22.5t23.5 31.5t13.5 35.5l44 205h61l-57 -267q-7 -30 -5 -44.5t6 -31.5zM306 504l93 1l-122 -105
h-58z" />
    <glyph glyph-name="yacute" unicode="y&#x301;" horiz-adv-x="375" 
d="M181 -58q-14 -21 -28 -34.5t-31 -23.5q-20 -11 -39.5 -18t-47.5 -17l-8 52q31 11 50 19t32.5 19.5t25 30t28.5 50.5q-2 7 -10 43q-4 15 -9.5 38.5t-13 56.5t-17.5 77.5t-23 102.5l65 25q17 -85 28.5 -137t17.5 -81q7 -34 11 -50q9 17 30 51q18 29 50 81t83 136l50 -26z
M301 504l93 1l-122 -105h-58z" />
    <glyph glyph-name="uni0E4F.liga" unicode="&#xe4f;&#x22;" horiz-adv-x="462" 
d="M309 166q4 22 -6 35.5t-33 13.5t-39.5 -13.5t-20.5 -35.5q-5 -23 5.5 -36.5t33.5 -13.5t39 13.5t21 36.5zM348 166q-8 -37 -39 -63t-68 -26t-57 26t-12 63t38.5 62.5t67.5 25.5t57.5 -25.5t12.5 -62.5zM387 166q11 53 -18 90t-82 37q-52 0 -97.5 -37t-56.5 -90
t18.5 -90.5t81.5 -37.5q53 0 98 38t56 90zM429 166q-15 -70 -75 -119.5t-130 -49.5t-109 49.5t-24 119.5t75 119.5t130 49.5q69 0 108 -50t25 -119zM384 377h-50l29 186h75zM270 377h-50l29 186h75z" />
    <glyph glyph-name="uni0E24.liga" unicode="&#xe24;&#xe32;" horiz-adv-x="700" 
d="M223 72q2 13 -5 22t-20 9q-14 0 -25 -9t-13 -22q-3 -14 4 -23t21 -9q13 0 24 9t14 23zM598 -228h-68l106 500q1 8 7 18.5t11 13.5q-12 15 -31 29t-55 13q-38 -1 -68.5 -23.5t-40.5 -60.5l-104 -490h-69l103 483q0 -2 1 3t4 12.5t7 15t9 11.5q-1 1 -7.5 10t-19 19
t-32 18.5t-46.5 8.5q-33 0 -56.5 -7.5t-39.5 -18.5t-26 -22.5t-16 -19.5l24 -21q11 11 23 18.5t30 13.5l4 -7t8 -15t7 -14.5l3 -6.5q-27 -10 -44 -29.5t-23 -45.5l-6 -32q8 2 15 2q32 0 49.5 -22t10.5 -54t-34 -54.5t-59 -22.5q-11 0 -24.5 3.5t-24.5 13t-16.5 25t-0.5 39.5
l22 105q4 18 8 27t9 14l-60 45q3 6 17.5 28.5t41.5 46.5t68.5 43.5t98.5 20.5q28 0 50 -5.5t38.5 -13.5t27.5 -18t18 -20q24 26 57 41t77 17q25 1 43.5 -3.5t32.5 -12t24 -18t18 -20.5q5 2 13.5 -1t16.5 -15q12 -19 6 -27.5t-19 -22.5q-7 -7 -10.5 -14.5t-6.5 -21.5z" />
    <glyph glyph-name="uni0E26.liga" unicode="&#xe26;&#xe32;" horiz-adv-x="721" 
d="M152 68q3 13 -4 22t-20 9q-14 0 -25 -9t-14 -22t4 -22t21 -9q13 0 24 9t14 22zM620 -228h-68l106 500q1 8 7 18.5t11 13.5q-12 15 -31 29t-55 13q-26 -1 -44.5 -9t-31 -20t-20.5 -26.5t-12 -28.5l-104 -491h-69l104 488q1 8 6.5 20.5t13.5 17.5q-3 1 -10 10t-19 19
t-30.5 18.5t-45.5 8.5q-33 0 -56.5 -7.5t-39.5 -18.5t-26 -22.5t-16 -19.5l24 -21q11 11 23 18.5t30 13.5l4 -7t8 -15t7 -14.5l3 -6.5q-27 -10 -41 -29.5t-20 -45.5l-21 -102q-3 -16 -11 -31.5t-21 -27.5t-30.5 -19t-39.5 -7q-32 0 -50 22.5t-11 54.5q3 16 12 30t21.5 24.5
t28 16.5t31.5 6q4 0 7 -0.5t7 -1.5l8 38q4 18 8 27t9 14l-65 45q3 6 17.5 28.5t41.5 46.5t68.5 43.5t98.5 20.5q57 0 88 -17t47 -37q24 25 57 39t75 16q25 1 43.5 -3.5t32.5 -12t24 -18t18 -20.5q5 2 13.5 -1t16.5 -15q12 -19 6 -27.5t-19 -22.5q-7 -7 -10.5 -14.5
t-6.5 -21.5z" />
    <glyph glyph-name="fi" unicode="fi" horiz-adv-x="363" 
d="M342 444q-18 10 -38 13t-37 -1.5t-30 -17t-17 -32.5l-12 -57h162l-74 -349h-60l63 298h-102l-60 -283q-6 -26 -16 -47.5t-21 -37.5t-20 -26t-12 -13l-55 17q28 26 42.5 52t19.5 54l61 284h-62l22 51h51l15 70q3 17 11 31t18 24.5t19.5 18t17.5 11.5q17 10 39 13.5t44 2.5
t40 -6.5t26 -12.5l-35 -57v0z" />
    <glyph glyph-name="fl" unicode="fl" horiz-adv-x="381" 
d="M253 0l98 462q-17 7 -38 7t-40.5 -7.5t-34 -21.5t-18.5 -34l-12 -57h72l-22 -51h-61l-60 -283q-6 -26 -16 -47.5t-21 -37.5t-20 -26t-12 -13l-55 17q28 26 42.5 52t19.5 54l61 284h-62l22 51h51l15 70q3 17 11 31t18 24.5t20 18t17 11.5q30 16 58.5 20.5t54 2t46 -9
t34.5 -12.5l-107 -505h-61z" />
    <glyph glyph-name="AS" unicode="AS&#x2e;Aksaramatee&#x28;c&#x29;" horiz-adv-x="941" 
d="M948 733h-16q-1 5 -4.5 7.5t-8.5 2.5q-7 0 -10.5 -5t-2.5 -16q0 -13 3.5 -18.5t11.5 -5.5q4 0 8 3t3 9h17q0 -11 -8 -18t-21 -7q-14 0 -23.5 9t-9.5 27q0 16 9 26t23 10q13 0 21 -7t8 -17zM271 123q0 -13 6.5 -19t19.5 -6q11 0 19 6t7 18q1 13 -7 20.5t-19 7.5
q-13 0 -19.5 -7.5t-6.5 -19.5zM296 81q-24 0 -36.5 11.5t-12.5 30.5q0 20 13.5 31t37.5 11t37 -11t13 -31q-1 -20 -14 -31t-38 -11zM381 148l-1 -21h15q10 0 14.5 3t4.5 8q0 6 -4 8t-14 2h-15zM359 85v80h42q37 0 37 -27q0 -25 -40 -25h-17v-28h-22zM471 85v28l-36 52h26
l23 -34l23 34h25l-39 -53l1 -27h-23zM286 17h15l-7 18zM266 0l21 44h14l20 -44h-13l-4 9h-23l-2 -9h-13zM355 0v44h12v-34h22v-10h-34zM769 0v44h34v-9h-23v-8h21l-1 -9h-21v-9h23l1 -9h-34zM859 0l-17 44h12l12 -33l13 33h11l-18 -44h-13zM949 35h-8v-25h8q6 0 10 3t4 8
q-1 7 -4.5 10.5t-9.5 3.5zM930 0v44h21q12 0 18.5 -5.5t6.5 -17.5q-1 -12 -7 -16.5t-18 -4.5h-21zM322 0v44h11v-34h21v-10h-32zM425 36v-9h7q8 0 8 4q0 5 -8 5h-7zM414 0v44h22q16 0 16 -11t-11 -11q9 -1 9.5 -9t3.5 -13h-12q-1 1 -2 11q0 4 -1.5 5t-6.5 1h-7v-17h-11z
M459 0v44h10v-44h-10zM508 9l1 7h-9v9h21v-22q-4 -3 -9 -3.5t-11 -0.5q-13 0 -19.5 5.5t-6.5 16.5q0 12 6.5 18t18.5 6q9 0 14.5 -4.5t6.5 -11.5h-12q0 4 -2.5 5.5t-6.5 1.5q-7 0 -10 -3.5t-3 -10.5q0 -6 3 -10t10 -4q3 0 5 0.5t3 0.5zM527 44h12v-17h21v17h12v-44h-12
l-1 18h-21l1 -18h-12v44zM590 0v35h-15v9h42v-9h-15v-35h-12zM634 85v80h24v-80h-24zM739 101v14h-20v14h44v-41q-9 -2 -19 -3.5t-22 -1.5q-26 0 -39 10.5t-13 30.5t12.5 31t37.5 11q20 0 31 -6.5t12 -20.5h-25q-1 5 -5 8.5t-14 3.5q-12 0 -18.5 -7t-6.5 -18q0 -15 6.5 -21
t21.5 -6q4 0 8.5 0.5t8.5 1.5zM777 165h24v-31h42v31h23v-80h-23l-1 32h-42l1 -32h-24v80zM906 85v62h-31v18h88v-18h-33v-62h-24zM565 148v-19h15q10 0 14 3t4 8q0 4 -3.5 6t-14.5 2h-15zM542 85v80h45q18 0 26 -5t9 -16q0 -9 -5.5 -13.5t-17.5 -6.5q9 -1 13.5 -3t5.5 -6
q0 -3 2 -13t5 -17h-24q-2 1 -5 20q-1 6 -4 8t-13 2h-14v-30h-23zM725 15h12l-1 -1q1 -3 3 -4.5t6 -1.5t5.5 1t1.5 4t-9.5 5t-13 5t-3.5 7q-1 7 4.5 11t14.5 4t12.5 -4t4.5 -10h-10q-1 6 -9 6q-7 0 -7 -5q1 -3 11 -5t12.5 -5.5t3.5 -8.5q0 -7 -5 -10.5t-14 -3.5t-14 3.5
t-5 10.5v2zM891 0v44h34v-9h-22v-8h21l-1 -9h-21v-9h23l1 -9h-35zM686 0v44h34v-9h-23v-8h22l-1 -9h-22v-9h24l1 -9h-35zM241 111q-1 -15 -11.5 -22.5t-32.5 -7.5q-23 0 -35.5 10.5t-12.5 32.5q0 20 12.5 31.5t37.5 11.5q20 0 30 -7t12 -23h-26q-1 7 -5.5 10.5t-12.5 3.5
q-11 0 -17 -7t-6 -20t6 -19t16 -6q8 0 13.5 3t5.5 9h26zM141 229h826v-26h-826v26zM861 720q0 26 16.5 43t42.5 17t43.5 -17t17.5 -43t-17 -43t-43 -17t-43 17t-17 43zM870 719q1 -21 15.5 -35.5t35.5 -14.5t36 14.5t14 35.5q1 21 -14 36t-36 15t-35.5 -15t-15.5 -36z
M654 36v-9h7q8 0 8 4q0 5 -8 5h-7zM643 0v44h22q16 0 16 -11t-11 -11q9 -1 9.5 -9t3.5 -13h-12q-1 1 -2 11q0 4 -1.5 5t-6.5 1h-7v-17h-11zM817 36v-9h7q8 0 8 4q0 5 -8 5h-7zM806 0v44h22q16 0 16 -11t-11 -11q9 -1 9.5 -9t3.5 -13h-12q-1 1 -2 11q0 4 -1.5 5t-6.5 1h-7
v-17h-11zM379 557h57l8 -153h54l-19 277q-1 25 -11 43t-25.5 30t-35.5 18t-41 6q-46 0 -78.5 -23.5t-38.5 -73.5l-20 -277h53l20 282q5 24 23.5 34t40.5 10q20 0 38 -10t21 -34l7 -77h-66q8 0 12.5 7t3.5 16t-6.5 17t-17.5 10q-19 5 -30.5 -6.5t-13.5 -30.5q-5 -33 14.5 -49
t50.5 -16zM806 507q0 30 -12.5 49.5t-31.5 32.5t-41 20.5t-41 13.5t-34.5 10t-26.5 9.5t-17 13.5t-6 20q0 7 2.5 15.5t10 16t20.5 13t34 6.5q27 1 43 -3t24.5 -11t11 -15.5t2.5 -16.5h58q0 14 -4 31t-17.5 31.5t-39.5 24.5t-69 10q-36 0 -60.5 -9.5t-40 -24.5t-22 -32.5
t-6.5 -33.5q0 -29 11.5 -47.5t29.5 -30.5t39.5 -18.5t40.5 -11.5q39 -11 63.5 -24t24.5 -42q0 -14 -8.5 -23t-20.5 -14.5t-26 -8t-26 -2.5q-25 0 -39 3.5t-22 8.5q-5 2 -7.5 4.5l-5.5 5.5q9 3 13 12t2.5 18.5t-8.5 17.5t-20 9q-19 2 -30 -13t-13 -32q-1 -15 4.5 -30.5
t20.5 -28.5t40.5 -21t65.5 -8q63 1 98.5 29.5t35.5 75.5zM195 299h16l2 -42h15l-6 77q-1 14 -10 20.5t-21 6.5q-13 0 -22 -6.5t-11 -20.5l-4 -77h15l5 78q1 7 6 9.5t11 2.5t11 -2.5t6 -9.5l2 -21h-19q5 0 5 6t-7 8q-10 1 -12 -11q-2 -9 4 -13.5t14 -4.5zM274 301l27 26h-18
l-28 -26l1 50h-13v-80q0 -17 15 -15q12 0 10 11q-2 5 -6 5.5t-6 -1.5l-1 11l9 9q14 -6 19 -25l3 -9h14l-5 11q-4 14 -9.5 21.5t-11.5 11.5zM363 276q0 12 -7.5 15.5t-14.5 5.5q-17 5 -17 11q0 7 9 8q6 2 11.5 0t7.5 -10l9 4q1 5 -4.5 11t-19.5 6q-11 0 -19 -5.5t-7 -13.5
q0 -12 10 -16l15 -6q14 -4 14 -10q0 -4 -3.5 -5.5t-7.5 -1.5q-5 -1 -8.5 0t-5.5 2q2 5 -1.5 9.5t-10.5 1.5q-3 -2 -4.5 -6.5t3.5 -9.5q3 -6 12 -7.5t14 -1.5q11 0 18 5t7 14zM421 257h12v47q0 10 -8 17t-20 7q-15 0 -25 -7q-9 -7 -4 -14q3 -5 9 -2.5t4 8.5q4 3 16 3
q5 0 10.5 -3.5t5.5 -8.5v-24q0 -5 -4.5 -9.5t-12.5 -4.5t-11.5 4t-3.5 9q0 8 5.5 10.5t10.5 2.5t11 -3v10q-14 8 -27 1t-13 -21q-1 -12 7.5 -18.5t20.5 -5.5q12 0 17 9v-7zM491 309q2 4 0.5 9t-6.5 7q-14 5 -25 -6l1 7h-13v-69h13v41q0 5 3.5 11t12.5 5q-2 -5 4 -7.5t10 2.5
zM548 257h12v47q0 10 -8 17t-20 7q-15 0 -25 -7q-9 -7 -4 -14q3 -5 9 -2.5t4 8.5q4 3 16 3q5 0 10.5 -3.5t5.5 -8.5v-24q0 -5 -4.5 -9.5t-12.5 -4.5t-11.5 4t-3.5 9q0 8 5.5 10.5t10.5 2.5t11 -3v10q-14 8 -27 1t-13 -21q-1 -12 7.5 -18.5t20.5 -5.5q12 0 17 9v-7zM646 257
h13v46q-1 9 -6.5 16.5t-18.5 7.5q-5 0 -11 -2t-8 -6q-5 8 -15 8q-9 0 -15 -8l1 7h-13v-55q0 -16 16 -16q5 1 8 4t1 8t-6 5.5t-6 -1.5v31q0 7 4 9.5t8 2.5q10 0 12 -12v-45h13v45q0 8 4 10t7 2q7 0 9.5 -4.5t2.5 -7.5v-45zM720 257h12v47q0 10 -8 17t-20 7q-15 0 -25 -7
q-9 -7 -4 -14q3 -5 9 -2.5t4 8.5q4 3 16 3q5 0 10.5 -3.5t5.5 -8.5v-24q0 -5 -4.5 -9.5t-12.5 -4.5t-11.5 4t-3.5 9q0 8 5.5 10.5t10.5 2.5t11 -3v10q-14 8 -27 1t-13 -21q-1 -12 7.5 -18.5t20.5 -5.5q12 0 17 9v-7zM791 271q-3 10 -11 9q-6 -1 -6.5 -6.5t3.5 -5.5
q1 -1 0 -1h-3q-7 0 -7 9v37h20v12h-20v17h-13v-17h-10v-12h10l-1 -36q0 -8 3.5 -12t7.5 -6t7.5 -2.5t4.5 -0.5q16 0 15 15zM871 279l-12 4q-4 -13 -21 -15q-4 0 -10.5 1.5t-10.5 10.5q-5 9 -1.5 20.5t14.5 13.5q7 2 13.5 -1t8.5 -11l-14 -5q0 5 -5 6.5t-9 -3.5q-3 -4 0 -11
t14 -5l30 13q-2 15 -12.5 25t-28.5 5q-19 -5 -23.5 -21.5t2.5 -30.5q10 -21 34 -19q23 0 31 23zM952 279l-12 4q-4 -13 -21 -15q-4 0 -10.5 1.5t-10.5 10.5q-5 9 -1.5 20.5t14.5 13.5q7 2 13.5 -1t8.5 -11l-14 -5q0 5 -5 6.5t-9 -3.5q-3 -4 0 -11t14 -5l30 13
q-2 15 -12.5 25t-28.5 5q-19 -5 -23.5 -21.5t2.5 -30.5q10 -21 34 -19q23 0 31 23z" />
    <glyph glyph-name="uni1EA0" unicode="A&#x323;" horiz-adv-x="443" 
d="M438 0l-70 -12l-24 136h-193l-80 -136l-65 12l278 455q4 6 14 17.5t22 17.5q6 3 13 2t14 -4t12 -7t7 -7q7 -9 0 -18t-10 -13zM301 377l-113 -191h145zM252 -93q-5 -21 -22.5 -35t-38.5 -14t-32.5 14t-6.5 35t22.5 36t38.5 15t32.5 -15t6.5 -36z" />
    <glyph glyph-name="uni1EA1" unicode="a&#x323;" horiz-adv-x="411" 
d="M320 156q2 12 3.5 19t2.5 11l1 5q1 18 -1.5 36t-11 32.5t-24 24t-38.5 9.5q-26 0 -46.5 -12t-35.5 -30t-24.5 -39t-13.5 -39q-3 -15 -3 -36t6.5 -39.5t22 -31.5t43.5 -13q22 0 41.5 9t34.5 23.5t26 33t17 37.5zM297 29q-24 -19 -51.5 -27t-57.5 -8q-40 0 -65.5 16
t-39.5 41.5t-16.5 57.5t4.5 64q7 33 23.5 65t41 57.5t57 41.5t72.5 16q29 0 51.5 -11.5t37.5 -29.5q1 4 2 9q1 7 6 28h63l-57 -267q-7 -30 -6 -44.5t5 -31.5l-62 -20q-5 13 -7 22.5t-1 20.5zM225 -93q-5 -21 -22.5 -35t-38.5 -14t-32.5 14t-6.5 35t22.5 36t38.5 15t32.5 -15
t6.5 -36z" />
    <glyph glyph-name="uni1EA2" unicode="A&#x309;" horiz-adv-x="445" 
d="M438 0l-70 -12l-24 136h-193l-80 -136l-65 12l278 455q4 6 14 17.5t22 17.5q6 3 13 2t14 -4t12 -7t7 -7q7 -9 0 -18t-10 -13zM301 377l-113 -191h145zM304 613q-1 2 -3 4q-5 5 -7 9l-10 14q8 12 29.5 27.5t54.5 15.5q26 0 44.5 -16.5t14.5 -47.5q-3 -22 -13.5 -39.5
t-24 -30t-27.5 -21t-23 -12.5q-1 0 -5 4l-9 9l-12 14q10 3 22.5 12.5t22.5 21t15 23.5t1 22q-5 9 -14.5 11t-20 -0.5t-20.5 -8t-15 -11.5z" />
    <glyph glyph-name="uni1EA3" unicode="a&#x309;" horiz-adv-x="411" 
d="M320 156q2 12 3.5 19t2.5 11l1 5q1 18 -1.5 36t-11 32.5t-24 24t-38.5 9.5q-26 0 -46.5 -12t-35.5 -30t-24.5 -39t-13.5 -39q-3 -15 -3 -36t6.5 -39.5t22 -31.5t43.5 -13q22 0 41.5 9t34.5 23.5t26 33t17 37.5zM297 29q-24 -19 -51.5 -27t-57.5 -8q-40 0 -65.5 16
t-39.5 41.5t-16.5 57.5t4.5 64q7 33 23.5 65t41 57.5t57 41.5t72.5 16q29 0 51.5 -11.5t37.5 -29.5q1 4 2 9q1 7 6 28h63l-57 -267q-7 -30 -6 -44.5t5 -31.5l-62 -20q-5 13 -7 22.5t-1 20.5zM251 485q-1 2 -3 4q-5 5 -7 9l-10 14q8 12 29.5 27.5t54.5 15.5q26 0 44.5 -16.5
t14.5 -47.5q-3 -22 -13.5 -39.5t-24 -30t-27.5 -21t-23 -12.5q-1 0 -5 4l-9 9l-12 14q10 3 22.5 12.5t22.5 21t15 23.5t1 22q-5 9 -14.5 11t-20 -0.5t-20.5 -8t-15 -11.5z" />
    <glyph glyph-name="uni1EA4" unicode="&#xc2;&#x301;" horiz-adv-x="445" 
d="M438 0l-70 -12l-24 136h-193l-80 -136l-65 12l278 455q4 6 14 17.5t22 17.5q6 3 13 2t14 -4t12 -7t7 -7q7 -9 0 -18t-10 -13zM301 377l-113 -191h145zM346 586q-20 -17 -38 -32.5t-36 -31.5h-70q13 12 32.5 29t37.5 32.5t30 26.5l12 11h78q17 -24 34 -49t35 -50h-69z
M533 713l93 1l-122 -105h-58z" />
    <glyph glyph-name="uni1EA5" unicode="&#xe2;&#x301;" horiz-adv-x="411" 
d="M320 156q2 12 3.5 19t2.5 11l1 5q1 18 -1.5 36t-11 32.5t-24 24t-38.5 9.5q-26 0 -46.5 -12t-35.5 -30t-24.5 -39t-13.5 -39q-3 -15 -3 -36t6.5 -39.5t22 -31.5t43.5 -13q22 0 41.5 9t34.5 23.5t26 33t17 37.5zM297 29q-24 -19 -51.5 -27t-57.5 -8q-40 0 -65.5 16
t-39.5 41.5t-16.5 57.5t4.5 64q7 33 23.5 65t41 57.5t57 41.5t72.5 16q29 0 51.5 -11.5t37.5 -29.5q1 4 2 9q1 7 6 28h63l-57 -267q-7 -30 -6 -44.5t5 -31.5l-62 -20q-5 13 -7 22.5t-1 20.5zM292 459q-20 -17 -38 -32.5t-36 -31.5h-70q13 12 32.5 29t37.5 32.5t30 26.5
l12 11h78q17 -24 34 -49t35 -50h-69zM491 580l93 1l-122 -105h-58z" />
    <glyph glyph-name="uni1EA6" unicode="&#xc2;&#x300;" horiz-adv-x="447" 
d="M438 0l-70 -12l-24 136h-193l-80 -136l-65 12l278 455q4 6 14 17.5t22 17.5q6 3 13 2t14 -4t12 -7t7 -7q7 -9 0 -18t-10 -13zM301 377l-113 -191h145zM346 585q-20 -17 -38 -32.5t-36 -31.5h-70q13 12 32.5 29t37.5 32.5t30 26.5l12 11h78q17 -24 34 -49t35 -50h-69z
M537 609h-58l-78 105l93 -1z" />
    <glyph glyph-name="uni1EA7" unicode="&#xe2;&#x300;" horiz-adv-x="411" 
d="M320 156q2 12 3.5 19t2.5 11l1 5q1 18 -1.5 36t-11 32.5t-24 24t-38.5 9.5q-26 0 -46.5 -12t-35.5 -30t-24.5 -39t-13.5 -39q-3 -15 -3 -36t6.5 -39.5t22 -31.5t43.5 -13q22 0 41.5 9t34.5 23.5t26 33t17 37.5zM297 29q-24 -19 -51.5 -27t-57.5 -8q-40 0 -65.5 16
t-39.5 41.5t-16.5 57.5t4.5 64q7 33 23.5 65t41 57.5t57 41.5t72.5 16q29 0 51.5 -11.5t37.5 -29.5q1 4 2 9q1 7 6 28h63l-57 -267q-7 -30 -6 -44.5t5 -31.5l-62 -20q-5 13 -7 22.5t-1 20.5zM292 462q-20 -17 -38 -32.5t-36 -31.5h-70q13 12 32.5 29t37.5 32.5t30 26.5
l12 11h78q17 -24 34 -49t35 -50h-69zM492 479h-58l-78 105l93 -1z" />
    <glyph glyph-name="uni1EA8" unicode="&#xc2;&#x309;" horiz-adv-x="445" 
d="M438 0l-70 -12l-24 136h-193l-80 -136l-65 12l278 455q4 6 14 17.5t22 17.5q6 3 13 2t14 -4t12 -7t7 -7q7 -9 0 -18t-10 -13zM301 377l-113 -191h145zM346 586q-20 -17 -38 -32.5t-36 -31.5h-70q13 12 32.5 29t37.5 32.5t30 26.5l12 11h78q17 -24 34 -49t35 -50h-69z
M441 706q-1 2 -3 4q-5 5 -7 9l-10 14q8 12 29.5 27.5t54.5 15.5q26 0 44.5 -16.5t14.5 -47.5q-3 -22 -13.5 -39.5t-24 -30t-27.5 -21t-23 -12.5q-1 0 -5 4l-9 9l-12 14q10 3 22.5 12.5t22.5 21t15 23.5t1 22q-5 9 -14.5 11t-20 -0.5t-20.5 -8t-15 -11.5z" />
    <glyph glyph-name="uni1EA9" unicode="&#xe2;&#x309;" horiz-adv-x="413" 
d="M320 156q2 12 3.5 19t2.5 11l1 5q1 18 -1.5 36t-11 32.5t-24 24t-38.5 9.5q-26 0 -46.5 -12t-35.5 -30t-24.5 -39t-13.5 -39q-3 -15 -3 -36t6.5 -39.5t22 -31.5t43.5 -13q22 0 41.5 9t34.5 23.5t26 33t17 37.5zM297 29q-24 -19 -51.5 -27t-57.5 -8q-40 0 -65.5 16
t-39.5 41.5t-16.5 57.5t4.5 64q7 33 23.5 65t41 57.5t57 41.5t72.5 16q29 0 51.5 -11.5t37.5 -29.5q1 4 2 9q1 7 6 28h63l-57 -267q-7 -30 -6 -44.5t5 -31.5l-62 -20q-5 13 -7 22.5t-1 20.5zM290 464q-20 -17 -38 -32.5t-36 -31.5h-70q13 12 32.5 29t37.5 32.5t30 26.5
l12 11h78q17 -24 34 -49t35 -50h-69zM390 578q-1 2 -3 4q-5 5 -7 9l-10 14q8 12 29.5 27.5t54.5 15.5q26 0 44.5 -16.5t14.5 -47.5q-3 -22 -13.5 -39.5t-24 -30t-27.5 -21t-23 -12.5q-1 0 -5 4l-9 9l-12 14q10 3 22.5 12.5t22.5 21t15 23.5t1 22q-5 9 -14.5 11t-20 -0.5
t-20.5 -8t-15 -11.5z" />
    <glyph glyph-name="uni1EAA" unicode="&#xc2;&#x303;" horiz-adv-x="443" 
d="M438 0l-70 -12l-24 136h-193l-80 -136l-65 12l278 455q4 6 14 17.5t22 17.5q6 3 13 2t14 -4t12 -7t7 -7q7 -9 0 -18t-10 -13zM301 377l-113 -191h145zM233 652q5 27 18 48.5t31 33t40 12t46 -14.5q24 -13 39.5 -16.5t25 -0.5t14.5 11t7 19h54q-3 -19 -13 -39t-26.5 -34
t-39 -18t-50.5 9q-29 18 -46.5 21t-26.5 -2t-12.5 -14t-5.5 -15h-55zM346 584q-20 -17 -38 -32.5t-36 -31.5h-70q13 12 32.5 29t37.5 32.5t30 26.5l12 11h78q17 -24 34 -49t35 -50h-69z" />
    <glyph glyph-name="uni1EAB" unicode="&#xe2;&#x303;" horiz-adv-x="413" 
d="M320 156q2 12 3.5 19t2.5 11l1 5q1 18 -1.5 36t-11 32.5t-24 24t-38.5 9.5q-26 0 -46.5 -12t-35.5 -30t-24.5 -39t-13.5 -39q-3 -15 -3 -36t6.5 -39.5t22 -31.5t43.5 -13q22 0 41.5 9t34.5 23.5t26 33t17 37.5zM297 29q-24 -19 -51.5 -27t-57.5 -8q-40 0 -65.5 16
t-39.5 41.5t-16.5 57.5t4.5 64q7 33 23.5 65t41 57.5t57 41.5t72.5 16q29 0 51.5 -11.5t37.5 -29.5q1 4 2 9q1 7 6 28h63l-57 -267q-7 -30 -6 -44.5t5 -31.5l-62 -20q-5 13 -7 22.5t-1 20.5zM292 459q-20 -17 -38 -32.5t-36 -31.5h-70q13 12 32.5 29t37.5 32.5t30 26.5
l12 11h78q17 -24 34 -49t35 -50h-69zM181 531q5 27 18 48.5t31 33t40 12t46 -14.5q24 -13 39.5 -16.5t25 -0.5t14.5 11t7 19h54q-3 -19 -13 -39t-26.5 -34t-39 -18t-50.5 9q-29 18 -46.5 21t-26.5 -2t-12.5 -14t-5.5 -15h-55z" />
    <glyph glyph-name="uni1EAC" unicode="&#xc2;&#x323;" horiz-adv-x="445" 
d="M438 0l-70 -12l-24 136h-193l-80 -136l-65 12l278 455q4 6 14 17.5t22 17.5q6 3 13 2t14 -4t12 -7t7 -7q7 -9 0 -18t-10 -13zM301 377l-113 -191h145zM252 -93q-5 -21 -22.5 -35t-38.5 -14t-32.5 14t-6.5 35t22.5 36t38.5 15t32.5 -15t6.5 -36zM346 586
q-20 -17 -38 -32.5t-36 -31.5h-70q13 12 32.5 29t37.5 32.5t30 26.5l12 11h78q17 -24 34 -49t35 -50h-69z" />
    <glyph glyph-name="uni1EAD" unicode="&#xe2;&#x323;" horiz-adv-x="409" 
d="M320 156q2 12 3.5 19t2.5 11l1 5q1 18 -1.5 36t-11 32.5t-24 24t-38.5 9.5q-26 0 -46.5 -12t-35.5 -30t-24.5 -39t-13.5 -39q-3 -15 -3 -36t6.5 -39.5t22 -31.5t43.5 -13q22 0 41.5 9t34.5 23.5t26 33t17 37.5zM297 29q-24 -19 -51.5 -27t-57.5 -8q-40 0 -65.5 16
t-39.5 41.5t-16.5 57.5t4.5 64q7 33 23.5 65t41 57.5t57 41.5t72.5 16q29 0 51.5 -11.5t37.5 -29.5q1 4 2 9q1 7 6 28h63l-57 -267q-7 -30 -6 -44.5t5 -31.5l-62 -20q-5 13 -7 22.5t-1 20.5zM224 -93q-5 -21 -22.5 -35t-38.5 -14t-32.5 14t-6.5 35t22.5 36t38.5 15t32.5 -15
t6.5 -36zM292 460q-20 -17 -38 -32.5t-36 -31.5h-70q13 12 32.5 29t37.5 32.5t30 26.5l12 11h78q17 -24 34 -49t35 -50h-69z" />
    <glyph glyph-name="uni1EAE" unicode="&#x102;&#x301;" horiz-adv-x="449" 
d="M335 520q54 0 92.5 32t49.5 84h-59q-7 -33 -29.5 -50t-45 -17t-37.5 16.5t-8 50.5h-58q-12 -55 14 -85.5t81 -30.5zM439 0l-70 -12l-24 136h-193l-80 -136l-65 12l278 455q4 6 14 17.5t22 17.5q6 3 13 2t14 -4t12 -7t7 -7q7 -9 0 -18t-10 -13zM302 377l-113 -191h145z
M408 739l93 1l-122 -105h-58z" />
    <glyph glyph-name="uni1EAF" unicode="&#x103;&#x301;" horiz-adv-x="409" 
d="M283 397q54 0 92.5 32t49.5 84h-59q-7 -33 -29.5 -50t-45 -17t-38 16.5t-7.5 50.5h-58q-12 -55 14 -85.5t81 -30.5zM320 156q-6 -19 -17 -37.5t-26 -33t-34.5 -23.5t-41.5 -9q-28 0 -43.5 13t-22 31.5t-6.5 39.5t3 36q4 18 13.5 39t24.5 39t35.5 30t46.5 12
q23 0 38.5 -9.5t24 -24t11 -32.5t1.5 -36l-1 -5q-1 -4 -2.5 -11t-3.5 -19zM297 29q-1 -11 1 -20.5t7 -22.5l62 20q-4 17 -5 31.5t6 44.5l57 267h-63q-5 -21 -6 -28q-1 -5 -2 -9q-15 18 -37.5 29.5t-51.5 11.5q-40 0 -72.5 -16t-57 -41.5t-41 -57.5t-23.5 -65
q-7 -32 -4.5 -64t16.5 -57.5t39.5 -41.5t65.5 -16q30 0 57.5 8t51.5 27zM359 616l93 1l-122 -105h-58z" />
    <glyph glyph-name="uni1EB0" unicode="&#x102;&#x300;" horiz-adv-x="452" 
d="M335 520q-55 0 -81 30.5t-14 85.5h58q-7 -34 8 -50.5t37.5 -16.5t45 17t29.5 50h59q-11 -52 -49.5 -84t-92.5 -32zM442 0l-70 -12l-24 136h-193l-80 -136l-65 12l278 455q4 6 14 17.5t22 17.5q6 3 13 2t14 -4t12 -7t7 -7q7 -9 0 -18t-10 -13zM305 377l-113 -191h145z
M397 635h-58l-78 105l93 -1z" />
    <glyph glyph-name="uni1EB1" unicode="&#x103;&#x300;" horiz-adv-x="407" 
d="M283 397q-55 0 -81 30.5t-14 85.5h58q-8 -34 7.5 -50.5t38 -16.5t45 17t29.5 50h59q-11 -52 -49.5 -84t-92.5 -32zM320 156q2 12 3.5 19t2.5 11l1 5q1 18 -1.5 36t-11 32.5t-24 24t-38.5 9.5q-26 0 -46.5 -12t-35.5 -30t-24.5 -39t-13.5 -39q-3 -15 -3 -36t6.5 -39.5
t22 -31.5t43.5 -13q22 0 41.5 9t34.5 23.5t26 33t17 37.5zM297 29q-24 -19 -51.5 -27t-57.5 -8q-40 0 -65.5 16t-39.5 41.5t-16.5 57.5t4.5 64q7 33 23.5 65t41 57.5t57 41.5t72.5 16q29 0 51.5 -11.5t37.5 -29.5q1 4 2 9q1 7 6 28h63l-57 -267q-7 -30 -6 -44.5t5 -31.5
l-62 -20q-5 13 -7 22.5t-1 20.5zM341 515h-58l-78 105l93 -1z" />
    <glyph glyph-name="uni1EB2" unicode="&#x102;&#x309;" horiz-adv-x="453" 
d="M335 520q54 0 92.5 32t49.5 84h-59q-7 -33 -29.5 -50t-45 -17t-37.5 16.5t-8 50.5h-58q-12 -55 14 -85.5t81 -30.5zM443 0l-70 -12l-24 136h-193l-80 -136l-65 12l278 455q4 6 14 17.5t22 17.5q6 3 13 2t14 -4t12 -7t7 -7q7 -9 0 -18t-10 -13zM306 377l-113 -191h145z
M319 728q-1 2 -3 4q-5 5 -7 9l-10 14q8 12 29.5 27.5t54.5 15.5q26 0 44.5 -16.5t14.5 -47.5q-3 -22 -13.5 -39.5t-24 -30t-27.5 -21t-23 -12.5q-1 0 -5 4l-9 9l-12 14q10 3 22.5 12.5t22.5 21t15 23.5t1 22q-5 9 -14.5 11t-20 -0.5t-20.5 -8t-15 -11.5z" />
    <glyph glyph-name="uni1EB3" unicode="&#x103;&#x309;" horiz-adv-x="409" 
d="M284 400q54 0 92 32t49 84h-59q-7 -33 -29.5 -50t-45 -17t-37.5 16.5t-8 50.5h-58q-11 -55 15 -85.5t81 -30.5zM320 156q-6 -19 -17 -37.5t-26 -33t-34.5 -23.5t-41.5 -9q-28 0 -43.5 13t-22 31.5t-6.5 39.5t3 36q4 18 13.5 39t24.5 39t35.5 30t46.5 12q23 0 38.5 -9.5
t24 -24t11 -32.5t1.5 -36l-1 -5q-1 -4 -2.5 -11t-3.5 -19zM297 29q-1 -11 1 -20.5t7 -22.5l62 20q-4 17 -5 31.5t6 44.5l57 267h-63q-5 -21 -6 -28q-1 -5 -2 -9q-15 18 -37.5 29.5t-51.5 11.5q-40 0 -72.5 -16t-57 -41.5t-41 -57.5t-23.5 -65q-7 -32 -4.5 -64t16.5 -57.5
t39.5 -41.5t65.5 -16q30 0 57.5 8t51.5 27zM268 614q-1 2 -3 4q-5 5 -7 9l-10 14q8 12 29.5 27.5t54.5 15.5q26 0 44.5 -16.5t14.5 -47.5q-3 -22 -13.5 -39.5t-24 -30t-27.5 -21t-23 -12.5q-1 0 -5 4l-9 9l-12 14q10 3 22.5 12.5t22.5 21t15 23.5t1 22q-5 9 -14.5 11
t-20 -0.5t-20.5 -8t-15 -11.5z" />
    <glyph glyph-name="uni1EB4" unicode="&#x102;&#x303;" horiz-adv-x="453" 
d="M336 524q-55 0 -81 30.5t-14 85.5h58q-8 -34 7.5 -50.5t38 -16.5t45 17t29.5 50h59q-11 -52 -49.5 -84t-92.5 -32zM443 0l-70 -12l-24 136h-193l-80 -136l-65 12l278 455q4 6 14 17.5t22 17.5q6 3 13 2t14 -4t12 -7t7 -7q7 -9 0 -18t-10 -13zM306 377l-113 -191h145z
M236 672q5 27 18 48.5t31 33t40 12t46 -14.5q24 -13 39.5 -16.5t25 -0.5t14.5 11t7 19h54q-3 -19 -13 -39t-26.5 -34t-39 -18t-50.5 9q-29 18 -46.5 21t-26.5 -2t-12.5 -14t-5.5 -15h-55z" />
    <glyph glyph-name="uni1EB5" unicode="&#x103;&#x303;" horiz-adv-x="411" 
d="M283 398q-55 0 -81 30.5t-14 85.5h58q-7 -34 8 -50.5t37.5 -16.5t45 17t29.5 50h59q-11 -52 -49.5 -84t-92.5 -32zM320 156q2 12 3.5 19t2.5 11l1 5q1 18 -1.5 36t-11 32.5t-24 24t-38.5 9.5q-26 0 -46.5 -12t-35.5 -30t-24.5 -39t-13.5 -39q-3 -15 -3 -36t6.5 -39.5
t22 -31.5t43.5 -13q22 0 41.5 9t34.5 23.5t26 33t17 37.5zM297 29q-24 -19 -51.5 -27t-57.5 -8q-40 0 -65.5 16t-39.5 41.5t-16.5 57.5t4.5 64q7 33 23.5 65t41 57.5t57 41.5t72.5 16q29 0 51.5 -11.5t37.5 -29.5q1 4 2 9q1 7 6 28h63l-57 -267q-7 -30 -6 -44.5t5 -31.5
l-62 -20q-5 13 -7 22.5t-1 20.5zM181 543q5 27 18 48.5t31 33t40 12t46 -14.5q24 -13 39.5 -16.5t25 -0.5t14.5 11t7 19h54q-3 -19 -13 -39t-26.5 -34t-39 -18t-50.5 9q-29 18 -46.5 21t-26.5 -2t-12.5 -14t-5.5 -15h-55z" />
    <glyph glyph-name="uni1EB6" unicode="&#x102;&#x323;" horiz-adv-x="448" 
d="M334 515q-55 0 -81 30.5t-14 85.5h58q-8 -34 7.5 -50.5t38 -16.5t45 17t29.5 50h59q-11 -52 -49.5 -84t-92.5 -32zM440 0l-70 -12l-24 136h-193l-80 -136l-65 12l278 455q4 6 14 17.5t22 17.5q6 3 13 2t14 -4t12 -7t7 -7q7 -9 0 -18t-10 -13zM303 377l-113 -191h145z
M254 -93q-5 -21 -22.5 -35t-38.5 -14t-32.5 14t-6.5 35t22.5 36t38.5 15t32.5 -15t6.5 -36z" />
    <glyph glyph-name="uni1EB7" unicode="&#x103;&#x323;" horiz-adv-x="407" 
d="M283 396q-55 0 -81 30.5t-15 85.5h58q-7 -34 8 -50.5t37.5 -16.5t45 17t29.5 50h59q-11 -52 -49 -84t-92 -32zM320 156q2 12 3.5 19t2.5 11l1 5q1 18 -1.5 36t-11 32.5t-24 24t-38.5 9.5q-26 0 -46.5 -12t-35.5 -30t-24.5 -39t-13.5 -39q-3 -15 -3 -36t6.5 -39.5
t22 -31.5t43.5 -13q22 0 41.5 9t34.5 23.5t26 33t17 37.5zM297 29q-24 -19 -51.5 -27t-57.5 -8q-40 0 -65.5 16t-39.5 41.5t-16.5 57.5t4.5 64q7 33 23.5 65t41 57.5t57 41.5t72.5 16q29 0 51.5 -11.5t37.5 -29.5q1 4 2 9q1 7 6 28h63l-57 -267q-7 -30 -6 -44.5t5 -31.5
l-62 -20q-5 13 -7 22.5t-1 20.5zM226 -93q-5 -21 -22.5 -35t-38.5 -14t-32.5 14t-6.5 35t22.5 36t38.5 15t32.5 -15t6.5 -36z" />
    <glyph glyph-name="uni1EB8" unicode="E&#x323;" horiz-adv-x="368" 
d="M137 394q2 9 -2.5 16t-9 13t-7.5 12t2 13q3 5 9.5 12t13.5 13t14.5 9.5t13.5 0.5q3 -2 6 -3.5l7 -3.5h238l-15 -68h-199l-27 -127h178l-14 -68h-178l-31 -146h198l-14 -67h-266zM217 -93q-5 -21 -22.5 -35t-38.5 -14t-32.5 14t-6.5 35t22.5 36t38.5 15t32.5 -15t6.5 -36z
" />
    <glyph glyph-name="uni1EB9" unicode="e&#x323;" horiz-adv-x="387" 
d="M396 180q-5 -19 -16 -26.5t-31 -7.5h-217q-4 -35 10.5 -57.5t35.5 -31.5q25 -11 54 -5.5t70 28.5l28 -47q-16 -12 -40.5 -22t-52.5 -14t-55.5 -2t-49.5 14q-42 22 -58.5 64.5t-4.5 99.5q6 27 22 58.5t41.5 58.5t61.5 45t82 18q65 0 97 -39q12 -15 18.5 -33t8 -36t0.5 -34
t-4 -28v-3zM336 205q8 37 -12.5 64.5t-61.5 27.5q-26 0 -45.5 -9.5t-33.5 -24t-23.5 -30.5t-13.5 -28h190zM223 -93q-5 -21 -22.5 -35t-38.5 -14t-32.5 14t-6.5 35t22.5 36t38.5 15t32.5 -15t6.5 -36z" />
    <glyph glyph-name="uni1EBA" unicode="E&#x309;" horiz-adv-x="368" 
d="M137 394q2 9 -2.5 16t-9 13t-7.5 12t2 13q3 5 9.5 12t13.5 13t14.5 9.5t13.5 0.5q3 -2 6 -3.5l7 -3.5h238l-15 -68h-199l-27 -127h178l-14 -68h-178l-31 -146h198l-14 -67h-266zM271 617q-1 2 -3 4q-5 5 -7 9l-10 14q8 12 29.5 27.5t54.5 15.5q26 0 44.5 -16.5
t14.5 -47.5q-3 -22 -13.5 -39.5t-24 -30t-27.5 -21t-23 -12.5q-1 0 -5 4l-9 9l-12 14q10 3 22.5 12.5t22.5 21t15 23.5t1 22q-5 9 -14.5 11t-20 -0.5t-20.5 -8t-15 -11.5z" />
    <glyph glyph-name="uni1EBB" unicode="e&#x309;" horiz-adv-x="387" 
d="M396 180q-5 -19 -16 -26.5t-31 -7.5h-217q-4 -35 10.5 -57.5t35.5 -31.5q25 -11 54 -5.5t70 28.5l28 -47q-16 -12 -40.5 -22t-52.5 -14t-55.5 -2t-49.5 14q-42 22 -58.5 64.5t-4.5 99.5q6 27 22 58.5t41.5 58.5t61.5 45t82 18q65 0 97 -39q12 -15 18.5 -33t8 -36t0.5 -34
t-4 -28v-3zM336 205q8 37 -12.5 64.5t-61.5 27.5q-26 0 -45.5 -9.5t-33.5 -24t-23.5 -30.5t-13.5 -28h190zM256.915 483.852q-1.00781 1.92285 -3.02246 3.8457q-5.03809 4.80859 -7.05371 8.6543l-10.0752 13.4619q8.06055 11.5381 29.7227 26.4424
q21.6631 14.9043 54.9131 14.9043q26.1963 0 44.8369 -15.8662q18.6396 -15.8652 14.6094 -45.6729q-3.02246 -21.1543 -13.6025 -37.9814q-10.5791 -16.8271 -24.1816 -28.8467q-13.6016 -12.0195 -27.708 -20.1924q-14.1055 -8.17285 -23.1738 -12.0195
q-1.00781 0 -5.03809 3.84668q-4.03027 3.8457 -9.06738 8.6543l-12.0918 13.4609q10.0762 2.88477 22.6709 12.0195t22.6699 20.1924q10.0762 11.0576 15.1143 22.5967q5.03711 11.5381 1.00684 21.1543q-5.03809 8.65332 -14.6094 10.5762
q-9.57227 1.92383 -20.1514 -0.480469q-10.5801 -2.40332 -20.6553 -7.69238q-10.0752 -5.28809 -15.1133 -11.0576z" />
    <glyph glyph-name="uni1EBC" unicode="E&#x303;" horiz-adv-x="368" 
d="M137 394q2 9 -2.5 16t-9 13t-7.5 12t2 13q3 5 9.5 12t13.5 13t14.5 9.5t13.5 0.5q3 -2 6 -3.5l7 -3.5h238l-15 -68h-199l-27 -127h178l-14 -68h-178l-31 -146h198l-14 -67h-266zM165 533q5 27 18 48.5t31 33t40 12t46 -14.5q24 -13 39.5 -16.5t25 -0.5t14.5 11t7 19h54
q-3 -19 -13 -39t-26.5 -34t-39 -18t-50.5 9q-29 18 -46.5 21t-26.5 -2t-12.5 -14t-5.5 -15h-55z" />
    <glyph glyph-name="uni1EBD" unicode="e&#x303;" horiz-adv-x="387" 
d="M396 180q-5 -19 -16 -26.5t-31 -7.5h-217q-4 -35 10.5 -57.5t35.5 -31.5q25 -11 54 -5.5t70 28.5l28 -47q-16 -12 -40.5 -22t-52.5 -14t-55.5 -2t-49.5 14q-42 22 -58.5 64.5t-4.5 99.5q6 27 22 58.5t41.5 58.5t61.5 45t82 18q65 0 97 -39q12 -15 18.5 -33t8 -36t0.5 -34
t-4 -28v-3zM336 205q8 37 -12.5 64.5t-61.5 27.5q-26 0 -45.5 -9.5t-33.5 -24t-23.5 -30.5t-13.5 -28h190zM146 397q5 27 18 48.5t31 33t40 12t46 -14.5q24 -13 39.5 -16.5t25 -0.5t14.5 11t7 19h54q-3 -19 -13 -39t-26.5 -34t-39 -18t-50.5 9q-29 18 -46.5 21t-26.5 -2
t-12.5 -14t-5.5 -15h-55z" />
    <glyph glyph-name="uni1EBE" unicode="&#xca;&#x301;" horiz-adv-x="368" 
d="M137 394q2 9 -2.5 16t-9 13t-7.5 12t2 13q3 5 9.5 12t13.5 13t14.5 9.5t13.5 0.5q3 -2 6 -3.5l7 -3.5h238l-15 -68h-199l-27 -127h178l-14 -68h-178l-31 -146h198l-14 -67h-266zM311 586q-20 -17 -38 -32.5t-36 -31.5h-70q13 12 32.5 29t37.5 32.5t30 26.5l12 11h78
q17 -24 34 -49t35 -50h-69zM497 710l93 1l-122 -105h-58z" />
    <glyph glyph-name="uni1EBF" unicode="&#xea;&#x301;" horiz-adv-x="387" 
d="M396 180q-5 -19 -16 -26.5t-31 -7.5h-217q-4 -35 10.5 -57.5t35.5 -31.5q25 -11 54 -5.5t70 28.5l28 -47q-16 -12 -40.5 -22t-52.5 -14t-55.5 -2t-49.5 14q-42 22 -58.5 64.5t-4.5 99.5q6 27 22 58.5t41.5 58.5t61.5 45t82 18q65 0 97 -39q12 -15 18.5 -33t8 -36t0.5 -34
t-4 -28v-3zM336 205q8 37 -12.5 64.5t-61.5 27.5q-26 0 -45.5 -9.5t-33.5 -24t-23.5 -30.5t-13.5 -28h190zM297 461q-20 -17 -38 -32.5t-36 -31.5h-70q13 12 32.5 29t37.5 32.5t30 26.5l12 11h78q17 -24 34 -49t35 -50h-69zM484 582l93 1l-122 -105h-58z" />
    <glyph glyph-name="uni1EC0" unicode="&#xca;&#x300;" horiz-adv-x="368" 
d="M137 394q2 9 -2.5 16t-9 13t-7.5 12t2 13q3 5 9.5 12t13.5 13t14.5 9.5t13.5 0.5q3 -2 6 -3.5l7 -3.5h238l-15 -68h-199l-27 -127h178l-14 -68h-178l-31 -146h198l-14 -67h-266zM310 586q-20 -17 -38 -32.5t-36 -31.5h-70q13 12 32.5 29t37.5 32.5t30 26.5l12 11h78
q17 -24 34 -49t35 -50h-69zM492 607h-58l-78 105l93 -1z" />
    <glyph glyph-name="uni1EC1" unicode="&#xea;&#x300;" horiz-adv-x="387" 
d="M396 180q-5 -19 -16 -26.5t-31 -7.5h-217q-4 -35 10.5 -57.5t35.5 -31.5q25 -11 54 -5.5t70 28.5l28 -47q-16 -12 -40.5 -22t-52.5 -14t-55.5 -2t-49.5 14q-42 22 -58.5 64.5t-4.5 99.5q6 27 22 58.5t41.5 58.5t61.5 45t82 18q65 0 97 -39q12 -15 18.5 -33t8 -36t0.5 -34
t-4 -28v-3zM336 205q8 37 -12.5 64.5t-61.5 27.5q-26 0 -45.5 -9.5t-33.5 -24t-23.5 -30.5t-13.5 -28h190zM297 463q-20 -17 -38 -32.5t-36 -31.5h-70q13 12 32.5 29t37.5 32.5t30 26.5l12 11h78q17 -24 34 -49t35 -50h-69zM476 479h-58l-78 105l93 -1z" />
    <glyph glyph-name="uni1EC2" unicode="&#xca;&#x309;" horiz-adv-x="368" 
d="M137 394q2 9 -2.5 16t-9 13t-7.5 12t2 13q3 5 9.5 12t13.5 13t14.5 9.5t13.5 0.5q3 -2 6 -3.5l7 -3.5h238l-15 -68h-199l-27 -127h178l-14 -68h-178l-31 -146h198l-14 -67h-266zM307 586q-20 -17 -38 -32.5t-36 -31.5h-70q13 12 32.5 29t37.5 32.5t30 26.5l12 11h78
q17 -24 34 -49t35 -50h-69zM402 703q-1 2 -3 4q-5 5 -7 9l-10 14q8 12 29.5 27.5t54.5 15.5q26 0 44.5 -16.5t14.5 -47.5q-3 -22 -13.5 -39.5t-24 -30t-27.5 -21t-23 -12.5q-1 0 -5 4l-9 9l-12 14q10 3 22.5 12.5t22.5 21t15 23.5t1 22q-5 9 -14.5 11t-20 -0.5t-20.5 -8
t-15 -11.5z" />
    <glyph glyph-name="uni1EC3" unicode="&#xea;&#x309;" horiz-adv-x="387" 
d="M396 180q-5 -19 -16 -26.5t-31 -7.5h-217q-4 -35 10.5 -57.5t35.5 -31.5q25 -11 54 -5.5t70 28.5l28 -47q-16 -12 -40.5 -22t-52.5 -14t-55.5 -2t-49.5 14q-42 22 -58.5 64.5t-4.5 99.5q6 27 22 58.5t41.5 58.5t61.5 45t82 18q65 0 97 -39q12 -15 18.5 -33t8 -36t0.5 -34
t-4 -28v-3zM336 205q8 37 -12.5 64.5t-61.5 27.5q-26 0 -45.5 -9.5t-33.5 -24t-23.5 -30.5t-13.5 -28h190zM300 465q-20 -17 -38 -32.5t-36 -31.5h-70q13 12 32.5 29t37.5 32.5t30 26.5l12 11h78q17 -24 34 -49t35 -50h-69zM385 582q-1 2 -3 4q-5 5 -7 9l-10 14
q8 12 29.5 27.5t54.5 15.5q26 0 44.5 -16.5t14.5 -47.5q-3 -22 -13.5 -39.5t-24 -30t-27.5 -21t-23 -12.5q-1 0 -5 4l-9 9l-12 14q10 3 22.5 12.5t22.5 21t15 23.5t1 22q-5 9 -14.5 11t-20 -0.5t-20.5 -8t-15 -11.5z" />
    <glyph glyph-name="uni1EC4" unicode="&#xca;&#x303;" horiz-adv-x="368" 
d="M137 394q2 9 -2.5 16t-9 13t-7.5 12t2 13q3 5 9.5 12t13.5 13t14.5 9.5t13.5 0.5q3 -2 6 -3.5l7 -3.5h238l-15 -68h-199l-27 -127h178l-14 -68h-178l-31 -146h198l-14 -67h-266zM310 588q-20 -17 -38 -32.5t-36 -31.5h-70q13 12 32.5 29t37.5 32.5t30 26.5l12 11h78
q17 -24 34 -49t35 -50h-69zM196 645q5 27 18 48.5t31 33t40 12t46 -14.5q24 -13 39.5 -16.5t25 -0.5t14.5 11t7 19h54q-3 -19 -13 -39t-26.5 -34t-39 -18t-50.5 9q-29 18 -46.5 21t-26.5 -2t-12.5 -14t-5.5 -15h-55z" />
    <glyph glyph-name="uni1EC5" unicode="&#xea;&#x303;" horiz-adv-x="387" 
d="M396 180q-5 -19 -16 -26.5t-31 -7.5h-217q-4 -35 10.5 -57.5t35.5 -31.5q25 -11 54 -5.5t70 28.5l28 -47q-16 -12 -40.5 -22t-52.5 -14t-55.5 -2t-49.5 14q-42 22 -58.5 64.5t-4.5 99.5q6 27 22 58.5t41.5 58.5t61.5 45t82 18q65 0 97 -39q12 -15 18.5 -33t8 -36t0.5 -34
t-4 -28v-3zM336 205q8 37 -12.5 64.5t-61.5 27.5q-26 0 -45.5 -9.5t-33.5 -24t-23.5 -30.5t-13.5 -28h190zM298 463q-20 -17 -38 -32.5t-36 -31.5h-70q13 12 32.5 29t37.5 32.5t30 26.5l12 11h78q17 -24 34 -49t35 -50h-69zM186 526q5 27 18 48.5t31 33t40 12t46 -14.5
q24 -13 39.5 -16.5t25 -0.5t14.5 11t7 19h54q-3 -19 -13 -39t-26.5 -34t-39 -18t-50.5 9q-29 18 -46.5 21t-26.5 -2t-12.5 -14t-5.5 -15h-55z" />
    <glyph glyph-name="uni1EC6" unicode="&#xca;&#x323;" horiz-adv-x="368" 
d="M137 394q2 9 -2.5 16t-9 13t-7.5 12t2 13q3 5 9.5 12t13.5 13t14.5 9.5t13.5 0.5q3 -2 6 -3.5l7 -3.5h238l-15 -68h-199l-27 -127h178l-14 -68h-178l-31 -146h198l-14 -67h-266zM216 -93q-5 -21 -22.5 -35t-38.5 -14t-32.5 14t-6.5 35t22.5 36t38.5 15t32.5 -15t6.5 -36z
M310 587q-20 -17 -38 -32.5t-36 -31.5h-70q13 12 32.5 29t37.5 32.5t30 26.5l12 11h78q17 -24 34 -49t35 -50h-69z" />
    <glyph glyph-name="uni1EC7" unicode="&#xea;&#x323;" horiz-adv-x="387" 
d="M396 180q-5 -19 -16 -26.5t-31 -7.5h-217q-4 -35 10.5 -57.5t35.5 -31.5q25 -11 54 -5.5t70 28.5l28 -47q-16 -12 -40.5 -22t-52.5 -14t-55.5 -2t-49.5 14q-42 22 -58.5 64.5t-4.5 99.5q6 27 22 58.5t41.5 58.5t61.5 45t82 18q65 0 97 -39q12 -15 18.5 -33t8 -36t0.5 -34
t-4 -28v-3zM336 205q8 37 -12.5 64.5t-61.5 27.5q-26 0 -45.5 -9.5t-33.5 -24t-23.5 -30.5t-13.5 -28h190zM229 -93q-5 -21 -22.5 -35t-38.5 -14t-32.5 14t-6.5 35t22.5 36t38.5 15t32.5 -15t6.5 -36zM295 460q-20 -17 -38 -32.5t-36 -31.5h-70q13 12 32.5 29t37.5 32.5
t30 26.5l12 11h78q17 -24 34 -49t35 -50h-69z" />
    <glyph glyph-name="uni1EC8" unicode="I&#x309;" horiz-adv-x="180" 
d="M59 0l101 477h66l-101 -477h-66zM169 609q-1 2 -3 4q-5 5 -7 9l-10 14q8 12 29.5 27.5t54.5 15.5q26 0 44.5 -16.5t14.5 -47.5q-3 -22 -13.5 -39.5t-24 -30t-27.5 -21t-23 -12.5q-1 0 -5 4l-9 9l-12 14q10 3 22.5 12.5t22.5 21t15 23.5t1 22q-5 9 -14.5 11t-20 -0.5
t-20.5 -8t-15 -11.5z" />
    <glyph glyph-name="uni1EC9" unicode="i&#x309;" horiz-adv-x="162" 
d="M62 0l74 349h60l-74 -349h-60zM137 492q-1 2 -3 4q-5 5 -7 9l-10 14q8 12 29.5 27.5t54.5 15.5q26 0 44.5 -16.5t14.5 -47.5q-3 -22 -13.5 -39.5t-24 -30t-27.5 -21t-23 -12.5q-1 0 -5 4l-9 9l-12 14q10 3 22.5 12.5t22.5 21t15 23.5t1 22q-5 9 -14.5 11t-20 -0.5
t-20.5 -8t-15 -11.5z" />
    <glyph glyph-name="uni1ECA" unicode="I&#x323;" horiz-adv-x="180" 
d="M59 0l101 477h66l-101 -477h-66zM121 -93q-5 -21 -22.5 -35t-38.5 -14t-32.5 14t-6.5 35t22.5 36t38.5 15t32.5 -15t6.5 -36z" />
    <glyph glyph-name="uni1ECB" unicode="i&#x323;" horiz-adv-x="180" 
d="M230 436q-4 -17 -18.5 -29t-31.5 -12t-27.5 12t-6.5 29t19 29t33 12q17 0 26.5 -12t5.5 -29zM67 0l74 349h60l-74 -349h-60zM128 -93q-5 -21 -22.5 -35t-38.5 -14t-32.5 14t-6.5 35t22.5 36t38.5 15t32.5 -15t6.5 -36z" />
    <glyph glyph-name="uni1ECC" unicode="O&#x323;" horiz-adv-x="470" 
d="M476 239q-12 -57 -35 -103t-55 -78.5t-71 -49.5t-84 -17q-51 0 -83.5 20.5t-49 55t-18 79.5t8.5 93q10 45 30 89t50.5 79t72 57t94.5 22q50 0 82 -21t48.5 -55.5t18 -79t-8.5 -91.5zM408 239q6 28 6.5 60t-8.5 59t-29 44.5t-55 17.5t-62.5 -16t-48 -42t-34.5 -58t-21 -65
q-6 -29 -6.5 -61t9 -59t30 -44.5t56.5 -17.5q34 0 61.5 17t48 43.5t34 58.5t19.5 63zM263 -93q-5 -21 -22.5 -35t-38.5 -14t-32.5 14t-6.5 35t22.5 36t38.5 15t32.5 -15t6.5 -36z" />
    <glyph glyph-name="uni1ECD" unicode="o&#x323;" horiz-adv-x="390" 
d="M381 174q-7 -33 -23.5 -65t-41 -57t-57 -40.5t-70.5 -15.5q-40 0 -66 15.5t-40 41t-16.5 57.5t4.5 64t23 64t40.5 57.5t57 41t72.5 15.5t66 -15.5t39.5 -41t16 -57.5t-4.5 -64zM319 174q4 19 3.5 40.5t-8 40t-22.5 30.5t-39 12q-23 0 -43 -11t-35.5 -28.5t-26.5 -39.5
t-16 -44t-3.5 -44t10 -39.5t23.5 -28.5t38 -11q22 0 42 11t35.5 28.5t26 39.5t15.5 44zM222 -93q-5 -21 -22.5 -35t-38.5 -14t-32.5 14t-6.5 35t22.5 36t38.5 15t32.5 -15t6.5 -36z" />
    <glyph glyph-name="uni1ECE" unicode="O&#x309;" horiz-adv-x="472" 
d="M476 239q-12 -57 -35 -103t-55 -78.5t-71 -49.5t-84 -17q-51 0 -83.5 20.5t-49 55t-18 79.5t8.5 93q10 45 30 89t50.5 79t72 57t94.5 22q50 0 82 -21t48.5 -55.5t18 -79t-8.5 -91.5zM408 239q6 28 6.5 60t-8.5 59t-29 44.5t-55 17.5t-62.5 -16t-48 -42t-34.5 -58t-21 -65
q-6 -29 -6.5 -61t9 -59t30 -44.5t56.5 -17.5q34 0 61.5 17t48 43.5t34 58.5t19.5 63zM319 623q-1 2 -3 4q-5 5 -7 9l-10 14q8 12 29.5 27.5t54.5 15.5q26 0 44.5 -16.5t14.5 -47.5q-3 -22 -13.5 -39.5t-24 -30t-27.5 -21t-23 -12.5q-1 0 -5 4l-9 9l-12 14q10 3 22.5 12.5
t22.5 21t15 23.5t1 22q-5 9 -14.5 11t-20 -0.5t-20.5 -8t-15 -11.5z" />
    <glyph glyph-name="uni1ECF" unicode="o&#x309;" horiz-adv-x="388" 
d="M381 174q-7 -33 -23.5 -65t-41 -57t-57 -40.5t-70.5 -15.5q-40 0 -66 15.5t-40 41t-16.5 57.5t4.5 64t23 64t40.5 57.5t57 41t72.5 15.5t66 -15.5t39.5 -41t16 -57.5t-4.5 -64zM319 174q4 19 3.5 40.5t-8 40t-22.5 30.5t-39 12q-23 0 -43 -11t-35.5 -28.5t-26.5 -39.5
t-16 -44t-3.5 -44t10 -39.5t23.5 -28.5t38 -11q22 0 42 11t35.5 28.5t26 39.5t15.5 44zM250 480q-1 2 -3 4q-5 5 -7 9l-10 14q8 12 29.5 27.5t54.5 15.5q26 0 44.5 -16.5t14.5 -47.5q-3 -22 -13.5 -39.5t-24 -30t-27.5 -21t-23 -12.5q-1 0 -5 4l-9 9l-12 14q10 3 22.5 12.5
t22.5 21t15 23.5t1 22q-5 9 -14.5 11t-20 -0.5t-20.5 -8t-15 -11.5z" />
    <glyph glyph-name="uni1ED0" unicode="&#xd4;&#x301;" horiz-adv-x="468" 
d="M476 239q-12 -57 -35 -103t-55 -78.5t-71 -49.5t-84 -17q-51 0 -83.5 20.5t-49 55t-18 79.5t8.5 93q10 45 30 89t50.5 79t72 57t94.5 22q50 0 82 -21t48.5 -55.5t18 -79t-8.5 -91.5zM408 239q6 28 6.5 60t-8.5 59t-29 44.5t-55 17.5t-62.5 -16t-48 -42t-34.5 -58t-21 -65
q-6 -29 -6.5 -61t9 -59t30 -44.5t56.5 -17.5q34 0 61.5 17t48 43.5t34 58.5t19.5 63zM355 587q-20 -17 -38 -32.5t-36 -31.5h-70q13 12 32.5 29t37.5 32.5t30 26.5l12 11h78q17 -24 34 -49t35 -50h-69zM556 714l93 1l-122 -105h-58z" />
    <glyph glyph-name="uni1ED1" unicode="&#xf4;&#x301;" horiz-adv-x="388" 
d="M381 174q-7 -33 -23.5 -65t-41 -57t-57 -40.5t-70.5 -15.5q-40 0 -66 15.5t-40 41t-16.5 57.5t4.5 64t23 64t40.5 57.5t57 41t72.5 15.5t66 -15.5t39.5 -41t16 -57.5t-4.5 -64zM319 174q4 19 3.5 40.5t-8 40t-22.5 30.5t-39 12q-23 0 -43 -11t-35.5 -28.5t-26.5 -39.5
t-16 -44t-3.5 -44t10 -39.5t23.5 -28.5t38 -11q22 0 42 11t35.5 28.5t26 39.5t15.5 44zM289 465q-20 -17 -38 -32.5t-36 -31.5h-70q13 12 32.5 29t37.5 32.5t30 26.5l12 11h78q17 -24 34 -49t35 -50h-69zM474 581l93 1l-122 -105h-58z" />
    <glyph glyph-name="uni1ED2" unicode="&#xd4;&#x300;" horiz-adv-x="466" 
d="M476 239q-12 -57 -35 -103t-55 -78.5t-71 -49.5t-84 -17q-51 0 -83.5 20.5t-49 55t-18 79.5t8.5 93q10 45 30 89t50.5 79t72 57t94.5 22q50 0 82 -21t48.5 -55.5t18 -79t-8.5 -91.5zM408 239q6 28 6.5 60t-8.5 59t-29 44.5t-55 17.5t-62.5 -16t-48 -42t-34.5 -58t-21 -65
q-6 -29 -6.5 -61t9 -59t30 -44.5t56.5 -17.5q34 0 61.5 17t48 43.5t34 58.5t19.5 63zM356 587q-20 -17 -38 -32.5t-36 -31.5h-70q13 12 32.5 29t37.5 32.5t30 26.5l12 11h78q17 -24 34 -49t35 -50h-69zM546 609h-58l-78 105l93 -1z" />
    <glyph glyph-name="uni1ED3" unicode="&#xf4;&#x300;" horiz-adv-x="390" 
d="M381 174q-7 -33 -23.5 -65t-41 -57t-57 -40.5t-70.5 -15.5q-40 0 -66 15.5t-40 41t-16.5 57.5t4.5 64t23 64t40.5 57.5t57 41t72.5 15.5t66 -15.5t39.5 -41t16 -57.5t-4.5 -64zM319 174q4 19 3.5 40.5t-8 40t-22.5 30.5t-39 12q-23 0 -43 -11t-35.5 -28.5t-26.5 -39.5
t-16 -44t-3.5 -44t10 -39.5t23.5 -28.5t38 -11q22 0 42 11t35.5 28.5t26 39.5t15.5 44zM289 462q-20 -17 -38 -32.5t-36 -31.5h-70q13 12 32.5 29t37.5 32.5t30 26.5l12 11h78q17 -24 34 -49t35 -50h-69zM474 477h-58l-78 105l93 -1z" />
    <glyph glyph-name="uni1ED4" unicode="&#xd4;&#x309;" horiz-adv-x="464" 
d="M476 239q-12 -57 -35 -103t-55 -78.5t-71 -49.5t-84 -17q-51 0 -83.5 20.5t-49 55t-18 79.5t8.5 93q10 45 30 89t50.5 79t72 57t94.5 22q50 0 82 -21t48.5 -55.5t18 -79t-8.5 -91.5zM408 239q6 28 6.5 60t-8.5 59t-29 44.5t-55 17.5t-62.5 -16t-48 -42t-34.5 -58t-21 -65
q-6 -29 -6.5 -61t9 -59t30 -44.5t56.5 -17.5q34 0 61.5 17t48 43.5t34 58.5t19.5 63zM352 587q-20 -17 -38 -32.5t-36 -31.5h-70q13 12 32.5 29t37.5 32.5t30 26.5l12 11h78q17 -24 34 -49t35 -50h-69zM446 696q-1 2 -3 4q-5 5 -7 9l-10 14q8 12 29.5 27.5t54.5 15.5
q26 0 44.5 -16.5t14.5 -47.5q-3 -22 -13.5 -39.5t-24 -30t-27.5 -21t-23 -12.5q-1 0 -5 4l-9 9l-12 14q10 3 22.5 12.5t22.5 21t15 23.5t1 22q-5 9 -14.5 11t-20 -0.5t-20.5 -8t-15 -11.5z" />
    <glyph glyph-name="uni1ED5" unicode="&#xf4;&#x309;" horiz-adv-x="390" 
d="M381 174q-7 -33 -23.5 -65t-41 -57t-57 -40.5t-70.5 -15.5q-40 0 -66 15.5t-40 41t-16.5 57.5t4.5 64t23 64t40.5 57.5t57 41t72.5 15.5t66 -15.5t39.5 -41t16 -57.5t-4.5 -64zM319 174q4 19 3.5 40.5t-8 40t-22.5 30.5t-39 12q-23 0 -43 -11t-35.5 -28.5t-26.5 -39.5
t-16 -44t-3.5 -44t10 -39.5t23.5 -28.5t38 -11q22 0 42 11t35.5 28.5t26 39.5t15.5 44zM292 465q-20 -17 -38 -32.5t-36 -31.5h-70q13 12 32.5 29t37.5 32.5t30 26.5l12 11h78q17 -24 34 -49t35 -50h-69zM373 579q-1 2 -3 4q-5 5 -7 9l-10 14q8 12 29.5 27.5t54.5 15.5
q26 0 44.5 -16.5t14.5 -47.5q-3 -22 -13.5 -39.5t-24 -30t-27.5 -21t-23 -12.5q-1 0 -5 4l-9 9l-12 14q10 3 22.5 12.5t22.5 21t15 23.5t1 22q-5 9 -14.5 11t-20 -0.5t-20.5 -8t-15 -11.5z" />
    <glyph glyph-name="uni1ED6" unicode="&#xd4;&#x303;" horiz-adv-x="468" 
d="M476 239q-12 -57 -35 -103t-55 -78.5t-71 -49.5t-84 -17q-51 0 -83.5 20.5t-49 55t-18 79.5t8.5 93q10 45 30 89t50.5 79t72 57t94.5 22q50 0 82 -21t48.5 -55.5t18 -79t-8.5 -91.5zM408 239q6 28 6.5 60t-8.5 59t-29 44.5t-55 17.5t-62.5 -16t-48 -42t-34.5 -58t-21 -65
q-6 -29 -6.5 -61t9 -59t30 -44.5t56.5 -17.5q34 0 61.5 17t48 43.5t34 58.5t19.5 63zM355 587q-20 -17 -38 -32.5t-36 -31.5h-70q13 12 32.5 29t37.5 32.5t30 26.5l12 11h78q17 -24 34 -49t35 -50h-69zM242 649q5 27 18 48.5t31 33t40 12t46 -14.5q24 -13 39.5 -16.5
t25 -0.5t14.5 11t7 19h54q-3 -19 -13 -39t-26.5 -34t-39 -18t-50.5 9q-29 18 -46.5 21t-26.5 -2t-12.5 -14t-5.5 -15h-55z" />
    <glyph glyph-name="uni1ED7" unicode="&#xf4;&#x303;" horiz-adv-x="386" 
d="M381 174q-7 -33 -23.5 -65t-41 -57t-57 -40.5t-70.5 -15.5q-40 0 -66 15.5t-40 41t-16.5 57.5t4.5 64t23 64t40.5 57.5t57 41t72.5 15.5t66 -15.5t39.5 -41t16 -57.5t-4.5 -64zM319 174q4 19 3.5 40.5t-8 40t-22.5 30.5t-39 12q-23 0 -43 -11t-35.5 -28.5t-26.5 -39.5
t-16 -44t-3.5 -44t10 -39.5t23.5 -28.5t38 -11q22 0 42 11t35.5 28.5t26 39.5t15.5 44zM289 463q-20 -17 -38 -32.5t-36 -31.5h-70q13 12 32.5 29t37.5 32.5t30 26.5l12 11h78q17 -24 34 -49t35 -50h-69zM178 534q5 27 18 48.5t31 33t40 12t46 -14.5q24 -13 39.5 -16.5
t25 -0.5t14.5 11t7 19h54q-3 -19 -13 -39t-26.5 -34t-39 -18t-50.5 9q-29 18 -46.5 21t-26.5 -2t-12.5 -14t-5.5 -15h-55z" />
    <glyph glyph-name="uni1ED8" unicode="&#xd4;&#x323;" horiz-adv-x="472" 
d="M476 239q-12 -57 -35 -103t-55 -78.5t-71 -49.5t-84 -17q-51 0 -83.5 20.5t-49 55t-18 79.5t8.5 93q10 45 30 89t50.5 79t72 57t94.5 22q50 0 82 -21t48.5 -55.5t18 -79t-8.5 -91.5zM408 239q6 28 6.5 60t-8.5 59t-29 44.5t-55 17.5t-62.5 -16t-48 -42t-34.5 -58t-21 -65
q-6 -29 -6.5 -61t9 -59t30 -44.5t56.5 -17.5q34 0 61.5 17t48 43.5t34 58.5t19.5 63zM263 -93q-5 -21 -22.5 -35t-38.5 -14t-32.5 14t-6.5 35t22.5 36t38.5 15t32.5 -15t6.5 -36zM356 588q-20 -17 -38 -32.5t-36 -31.5h-70q13 12 32.5 29t37.5 32.5t30 26.5l12 11h78
q17 -24 34 -49t35 -50h-69z" />
    <glyph glyph-name="uni1ED9" unicode="&#xf4;&#x323;" horiz-adv-x="388" 
d="M381 174q-7 -33 -23.5 -65t-41 -57t-57 -40.5t-70.5 -15.5q-40 0 -66 15.5t-40 41t-16.5 57.5t4.5 64t23 64t40.5 57.5t57 41t72.5 15.5t66 -15.5t39.5 -41t16 -57.5t-4.5 -64zM319 174q4 19 3.5 40.5t-8 40t-22.5 30.5t-39 12q-23 0 -43 -11t-35.5 -28.5t-26.5 -39.5
t-16 -44t-3.5 -44t10 -39.5t23.5 -28.5t38 -11q22 0 42 11t35.5 28.5t26 39.5t15.5 44zM221 -93q-5 -21 -22.5 -35t-38.5 -14t-32.5 14t-6.5 35t22.5 36t38.5 15t32.5 -15t6.5 -36zM289 460q-20 -17 -38 -32.5t-36 -31.5h-70q13 12 32.5 29t37.5 32.5t30 26.5l12 11h78
q17 -24 34 -49t35 -50h-69z" />
    <glyph glyph-name="uni1EDA" unicode="&#x1a0;&#x301;" horiz-adv-x="470" 
d="M408 239q6 28 6.5 60t-8.5 59t-29 44.5t-55 17.5t-62.5 -16t-48 -42t-34.5 -58t-21 -65q-6 -29 -6.5 -61t9 -59t30 -44.5t56.5 -17.5q34 0 61.5 17t48 43.5t34 58.5t19.5 63zM582 500q-5 -14 -14.5 -30t-23 -32.5t-31 -31.5t-36.5 -26q8 -32 8 -65.5t-9 -75.5
q-12 -57 -35 -103t-55 -78.5t-71 -49.5t-84 -17q-51 0 -83.5 20.5t-49 55t-18 79.5t8.5 93q10 45 30 89t50.5 79t72 57t94.5 22q42 0 71.5 -15.5t47.5 -41.5q17 12 33.5 29t27.5 43zM364 633l93 1l-122 -105h-58z" />
    <glyph glyph-name="uni1EDB" unicode="&#x1a1;&#x301;" horiz-adv-x="386" 
d="M481 363q-14 -37 -36.5 -62.5t-57.5 -47.5q7 -35 -3 -79q-7 -33 -23.5 -65t-41 -57t-57 -40.5t-70.5 -15.5q-40 0 -66 15.5t-40 41t-16.5 57.5t4.5 64t23 64t40.5 57.5t57 41t72.5 15.5q16 0 33 -3.5t31 -11t24 -18.5t14 -25q17 12 31 28.5t24 40.5h57zM322 174
q4 19 3.5 40.5t-8 40t-22.5 30.5t-39 12q-23 0 -43 -11t-35.5 -28.5t-26.5 -39.5t-16 -44t-3.5 -44t10 -39.5t23.5 -28.5t38 -11q22 0 42 11t35.5 28.5t26 39.5t15.5 44zM283 497l93 1l-122 -105h-58z" />
    <glyph glyph-name="uni1EDC" unicode="&#x1a0;&#x300;" horiz-adv-x="466" 
d="M408 239q6 28 6.5 60t-8.5 59t-29 44.5t-55 17.5t-62.5 -16t-48 -42t-34.5 -58t-21 -65q-6 -29 -6.5 -61t9 -59t30 -44.5t56.5 -17.5q34 0 61.5 17t48 43.5t34 58.5t19.5 63zM582 500q-5 -14 -14.5 -30t-23 -32.5t-31 -31.5t-36.5 -26q8 -32 8 -65.5t-9 -75.5
q-12 -57 -35 -103t-55 -78.5t-71 -49.5t-84 -17q-51 0 -83.5 20.5t-49 55t-18 79.5t8.5 93q10 45 30 89t50.5 79t72 57t94.5 22q42 0 71.5 -15.5t47.5 -41.5q17 12 33.5 29t27.5 43zM403 524h-58l-78 105l93 -1z" />
    <glyph glyph-name="uni1EDD" unicode="&#x1a1;&#x300;" horiz-adv-x="390" 
d="M481 363q-14 -37 -36.5 -62.5t-57.5 -47.5q7 -35 -3 -79q-7 -33 -23.5 -65t-41 -57t-57 -40.5t-70.5 -15.5q-40 0 -66 15.5t-40 41t-16.5 57.5t4.5 64t23 64t40.5 57.5t57 41t72.5 15.5q16 0 33 -3.5t31 -11t24 -18.5t14 -25q17 12 31 28.5t24 40.5h57zM322 174
q4 19 3.5 40.5t-8 40t-22.5 30.5t-39 12q-23 0 -43 -11t-35.5 -28.5t-26.5 -39.5t-16 -44t-3.5 -44t10 -39.5t23.5 -28.5t38 -11q22 0 42 11t35.5 28.5t26 39.5t15.5 44zM344 399h-58l-78 105l93 -1z" />
    <glyph glyph-name="uni1EDE" unicode="&#x1a0;&#x309;" horiz-adv-x="468" 
d="M408 239q6 28 6.5 60t-8.5 59t-29 44.5t-55 17.5t-62.5 -16t-48 -42t-34.5 -58t-21 -65q-6 -29 -6.5 -61t9 -59t30 -44.5t56.5 -17.5q34 0 61.5 17t48 43.5t34 58.5t19.5 63zM582 500q-5 -14 -14.5 -30t-23 -32.5t-31 -31.5t-36.5 -26q8 -32 8 -65.5t-9 -75.5
q-12 -57 -35 -103t-55 -78.5t-71 -49.5t-84 -17q-51 0 -83.5 20.5t-49 55t-18 79.5t8.5 93q10 45 30 89t50.5 79t72 57t94.5 22q42 0 71.5 -15.5t47.5 -41.5q17 12 33.5 29t27.5 43zM317 614q-1 2 -3 4q-5 5 -7 9l-10 14q8 12 29.5 27.5t54.5 15.5q26 0 44.5 -16.5
t14.5 -47.5q-3 -22 -13.5 -39.5t-24 -30t-27.5 -21t-23 -12.5q-1 0 -5 4l-9 9l-12 14q10 3 22.5 12.5t22.5 21t15 23.5t1 22q-5 9 -14.5 11t-20 -0.5t-20.5 -8t-15 -11.5z" />
    <glyph glyph-name="uni1EDF" unicode="&#x1a1;&#x309;" horiz-adv-x="386" 
d="M481 363q-14 -37 -36.5 -62.5t-57.5 -47.5q7 -35 -3 -79q-7 -33 -23.5 -65t-41 -57t-57 -40.5t-70.5 -15.5q-40 0 -66 15.5t-40 41t-16.5 57.5t4.5 64t23 64t40.5 57.5t57 41t72.5 15.5q16 0 33 -3.5t31 -11t24 -18.5t14 -25q17 12 31 28.5t24 40.5h57zM322 174
q4 19 3.5 40.5t-8 40t-22.5 30.5t-39 12q-23 0 -43 -11t-35.5 -28.5t-26.5 -39.5t-16 -44t-3.5 -44t10 -39.5t23.5 -28.5t38 -11q22 0 42 11t35.5 28.5t26 39.5t15.5 44zM250 492q-1 2 -3 4q-5 5 -7 9l-10 14q8 12 29.5 27.5t54.5 15.5q26 0 44.5 -16.5t14.5 -47.5
q-3 -22 -13.5 -39.5t-24 -30t-27.5 -21t-23 -12.5q-1 0 -5 4l-9 9l-12 14q10 3 22.5 12.5t22.5 21t15 23.5t1 22q-5 9 -14.5 11t-20 -0.5t-20.5 -8t-15 -11.5z" />
    <glyph glyph-name="uni1EE0" unicode="&#x1a0;&#x303;" horiz-adv-x="464" 
d="M408 239q6 28 6.5 60t-8.5 59t-29 44.5t-55 17.5t-62.5 -16t-48 -42t-34.5 -58t-21 -65q-6 -29 -6.5 -61t9 -59t30 -44.5t56.5 -17.5q34 0 61.5 17t48 43.5t34 58.5t19.5 63zM582 500q-5 -14 -14.5 -30t-23 -32.5t-31 -31.5t-36.5 -26q8 -32 8 -65.5t-9 -75.5
q-12 -57 -35 -103t-55 -78.5t-71 -49.5t-84 -17q-51 0 -83.5 20.5t-49 55t-18 79.5t8.5 93q10 45 30 89t50.5 79t72 57t94.5 22q42 0 71.5 -15.5t47.5 -41.5q17 12 33.5 29t27.5 43zM219 533q5 27 18 48.5t31 33t40 12t46 -14.5q24 -13 39.5 -16.5t25 -0.5t14.5 11t7 19h54
q-3 -19 -13 -39t-26.5 -34t-39 -18t-50.5 9q-29 18 -46.5 21t-26.5 -2t-12.5 -14t-5.5 -15h-55z" />
    <glyph glyph-name="uni1EE1" unicode="&#x1a1;&#x303;" horiz-adv-x="388" 
d="M481 363q-14 -37 -36.5 -62.5t-57.5 -47.5q7 -35 -3 -79q-7 -33 -23.5 -65t-41 -57t-57 -40.5t-70.5 -15.5q-40 0 -66 15.5t-40 41t-16.5 57.5t4.5 64t23 64t40.5 57.5t57 41t72.5 15.5q16 0 33 -3.5t31 -11t24 -18.5t14 -25q17 12 31 28.5t24 40.5h57zM322 174
q4 19 3.5 40.5t-8 40t-22.5 30.5t-39 12q-23 0 -43 -11t-35.5 -28.5t-26.5 -39.5t-16 -44t-3.5 -44t10 -39.5t23.5 -28.5t38 -11q22 0 42 11t35.5 28.5t26 39.5t15.5 44zM151 397q5 27 18 48.5t31 33t40 12t46 -14.5q24 -13 39.5 -16.5t25 -0.5t14.5 11t7 19h54
q-3 -19 -13 -39t-26.5 -34t-39 -18t-50.5 9q-29 18 -46.5 21t-26.5 -2t-12.5 -14t-5.5 -15h-55z" />
    <glyph glyph-name="uni1EE2" unicode="&#x1a0;&#x323;" horiz-adv-x="468" 
d="M408 239q6 28 6.5 60t-8.5 59t-29 44.5t-55 17.5t-62.5 -16t-48 -42t-34.5 -58t-21 -65q-6 -29 -6.5 -61t9 -59t30 -44.5t56.5 -17.5q34 0 61.5 17t48 43.5t34 58.5t19.5 63zM582 500q-5 -14 -14.5 -30t-23 -32.5t-31 -31.5t-36.5 -26q8 -32 8 -65.5t-9 -75.5
q-12 -57 -35 -103t-55 -78.5t-71 -49.5t-84 -17q-51 0 -83.5 20.5t-49 55t-18 79.5t8.5 93q10 45 30 89t50.5 79t72 57t94.5 22q42 0 71.5 -15.5t47.5 -41.5q17 12 33.5 29t27.5 43zM263 -93q-5 -21 -22.5 -35t-38.5 -14t-32.5 14t-6.5 35t22.5 36t38.5 15t32.5 -15t6.5 -36
z" />
    <glyph glyph-name="uni1EE3" unicode="&#x1a1;&#x323;" horiz-adv-x="426" 
d="M481 363q-14 -37 -36.5 -62.5t-57.5 -47.5q7 -35 -3 -79q-7 -33 -23.5 -65t-41 -57t-57 -40.5t-70.5 -15.5q-40 0 -66 15.5t-40 41t-16.5 57.5t4.5 64t23 64t40.5 57.5t57 41t72.5 15.5q16 0 33 -3.5t31 -11t24 -18.5t14 -25q17 12 31 28.5t24 40.5h57zM322 174
q4 19 3.5 40.5t-8 40t-22.5 30.5t-39 12q-23 0 -43 -11t-35.5 -28.5t-26.5 -39.5t-16 -44t-3.5 -44t10 -39.5t23.5 -28.5t38 -11q22 0 42 11t35.5 28.5t26 39.5t15.5 44zM222 -93q-5 -21 -22.5 -35t-38.5 -14t-32.5 14t-6.5 35t22.5 36t38.5 15t32.5 -15t6.5 -36z" />
    <glyph glyph-name="uni1EE4" unicode="U&#x323;" horiz-adv-x="498" 
d="M462 158q-9 -40 -29.5 -71t-49 -52t-63.5 -32t-73 -11q-40 0 -71.5 10t-52 30.5t-27.5 52t2 73.5l68 319h66l-69 -326q-11 -51 17.5 -74.5t79.5 -23.5t87.5 23.5t47.5 74.5l69 326h66l-68 -319v0zM279 -93q-5 -21 -22.5 -35t-38.5 -14t-32.5 14t-6.5 35t22.5 36t38.5 15
t32.5 -15t6.5 -36z" />
    <glyph glyph-name="uni1EE5" unicode="u&#x323;" horiz-adv-x="407" 
d="M300 -14q-5 13 -7 21.5t-2 19.5q-23 -20 -51 -27.5t-51 -7.5q-39 0 -61.5 14t-33 34.5t-12 43t2.5 39.5l48 226h61l-49 -227q-7 -34 10 -55t52 -21q19 0 36.5 8.5t31.5 22.5t23.5 31.5t13.5 35.5l44 205h61l-57 -267q-7 -30 -5 -44.5t6 -31.5zM232 -93q-5 -21 -22.5 -35
t-38.5 -14t-32.5 14t-6.5 35t22.5 36t38.5 15t32.5 -15t6.5 -36z" />
    <glyph glyph-name="uni1EE6" unicode="U&#x309;" horiz-adv-x="498" 
d="M462 158q-9 -40 -29.5 -71t-49 -52t-63.5 -32t-73 -11q-40 0 -71.5 10t-52 30.5t-27.5 52t2 73.5l68 319h66l-69 -326q-11 -51 17.5 -74.5t79.5 -23.5t87.5 23.5t47.5 74.5l69 326h66l-68 -319v0zM324 611q-1 2 -3 4q-5 5 -7 9l-10 14q8 12 29.5 27.5t54.5 15.5
q26 0 44.5 -16.5t14.5 -47.5q-3 -22 -13.5 -39.5t-24 -30t-27.5 -21t-23 -12.5q-1 0 -5 4l-9 9l-12 14q10 3 22.5 12.5t22.5 21t15 23.5t1 22q-5 9 -14.5 11t-20 -0.5t-20.5 -8t-15 -11.5z" />
    <glyph glyph-name="uni1EE7" unicode="u&#x309;" horiz-adv-x="407" 
d="M300 -14q-5 13 -7 21.5t-2 19.5q-23 -20 -51 -27.5t-51 -7.5q-39 0 -61.5 14t-33 34.5t-12 43t2.5 39.5l48 226h61l-49 -227q-7 -34 10 -55t52 -21q19 0 36.5 8.5t31.5 22.5t23.5 31.5t13.5 35.5l44 205h61l-57 -267q-7 -30 -5 -44.5t6 -31.5zM249 476q-1 2 -3 4
q-5 5 -7 9l-10 14q8 12 29.5 27.5t54.5 15.5q26 0 44.5 -16.5t14.5 -47.5q-3 -22 -13.5 -39.5t-24 -30t-27.5 -21t-23 -12.5q-1 0 -5 4l-9 9l-12 14q10 3 22.5 12.5t22.5 21t15 23.5t1 22q-5 9 -14.5 11t-20 -0.5t-20.5 -8t-15 -11.5z" />
    <glyph glyph-name="uni1EE8" unicode="&#x1af;&#x301;" horiz-adv-x="513" 
d="M516 414q26 10 44.5 34.5t25.5 57.5h56q-3 -12 -12 -33.5t-25.5 -45t-41.5 -44t-59 -29.5l-42 -196q-9 -40 -29.5 -71t-49 -52t-63.5 -32t-73 -11q-40 0 -71.5 10t-52 30.5t-27.5 52t2 73.5l68 319h66l-68 -319q-5 -26 0 -44.5t18 -30.5t33.5 -17.5t45.5 -5.5
q51 0 87.5 23.5t47.5 74.5l68 319h66zM389 624l93 1l-122 -105h-58z" />
    <glyph glyph-name="uni1EE9" unicode="&#x1b0;&#x301;" horiz-adv-x="420" 
d="M403 285q23 7 41.5 33.5t25.5 58.5h57q-3 -12 -11.5 -33.5t-24.5 -44t-41 -43t-59 -30.5l-31 -144q-7 -30 -6 -44.5t5 -31.5l-59 -20q-5 13 -7 21.5t-2 19.5q-23 -20 -51 -27.5t-51 -7.5q-39 0 -61.5 14t-33 34.5t-12 43t2.5 39.5l48 226h61l-49 -227q-7 -34 10 -55
t52 -21q19 0 36.5 8.5t31.5 22.5t23.5 31.5t13.5 35.5l44 205h61zM322 497l93 1l-122 -105h-58z" />
    <glyph glyph-name="uni1EEA" unicode="&#x1af;&#x300;" horiz-adv-x="500" 
d="M516 414q26 10 44.5 34.5t25.5 57.5h56q-3 -12 -12 -33.5t-25.5 -45t-41.5 -44t-59 -29.5l-42 -196q-9 -40 -29.5 -71t-49 -52t-63.5 -32t-73 -11q-40 0 -71.5 10t-52 30.5t-27.5 52t2 73.5l68 319h66l-68 -319q-5 -26 0 -44.5t18 -30.5t33.5 -17.5t45.5 -5.5
q51 0 87.5 23.5t47.5 74.5l68 319h66zM414 529h-58l-78 105l93 -1z" />
    <glyph glyph-name="uni1EEB" unicode="&#x1b0;&#x300;" horiz-adv-x="422" 
d="M403 285q23 7 41.5 33.5t25.5 58.5h57q-3 -12 -11.5 -33.5t-24.5 -44t-41 -43t-59 -30.5l-31 -144q-7 -30 -6 -44.5t5 -31.5l-59 -20q-5 13 -7 21.5t-2 19.5q-23 -20 -51 -27.5t-51 -7.5q-39 0 -61.5 14t-33 34.5t-12 43t2.5 39.5l48 226h61l-49 -227q-7 -34 10 -55
t52 -21q19 0 36.5 8.5t31.5 22.5t23.5 31.5t13.5 35.5l44 205h61zM355 399h-58l-78 105l93 -1z" />
    <glyph glyph-name="uni1EEC" unicode="&#x1af;&#x309;" horiz-adv-x="495" 
d="M516 414q26 10 44.5 34.5t25.5 57.5h56q-3 -12 -12 -33.5t-25.5 -45t-41.5 -44t-59 -29.5l-42 -196q-9 -40 -29.5 -71t-49 -52t-63.5 -32t-73 -11q-40 0 -71.5 10t-52 30.5t-27.5 52t2 73.5l68 319h66l-68 -319q-5 -26 0 -44.5t18 -30.5t33.5 -17.5t45.5 -5.5
q51 0 87.5 23.5t47.5 74.5l68 319h66zM318 604q-1 2 -3 4q-5 5 -7 9l-10 14q8 12 29.5 27.5t54.5 15.5q26 0 44.5 -16.5t14.5 -47.5q-3 -22 -13.5 -39.5t-24 -30t-27.5 -21t-23 -12.5q-1 0 -5 4l-9 9l-12 14q10 3 22.5 12.5t22.5 21t15 23.5t1 22q-5 9 -14.5 11t-20 -0.5
t-20.5 -8t-15 -11.5z" />
    <glyph glyph-name="uni1EED" unicode="&#x1b0;&#x309;" horiz-adv-x="424" 
d="M403 285q23 7 41.5 33.5t25.5 58.5h57q-3 -12 -11.5 -33.5t-24.5 -44t-41 -43t-59 -30.5l-31 -144q-7 -30 -6 -44.5t5 -31.5l-59 -20q-5 13 -7 21.5t-2 19.5q-23 -20 -51 -27.5t-51 -7.5q-39 0 -61.5 14t-33 34.5t-12 43t2.5 39.5l48 226h61l-49 -227q-7 -34 10 -55
t52 -21q19 0 36.5 8.5t31.5 22.5t23.5 31.5t13.5 35.5l44 205h61zM254 489q-1 2 -3 4q-5 5 -7 9l-10 14q8 12 29.5 27.5t54.5 15.5q26 0 44.5 -16.5t14.5 -47.5q-3 -22 -13.5 -39.5t-24 -30t-27.5 -21t-23 -12.5q-1 0 -5 4l-9 9l-12 14q10 3 22.5 12.5t22.5 21t15 23.5t1 22
q-5 9 -14.5 11t-20 -0.5t-20.5 -8t-15 -11.5z" />
    <glyph glyph-name="uni1EEE" unicode="&#x1af;&#x303;" horiz-adv-x="498" 
d="M516 414q26 10 44.5 34.5t25.5 57.5h56q-3 -12 -12 -33.5t-25.5 -45t-41.5 -44t-59 -29.5l-42 -196q-9 -40 -29.5 -71t-49 -52t-63.5 -32t-73 -11q-40 0 -71.5 10t-52 30.5t-27.5 52t2 73.5l68 319h66l-68 -319q-5 -26 0 -44.5t18 -30.5t33.5 -17.5t45.5 -5.5
q51 0 87.5 23.5t47.5 74.5l68 319h66zM231 533q5 27 18 48.5t31 33t40 12t46 -14.5q24 -13 39.5 -16.5t25 -0.5t14.5 11t7 19h54q-3 -19 -13 -39t-26.5 -34t-39 -18t-50.5 9q-29 18 -46.5 21t-26.5 -2t-12.5 -14t-5.5 -15h-55z" />
    <glyph glyph-name="uni1EEF" unicode="&#x1b0;&#x303;" horiz-adv-x="424" 
d="M403 285q23 7 41.5 33.5t25.5 58.5h57q-3 -12 -11.5 -33.5t-24.5 -44t-41 -43t-59 -30.5l-31 -144q-7 -30 -6 -44.5t5 -31.5l-59 -20q-5 13 -7 21.5t-2 19.5q-23 -20 -51 -27.5t-51 -7.5q-39 0 -61.5 14t-33 34.5t-12 43t2.5 39.5l48 226h61l-49 -227q-7 -34 10 -55
t52 -21q19 0 36.5 8.5t31.5 22.5t23.5 31.5t13.5 35.5l44 205h61zM159 397q5 27 18 48.5t31 33t40 12t46 -14.5q24 -13 39.5 -16.5t25 -0.5t14.5 11t7 19h54q-3 -19 -13 -39t-26.5 -34t-39 -18t-50.5 9q-29 18 -46.5 21t-26.5 -2t-12.5 -14t-5.5 -15h-55z" />
    <glyph glyph-name="uni1EF0" unicode="&#x1af;&#x323;" horiz-adv-x="498" 
d="M516 414q26 10 44.5 34.5t25.5 57.5h56q-3 -12 -12 -33.5t-25.5 -45t-41.5 -44t-59 -29.5l-42 -196q-9 -40 -29.5 -71t-49 -52t-63.5 -32t-73 -11q-40 0 -71.5 10t-52 30.5t-27.5 52t2 73.5l68 319h66l-68 -319q-5 -26 0 -44.5t18 -30.5t33.5 -17.5t45.5 -5.5
q51 0 87.5 23.5t47.5 74.5l68 319h66zM281 -93q-5 -21 -22.5 -35t-38.5 -14t-32.5 14t-6.5 35t22.5 36t38.5 15t32.5 -15t6.5 -36z" />
    <glyph glyph-name="uni1EF1" unicode="&#x1b0;&#x323;" horiz-adv-x="418" 
d="M403 285q23 7 41.5 33.5t25.5 58.5h57q-3 -12 -11.5 -33.5t-24.5 -44t-41 -43t-59 -30.5l-31 -144q-7 -30 -6 -44.5t5 -31.5l-59 -20q-5 13 -7 21.5t-2 19.5q-23 -20 -51 -27.5t-51 -7.5q-39 0 -61.5 14t-33 34.5t-12 43t2.5 39.5l48 226h61l-49 -227q-7 -34 10 -55
t52 -21q19 0 36.5 8.5t31.5 22.5t23.5 31.5t13.5 35.5l44 205h61zM230 -93q-5 -21 -22.5 -35t-38.5 -14t-32.5 14t-6.5 35t22.5 36t38.5 15t32.5 -15t6.5 -36z" />
    <glyph glyph-name="Ygrave" unicode="Y&#x300;" horiz-adv-x="401" 
d="M484 474l-9 -11t-23.5 -28.5t-33 -40t-37.5 -45.5q-46 -55 -103 -125l-47 -224h-65l47 224l-50 125q-9 24 -18 46.5l-16 40t-11 28.5l-4 11l65 12l77 -213l169 212l59 -12v0zM352 529h-58l-78 105l93 -1z" />
    <glyph glyph-name="ygrave" unicode="y&#x300;" horiz-adv-x="373" 
d="M181 -58q-14 -21 -28 -34.5t-31 -23.5q-20 -11 -39.5 -18t-47.5 -17l-8 52q31 11 50 19t32.5 19.5t25 30t28.5 50.5q-2 7 -10 43q-4 15 -9.5 38.5t-13 56.5t-17.5 77.5t-23 102.5l65 25q17 -85 28.5 -137t17.5 -81q7 -34 11 -50q9 17 30 51q18 29 50 81t83 136l50 -26z
M313 393h-58l-78 105l93 -1z" />
    <glyph glyph-name="uni1EF4" unicode="Y&#x323;" horiz-adv-x="401" 
d="M484 474l-9 -11t-23.5 -28.5t-33 -40t-37.5 -45.5q-46 -55 -103 -125l-47 -224h-65l47 224l-50 125q-9 24 -18 46.5l-16 40t-11 28.5l-4 11l65 12l77 -213l169 212l59 -12v0zM231 -93q-5 -21 -22.5 -35t-38.5 -14t-32.5 14t-6.5 35t22.5 36t38.5 15t32.5 -15t6.5 -36z
" />
    <glyph glyph-name="uni1EF5" unicode="y&#x323;" horiz-adv-x="371" 
d="M181 -58q-14 -21 -28 -34.5t-31 -23.5q-20 -11 -39.5 -18t-47.5 -17l-8 52q31 11 50 19t32.5 19.5t25 30t28.5 50.5q-2 7 -10 43q-4 15 -9.5 38.5t-13 56.5t-17.5 77.5t-23 102.5l65 25q17 -85 28.5 -137t17.5 -81q7 -34 11 -50q9 17 30 51q18 29 50 81t83 136l50 -26z
M293 -106q-5 -21 -22.5 -35t-38.5 -14t-32.5 14t-6.5 35t22.5 36t38.5 15t32.5 -15t6.5 -36z" />
    <glyph glyph-name="uni1EF6" unicode="Y&#x309;" horiz-adv-x="401" 
d="M484 474l-9 -11t-23.5 -28.5t-33 -40t-37.5 -45.5q-46 -55 -103 -125l-47 -224h-65l47 224l-50 125q-9 24 -18 46.5l-16 40t-11 28.5l-4 11l65 12l77 -213l169 212l59 -12v0zM270 604q-1 2 -3 4q-5 5 -7 9l-10 14q8 12 29.5 27.5t54.5 15.5q26 0 44.5 -16.5t14.5 -47.5
q-3 -22 -13.5 -39.5t-24 -30t-27.5 -21t-23 -12.5q-1 0 -5 4l-9 9l-12 14q10 3 22.5 12.5t22.5 21t15 23.5t1 22q-5 9 -14.5 11t-20 -0.5t-20.5 -8t-15 -11.5z" />
    <glyph glyph-name="uni1EF7" unicode="y&#x309;" horiz-adv-x="373" 
d="M181 -58q-14 -21 -28 -34.5t-31 -23.5q-20 -11 -39.5 -18t-47.5 -17l-8 52q31 11 50 19t32.5 19.5t25 30t28.5 50.5q-2 7 -10 43q-4 15 -9.5 38.5t-13 56.5t-17.5 77.5t-23 102.5l65 25q17 -85 28.5 -137t17.5 -81q7 -34 11 -50q9 17 30 51q18 29 50 81t83 136l50 -26z
M243 496q-1 2 -3 4q-5 5 -7 9l-10 14q8 12 29.5 27.5t54.5 15.5q26 0 44.5 -16.5t14.5 -47.5q-3 -22 -13.5 -39.5t-24 -30t-27.5 -21t-23 -12.5q-1 0 -5 4l-9 9l-12 14q10 3 22.5 12.5t22.5 21t15 23.5t1 22q-5 9 -14.5 11t-20 -0.5t-20.5 -8t-15 -11.5z" />
    <glyph glyph-name="uni1EF8" unicode="Y&#x303;" horiz-adv-x="400" 
d="M484 474l-9 -11t-23.5 -28.5t-33 -40t-37.5 -45.5q-46 -55 -103 -125l-47 -224h-65l47 224l-50 125q-9 24 -18 46.5l-16 40t-11 28.5l-4 11l65 12l77 -213l169 212l59 -12v0zM180 533q5 27 18 48.5t31 33t40 12t46 -14.5q24 -13 39.5 -16.5t25 -0.5t14.5 11t7 19h54
q-3 -19 -13 -39t-26.5 -34t-39 -18t-50.5 9q-29 18 -46.5 21t-26.5 -2t-12.5 -14t-5.5 -15h-55z" />
    <glyph glyph-name="uni1EF9" unicode="y&#x303;" horiz-adv-x="372" 
d="M181 -58q-14 -21 -28 -34.5t-31 -23.5q-20 -11 -39.5 -18t-47.5 -17l-8 52q31 11 50 19t32.5 19.5t25 30t28.5 50.5q-2 7 -10 43q-4 15 -9.5 38.5t-13 56.5t-17.5 77.5t-23 102.5l65 25q17 -85 28.5 -137t17.5 -81q7 -34 11 -50q9 17 30 51q18 29 50 81t83 136l50 -26z
M147 397q5 27 18 48.5t31 33t40 12t46 -14.5q24 -13 39.5 -16.5t25 -0.5t14.5 11t7 19h54q-3 -19 -13 -39t-26.5 -34t-39 -18t-50.5 9q-29 18 -46.5 21t-26.5 -2t-12.5 -14t-5.5 -15h-55z" />
    <glyph glyph-name="Itilde" unicode="I&#x303;" horiz-adv-x="183" 
d="M59 0l101 477h66l-101 -477h-66zM75 525q6 27 18.5 48.5t30.5 33t40 12t46 -14.5q24 -13 39.5 -16.5t25.5 -0.5t15 11t7 19h54q-3 -19 -13.5 -39t-27 -34t-39 -18t-50.5 9q-29 18 -46 21t-26 -2t-13 -14t-6 -15h-55z" />
    <glyph glyph-name="itilde" unicode="i&#x303;" horiz-adv-x="181" 
d="M62 0l74 349h60l-74 -349h-60zM49 396q6 27 18.5 48.5t30.5 33t40 12t46 -14.5q24 -13 39.5 -16.5t25.5 -0.5t15 11t7 19h54q-3 -19 -13.5 -39t-27 -34t-39 -18t-50.5 9q-29 18 -46 21t-26 -2t-13 -14t-6 -15h-55z" />
    <glyph glyph-name="Utilde" unicode="U&#x303;" horiz-adv-x="498" 
d="M462 158q-9 -40 -29.5 -71t-49 -52t-63.5 -32t-73 -11q-40 0 -71.5 10t-52 30.5t-27.5 52t2 73.5l68 319h66l-69 -326q-11 -51 17.5 -74.5t79.5 -23.5t87.5 23.5t47.5 74.5l69 326h66l-68 -319v0zM228 525q6 27 18.5 48.5t30.5 33t40 12t46 -14.5q24 -13 39.5 -16.5
t25.5 -0.5t15 11t7 19h54q-3 -19 -13.5 -39t-27 -34t-39 -18t-50.5 9q-29 18 -46 21t-26 -2t-13 -14t-6 -15h-55z" />
    <glyph glyph-name="utilde" unicode="u&#x303;" horiz-adv-x="403" 
d="M300 -14q-5 13 -7 21.5t-2 19.5q-23 -20 -51 -27.5t-51 -7.5q-39 0 -61.5 14t-33 34.5t-12 43t2.5 39.5l48 226h61l-49 -227q-7 -34 10 -55t52 -21q19 0 36.5 8.5t31.5 22.5t23.5 31.5t13.5 35.5l44 205h61l-57 -267q-7 -30 -5 -44.5t6 -31.5zM154 399q6 27 18.5 48.5
t30.5 33t40 12t46 -14.5q24 -13 39.5 -16.5t25.5 -0.5t15 11t7 19h54q-3 -19 -13.5 -39t-27 -34t-39 -18t-50.5 9q-29 18 -46 21t-26 -2t-13 -14t-6 -15h-55z" />
    <glyph glyph-name="Agrave" unicode="A&#x300;" horiz-adv-x="445" 
d="M438 0l-70 -12l-24 136h-193l-80 -136l-65 12l278 455q4 6 14 17.5t22 17.5q6 3 13 2t14 -4t12 -7t7 -7q7 -9 0 -18t-10 -13zM301 377l-113 -191h145zM396 521h-58l-78 105l93 -1z" />
    <glyph glyph-name=".notdef" horiz-adv-x="500" 
d="M409 35l133 625h-305l-133 -625h305zM436 0h-373l147 695h373z" />
    <glyph glyph-name=".null" 
 />
    <glyph glyph-name="nonmarkingreturn" horiz-adv-x="221" 
 />
    <glyph glyph-name="space" unicode=" " horiz-adv-x="224" 
 />
    <glyph glyph-name="numbersign" unicode="#" horiz-adv-x="403" 
d="M436 300h-65l-39 -107h68l-20 -49h-67l-56 -149l-48 1l54 148h-92l-56 -149l-48 1l54 148h-70l18 49h71l39 107h-72l18 49h73l48 129l50 -1l-48 -128h92l47 127l50 1l-47 -128h66zM229 300l-39 -107h92l39 107h-92z" />
    <glyph glyph-name="dollar" unicode="$" horiz-adv-x="387" 
d="M389 118q-7 -31 -23.5 -55.5t-40 -42.5t-51.5 -28.5t-57 -12.5l-10 -47h-46l10 47q-42 4 -78 25t-59 61l68 51q9 -22 28 -42.5t56 -25.5l32 151q-25 11 -40.5 18.5t-19.5 9.5q-16 9 -28.5 26t-18 39.5t-0.5 49t24 53.5q24 34 60 53.5t81 23.5l8 40h46l-8 -41
q29 -4 56 -16.5t51 -36.5l-50 -61q-14 19 -32.5 29t-39.5 15l-30 -140q22 -12 45 -22.5t40.5 -25.5t25.5 -37t1 -58zM261 404q-26 -3 -49.5 -21t-30.5 -40q-4 -16 -0.5 -26t11.5 -16.5t19.5 -11t23.5 -10.5zM318 114q2 11 -2.5 21t-13 18t-19.5 15t-23 12l-28 -130
q26 5 52.5 20t33.5 44z" />
    <glyph glyph-name="percent" unicode="%" horiz-adv-x="567" 
d="M309 347q-5 -24 -16 -47t-27.5 -41.5t-37.5 -29.5t-45 -11q-25 0 -41 11.5t-24.5 30t-10 41.5t3.5 46q4 21 15 44t27.5 42t37.5 31t47 12q25 0 41 -11.5t24 -30t9.5 -41.5t-3.5 -46zM258 347q2 10 2.5 23t-2.5 24.5t-10.5 19.5t-21.5 8q-17 0 -28.5 -10t-19 -22.5
t-11.5 -25t-5 -17.5q-2 -10 -2.5 -23t2.5 -24.5t10.5 -19.5t21.5 -8q13 0 24 7.5t19 18.5t13.5 24.5t7.5 24.5zM120 -22l371 528h60l-371 -528h-60zM555 128q-5 -24 -16.5 -47t-28 -41.5t-37.5 -29.5t-45 -11q-25 0 -41 11.5t-24 30t-9.5 41.5t3.5 46q4 21 15 44t27 42
t37 31t47 12q25 0 41 -11.5t24.5 -30t10 -41.5t-3.5 -46zM504 128q2 10 2.5 23t-2.5 24.5t-10.5 19.5t-21.5 8q-17 0 -28.5 -10t-19 -22.5t-11.5 -25t-5 -17.5q-2 -10 -3 -23t2 -24.5t11 -19.5t22 -8q13 0 24 7.5t19 18.5t13 24.5t8 24.5z" />
    <glyph glyph-name="ampersand" unicode="&#x26;" horiz-adv-x="469" 
d="M358 1l-29 48q-64 -58 -133 -58q-33 0 -60.5 10.5t-46 30t-25.5 46.5t0 61q6 26 18.5 47t29.5 38t36.5 31t38.5 26q-12 22 -21 48.5t-2 58.5q10 45 45.5 71t79.5 26q45 0 69.5 -25t14.5 -70q-4 -20 -13.5 -37.5t-22 -32t-26.5 -26.5t-28 -22l69 -107q11 15 21 38.5
t17 54.5h65q-11 -46 -28 -78.5t-42 -68.5l68 -110h-95zM307 394q3 14 -4.5 23t-21.5 9q-12 0 -25 -7t-17 -25q-3 -14 1 -30t14 -35q19 15 34 30t19 35zM219 228q-25 -17 -40 -30.5t-24 -23.5t-12 -16.5t-4 -9.5q-8 -38 12 -62t57 -24q23 0 43.5 9.5t45.5 31.5z" />
    <glyph glyph-name="quotesingle" unicode="'" horiz-adv-x="183" 
d="M180 307h-44l8 86l16 76h63l-16 -76z" />
    <glyph glyph-name="parenleft" unicode="(" horiz-adv-x="244" 
d="M131 -74q-35 69 -44.5 137.5t4.5 137.5q15 68 51.5 133.5t106.5 145.5h48q-118 -140 -148 -281q-15 -72 -7.5 -139.5t39.5 -133.5h-50z" />
    <glyph glyph-name="parenright" unicode=")" horiz-adv-x="245" 
d="M242 201q-29 -137 -156 -275h-50q118 130 148 273q30 141 -28 281h48q35 -80 44 -145.5t-6 -133.5z" />
    <glyph glyph-name="asterisk" unicode="*" horiz-adv-x="367" 
d="M388 356q1 -8 -3 -16t-10.5 -14.5t-14.5 -10t-17 -2.5l-54 15l29 -46q5 -8 4 -16t-6.5 -15.5t-13 -13.5t-16.5 -9q-12 -4 -24.5 1.5t-13.5 18.5v58q-12 -18 -23 -38.5t-15 -25.5q-9 -13 -23.5 -15.5t-25.5 4.5q-11 6 -11.5 20.5t7.5 25.5q2 2 8 7.5t14.5 12.5t17.5 14.5
t16 15.5l-60 -14q-14 -5 -24 3.5t-11 21.5q-1 9 3 17.5t10.5 15t15 10t17.5 2.5q8 -2 18 -4t18 -4l20 -6l-31 46q-5 7 -3.5 15.5t6.5 16t12.5 14t16.5 8.5q14 4 25 -2.5t13 -17.5l4 -62q6 9 11 19.5t9.5 20.5t8 17.5t5.5 9.5q8 10 23 14.5t26 -3.5q11 -6 12 -20t-7 -26
q-2 -2 -8 -7.5t-13.5 -12.5t-16 -15t-15.5 -15l56 15q14 4 25 -5t9 -23z" />
    <glyph glyph-name="plus" unicode="+" horiz-adv-x="400" 
d="M195 140h-120l15 68h120l25 120h68l-25 -120h120l-15 -68h-120l-25 -120h-68z" />
    <glyph glyph-name="comma" unicode="," horiz-adv-x="244" 
d="M181 42q-9 -45 -39.5 -80.5t-75.5 -67.5l-33 25q8 4 20 13.5t24 20.5t22.5 22.5t14.5 19.5q-22 0 -33.5 15.5t-7.5 36.5q5 21 24 37t41 16q23 0 36 -16t7 -42z" />
    <glyph glyph-name="hyphen" unicode="-" horiz-adv-x="400" 
d="M75 140l15 68h308l-15 -68h-308z" />
    <glyph glyph-name="period" unicode="." horiz-adv-x="206" 
d="M162 48q-5 -21 -21.5 -34.5t-37.5 -13.5t-32.5 13.5t-6.5 34.5t21.5 35.5t37.5 14.5t32.5 -14.5t6.5 -35.5z" />
    <glyph glyph-name="slash" unicode="/" horiz-adv-x="195" 
d="M-26 -63l284 577h60l-285 -577h-59z" />
    <glyph glyph-name="zero" unicode="0" horiz-adv-x="468" 
d="M435 140q-7 -33 -26 -60t-46.5 -46.5t-61.5 -30t-70 -10.5q-78 0 -116.5 40.5t-24.5 106.5q7 31 25 58t44.5 47.5t61 32t73.5 11.5q36 0 65 -11t48.5 -30.5t27 -47t0.5 -60.5zM378 140q10 45 -17.5 70t-78.5 25q-24 0 -46.5 -6.5t-41 -19t-31.5 -30t-18 -39.5t1 -39
t19.5 -29t33 -18.5t43.5 -6.5q25 0 48 7.5t41 20t30.5 29.5t16.5 36z" />
    <glyph glyph-name="one" unicode="1" horiz-adv-x="490" 
d="M449 120q-6 -27 -18.5 -54.5t-32.5 -52.5t-49 -45.5t-68 -33.5l-15 49q19 5 39 16t37 28.5t30.5 40.5t19.5 52q5 24 0.5 44.5t-17.5 36t-33.5 24t-45.5 8.5q-24 0 -48 -7t-43.5 -20.5t-34 -33t-19.5 -44.5q-5 -24 2 -45t27 -29q-9 17 -4 37q7 31 33 52.5t57 21.5
q30 0 47 -21t11 -52q-5 -29 -25 -48.5t-46.5 -30t-55 -12t-50.5 6.5q-34 12 -48.5 45.5t-5.5 74.5q8 37 28.5 67t50 51t64.5 32t72 11q38 0 67.5 -13t48.5 -35.5t25.5 -53.5t-0.5 -67zM281 89q3 14 -4.5 23.5t-21.5 9.5t-25.5 -9.5t-14.5 -23.5t4.5 -23.5t21.5 -9.5
t25.5 9.5t14.5 23.5z" />
    <glyph glyph-name="two" unicode="2" horiz-adv-x="532" 
d="M517 250q5 1 11 0.5t11 -11.5q7 -14 6 -22t-10 -17q-7 -7 -14.5 -16t-10.5 -21l-23 -109q-12 -29 -33.5 -41.5t-52.5 -12.5h-320q-11 -2 -12.5 7t-1.5 23q0 16 7 19t14 5q7 30 14.5 76.5t10.5 97t-2 99t-23 82.5l51 36q20 -46 26 -99t4 -106t-10.5 -102t-16.5 -86h270
q12 0 17.5 6.5t7.5 12.5l20 96q3 16 8.5 25.5t11.5 14.5q-4 16 -16 22t-25.5 4t-24 -10t-10.5 -20q3 -6 2.5 -22t-2.5 -33h-50q3 32 -7.5 57.5t-42.5 27.5q-17 1 -33.5 -12t-24.5 -34q19 9 35.5 8t28.5 -9t17 -22.5t1 -32.5q-5 -25 -27.5 -44.5t-54.5 -17.5q-33 3 -47.5 21
t-15 43.5t11 54.5t30.5 52t43.5 34t49.5 11q43 0 62 -35q14 19 34.5 27.5t41 8.5t38.5 -9.5t26 -26.5zM287 131q3 12 -4 20t-18 8t-21 -8t-13 -20q-2 -11 5 -19t18 -8t21 8t12 19z" />
    <glyph glyph-name="three" unicode="3" horiz-adv-x="522" 
d="M212 68q3 14 -4.5 23.5t-21.5 9.5t-25.5 -9.5t-14.5 -23.5t4.5 -23.5t21.5 -9.5t25.5 9.5t14.5 23.5zM506 250q5 1 11 0.5t11 -11.5q7 -14 6 -22t-10 -17q-7 -7 -14.5 -16t-10.5 -21l-34 -163h-54l35 169q2 8 8 21t12 17q-11 17 -27 20t-30 1q-18 -3 -34 -20t-24 -57
l-27 -126q-1 -5 -5 -6.5t-26 -1.5t-25 1.5t-2 6.5l27 127q4 22 -0.5 37.5t-14.5 24.5t-23.5 12.5t-27.5 2.5q-24 -2 -41.5 -13t-29.5 -28t-18 -37t-5 -39q13 14 29 22t33 8q32 0 49 -21.5t10 -53.5q-7 -30 -33 -51.5t-58 -21.5q-36 0 -55.5 18.5t-26 46.5t-2.5 60.5t15 59.5
q9 23 24 42t34 33.5t40.5 22.5t43.5 9q32 2 61 -9.5t40 -41.5q14 25 40.5 36.5t52.5 13.5q25 2 45.5 -6.5t30.5 -28.5z" />
    <glyph glyph-name="four" unicode="4" horiz-adv-x="489" 
d="M626 389q-20 -40 -53.5 -67t-72.5 -44t-80.5 -25.5t-77 -12.5t-61.5 -4.5t-34 -0.5q-22 -2 -46.5 -10.5t-37.5 -26.5q-15 -21 -14.5 -60t19.5 -87h113q-6 5 -15.5 13.5t-17.5 20.5t-12.5 27t-1.5 32q6 28 30 47.5t52 19.5t44 -19.5t10 -47.5q-5 -21 -20 -38t-35 -25
q8 -8 17 -16.5t20 -13.5h91l-10 -51h-302q-17 0 -20 7.5t-5 17.5q0 7 7 12q-43 116 6 185q17 25 41 38.5t46 19.5q26 7 53 7q46 0 93 4t89.5 16.5t78.5 35.5t60 61zM330 144q2 11 -4.5 19t-17.5 8t-21.5 -8t-12.5 -19q-2 -12 4.5 -20t17.5 -8t21.5 8t12.5 20z" />
    <glyph glyph-name="five" unicode="5" horiz-adv-x="489" 
d="M623 389q-22 -41 -56.5 -68.5t-74 -44.5t-81 -25.5t-76.5 -12t-60 -3.5t-33 -1q-21 -2 -43 -10t-36 -26q-15 -21 -15.5 -59.5t18.5 -86.5h115q-6 3 -15.5 11.5t-17.5 20.5t-12.5 27t-0.5 33q6 28 29.5 47.5t52.5 19.5q28 0 43.5 -19.5t9.5 -47.5q-5 -21 -19.5 -38
t-34.5 -25q6 -11 15.5 -18t17.5 -11h96l-11 -52h-302q-18 0 -21 8t-5 19q0 3 2.5 5.5l4.5 4.5q-41 116 6 185q18 27 44 40t50.5 17.5t43.5 4.5t24 1q-6 4 -7 14.5t1 18.5q6 29 32 49.5t56 20.5t48 -20t11 -50q-1 -3 -3.5 -10t-7.5 -8q21 4 44.5 13t46.5 22t43 31t34 41z
M376 314q2 9 -1.5 16t-10 10.5t-15.5 2.5t-18 -8q-11 -8 -13 -20.5t4 -20.5q3 -3 8.5 -4.5t12 -1t11.5 1.5t7 2q12 8 15 22zM330 144q2 11 -4 19t-17 8q-12 0 -22 -8t-12 -19q-2 -12 4 -20t18 -8q11 0 21 8t12 20z" />
    <glyph glyph-name="six" unicode="6" horiz-adv-x="458" 
d="M433 214q8 -45 -5 -80.5t-35.5 -62t-48.5 -43t-43 -23.5q-25 -9 -61 -12.5t-69 2.5t-54 24t-16 51q5 29 29.5 48.5t52.5 19.5t40.5 -13t14.5 -30t-3.5 -32.5t-14.5 -21.5q39 -4 71 11.5t53 39.5t30 52t3 50q-8 26 -33.5 39t-59.5 13.5t-71 -12.5t-68 -38q-10 -8 -19 -7
t-14 10q-8 11 2 27q-18 23 -34.5 50t-28.5 53t-18 48t-4 36l55 4q-4 -15 5 -36t22.5 -43.5t27 -43t18.5 -34.5q36 24 78.5 34.5t82 6t70.5 -25.5t45 -61zM196 70q3 12 -3.5 20t-18.5 8q-11 0 -20.5 -8t-12.5 -20q-2 -11 4.5 -19t17.5 -8q12 0 21.5 8t11.5 19z" />
    <glyph glyph-name="seven" unicode="7" horiz-adv-x="590" 
d="M699 413q-24 -50 -60 -111.5t-76 -120t-79 -107.5t-69 -74q-5 -4 -15 -7t-23 11q-4 5 -6 14t10 16q9 6 20 23t20.5 38.5t16 44.5t6 42.5t-10 32t-30.5 12.5q-18 0 -29.5 -9t-18.5 -20q-8 -13 -13 -29l-28 -132q0 -3 -9.5 -4.5t-20.5 -1.5t-19.5 1.5t-8.5 4.5l14 64
q5 24 9 44t5 21q1 29 -16 48t-42 17q-22 -2 -38.5 -12t-27.5 -24.5t-17.5 -32.5t-8.5 -36q25 19 52 19q31 0 48 -22t10 -53q-6 -31 -26 -48.5t-44 -22t-47 3.5t-36 28q-20 32 -17 76t23.5 84t56 68t82.5 29q29 1 52.5 -12t37.5 -40q18 21 39.5 34t44.5 15q27 2 45.5 -8
t29 -28t12.5 -41.5t-2 -47.5q24 33 48.5 72t46 76.5t39 69.5t26.5 52zM200 69q3 13 -4 22t-20 9q-14 0 -25 -9t-14 -22q-2 -13 5 -22t21 -9q13 0 24 9t13 22z" />
    <glyph glyph-name="eight" unicode="8" horiz-adv-x="531" 
d="M626 398q-20 -47 -66 -79.5t-101 -52.5t-110 -28.5t-94 -8.5q-45 0 -69 -16.5t-32.5 -42t-4 -57t17.5 -61.5h19q2 4 15 22t27 39q17 24 36 54q8 11 17.5 8t19.5 -8q5 -2 9.5 -9t-1.5 -16q-4 -5 -7 -9t-5 -7.5t-4 -5.5q2 -26 16 -42t29 -24q-3 18 2.5 35.5t17.5 32
t30 23.5t39 9q25 0 40 -15t18 -36t-6.5 -43.5t-33.5 -38.5q-27 -19 -60 -22.5t-57 1.5q-26 5 -46 21.5t-31 41.5q-5 -8 -11.5 -15.5t-11.5 -15.5q-6 -9 -12 -17q-3 -5 -9 -10t-14 -5h-64q-15 0 -19 11t-2 20q2 6 5 9q-7 27 -13 50t-7 44.5t4.5 42.5t21.5 44q45 60 137 65
q128 7 208 38t112 94zM442 76q2 13 -5 22t-20 9q-14 0 -24.5 -9t-12.5 -22q-3 -13 3.5 -22t20.5 -9q13 0 24 9t14 22z" />
    <glyph glyph-name="nine" unicode="9" horiz-adv-x="519" 
d="M625 392q-4 -8 -18 -34t-33.5 -58t-43 -66t-45.5 -58q-8 -8 -21 -6.5t-19 6.5q-4 3 -6 7.5t1 8.5q3 22 -7.5 38t-33.5 11q-13 -2 -31 -21t-21 -49q3 -8 10 -28t14.5 -43t14 -44.5t9.5 -32.5l-54 -27q-11 45 -23.5 83.5t-25.5 69t-25 52t-21 30.5l-62 -31q-42 -20 -54 -53
t4 -63q11 26 35 42t50 16q31 0 48 -21.5t10 -51.5q-3 -15 -12.5 -28.5t-23 -24t-29 -16.5t-31.5 -6q-30 0 -53 11t-37.5 30.5t-19.5 45.5t1 56q8 35 32 64.5t62 48.5q19 9 29.5 14.5t16.5 8.5t8 4.5t5 2.5q9 8 19 13.5t20 4.5q14 -2 25 -17.5t29 -49.5q16 31 43 46.5
t46 17.5q31 2 50.5 -9.5t27.5 -32.5q24 33 50 73t49 91zM234 68q3 13 -4 22t-20 9q-14 0 -25 -9t-14 -22q-3 -14 4 -23t21 -9q13 0 24 9t14 23z" />
    <glyph glyph-name="colon" unicode=":" horiz-adv-x="220" 
d="M168 46q-5 -21 -21.5 -34.5t-37.5 -13.5t-32.5 13.5t-6.5 34.5t22 35.5t38 14.5t32 -14.5t6 -35.5zM219 284q-5 -21 -21.5 -34.5t-37.5 -13.5t-32.5 13.5t-6.5 34.5t21.5 35.5t37.5 14.5t32.5 -14.5t6.5 -35.5z" />
    <glyph glyph-name="semicolon" unicode=";" horiz-adv-x="233" 
d="M179 42q-9 -45 -39.5 -80.5t-75.5 -67.5l-33 25q8 4 20 13.5t24 20.5t22.5 22.5t14.5 19.5q-22 0 -33.5 15.5t-7.5 36.5q5 21 24 37t41 16q23 0 36 -16t7 -42zM219 284q-5 -21 -21.5 -34.5t-37.5 -13.5t-32.5 13.5t-6.5 34.5t21.5 35.5t37.5 14.5t32.5 -14.5t6.5 -35.5z
" />
    <glyph glyph-name="less" unicode="&#x3c;" horiz-adv-x="390" 
d="M77 208l349 126l-14 -68l-256 -93l217 -91l-15 -68l-296 126z" />
    <glyph glyph-name="equal" unicode="=" horiz-adv-x="453" 
d="M104 208l14 68h324l-14 -68h-324zM75 73l14 68h324l-14 -68h-324z" />
    <glyph glyph-name="greater" unicode="&#x3e;" horiz-adv-x="385" 
d="M384 140l-350 -126l15 68l255 91l-216 93l14 68l297 -126z" />
    <glyph glyph-name="question" unicode="?" horiz-adv-x="363" 
d="M382 438q13 -26 11.5 -51t-12.5 -48t-29 -44t-37 -38q-27 -26 -49.5 -50.5t-29.5 -56.5l-9 -42h-70l9 42q9 43 37.5 74.5t58.5 58.5q37 34 53.5 59.5t6.5 54.5q-5 17 -20.5 24t-44.5 5q-11 -1 -23.5 -6t-24.5 -13t-22.5 -18t-16.5 -22l-40 30q19 34 50.5 56.5t72.5 27.5
q40 6 76.5 -4t52.5 -39zM224 43q-5 -20 -20 -32t-35 -12t-30 12t-5 32q4 20 19 33t35 13t30 -13t6 -33z" />
    <glyph glyph-name="at" unicode="@" horiz-adv-x="690" 
d="M684 222q-6 -27 -18.5 -56t-30.5 -56.5t-41 -51.5t-49 -41q-19 -14 -43 -20t-46 -4t-39 13t-23 32q0 1 -0.5 1.5t-0.5 1.5l-1 -2q-16 -15 -35 -24t-38 -13t-37.5 -1t-33.5 12q-22 16 -30.5 39t-8 49t9 54t20.5 55q13 28 32 55t43 48.5t52.5 35t59.5 13.5q20 0 38.5 -8.5
t27.5 -24.5l13 29h60q-41 -97 -68 -161.5t-38 -88.5q-9 -19 -11 -36.5t4 -27.5t21.5 -9.5t42.5 17.5q30 19 59 58t45.5 85t14.5 94t-35 87q-27 32 -64.5 45t-75 14t-70.5 -6t-51 -16q-12 -6 -39 -23t-57 -47t-56.5 -73t-38.5 -100q-10 -45 -4.5 -84t23 -70.5t46 -54
t65.5 -32.5q50 -14 104 -6.5t126 39.5l-10 -57q-54 -25 -107.5 -34t-102.5 -2.5t-90 28t-70 58.5q-12 15 -22.5 38t-16.5 51.5t-7 61t6 66.5q10 45 32 90t54 84.5t72 70.5t86 49q43 16 88 21.5t86.5 -0.5t77.5 -23.5t62 -45.5q32 -38 41 -88t-3 -108zM455 248q5 24 -5.5 41
t-34.5 17q-23 0 -45 -17t-39.5 -38.5t-29.5 -43t-16 -30.5q-8 -15 -12.5 -32.5t-5 -34t4 -29.5t14.5 -19q17 -11 35 -7t34.5 15.5t30 28t21.5 30.5q16 29 29 59t19 60z" />
    <glyph glyph-name="A" unicode="A" horiz-adv-x="444" 
d="M438 0l-70 -12l-24 136h-193l-80 -136l-65 12l278 455q4 6 14 17.5t22 17.5q6 3 13 2t14 -4t12 -7t7 -7q7 -9 0 -18t-10 -13zM301 377l-113 -191h145z" />
    <glyph glyph-name="B" unicode="B" horiz-adv-x="423" 
d="M364 348q8 37 -6.5 48t-53.5 11h-83l-27 -128h76q34 0 60.5 17.5t33.5 51.5zM347 143q8 39 -16.5 54.5t-65.5 15.5h-86l-31 -146h100q45 0 67.5 16t31.5 60zM151 394q2 9 -2.5 16t-9 13t-7.5 12t2 13q3 5 9.5 12t13.5 13t14.5 9.5t13.5 0.5q3 -2 6 -3.5l7 -3.5h129
q56 0 86.5 -34.5t18.5 -90.5q-8 -35 -26 -59t-41 -38q27 -14 42 -42t7 -68q-14 -68 -57 -106t-106 -38h-183z" />
    <glyph glyph-name="C" unicode="C" horiz-adv-x="430" 
d="M416 52q-30 -26 -64.5 -39.5t-67.5 -17.5t-62 -1t-48 11q-18 7 -38.5 22t-35.5 42t-20 68.5t7 100.5q13 59 35.5 100t49 68t53 42t47.5 22q27 9 56.5 11.5t57.5 -2t52.5 -16.5t41.5 -32l-5 -8q-4 -6 -12.5 -18.5t-24.5 -35.5q-23 25 -50 34t-50 9q-27 0 -55 -8
q-46 -15 -79 -59t-47 -107t1 -107t55 -60q27 -9 55 -10q24 -1 54 7t60 34l34 -50v0z" />
    <glyph glyph-name="D" unicode="D" horiz-adv-x="453" 
d="M403 238q36 170 -131 170h-56l-72 -340h79q78 0 120.5 45.5t59.5 124.5zM301 475q111 0 153 -63t19 -174q-24 -115 -94 -176.5t-178 -61.5h-138l83 394q2 9 -2.5 16t-9 13t-7.5 12t2 13q3 5 9.5 12t13.5 13t14.5 9.5t13.5 0.5l6 -4l6 -4h109z" />
    <glyph glyph-name="E" unicode="E" horiz-adv-x="377" 
d="M137 394q2 9 -2.5 16t-9 13t-7.5 12t2 13q3 5 9.5 12t13.5 13t14.5 9.5t13.5 0.5q3 -2 6 -3.5l7 -3.5h238l-15 -68h-199l-27 -127h178l-14 -68h-178l-31 -146h198l-14 -67h-266z" />
    <glyph glyph-name="F" unicode="F" horiz-adv-x="356" 
d="M140 394q2 9 -2.5 16t-9 13t-7.5 12t2 13q3 5 9.5 12t13.5 13t14.5 9.5t13.5 0.5q3 -2 6 -3.5l7 -3.5h237l-15 -67h-197l-27 -128h178l-14 -67h-179l-45 -214h-68z" />
    <glyph glyph-name="G" unicode="G" horiz-adv-x="459" 
d="M411 259q14 11 24 12q7 1 13 -3t10.5 -10t7 -12.5t2.5 -10.5q1 -8 -3.5 -13t-10.5 -10.5l-12 -11t-8 -14.5l-34 -159q-45 -18 -85.5 -26.5t-85.5 -8.5q-49 0 -80 20.5t-46.5 54.5t-16.5 78.5t9 93.5q10 45 31 89t51.5 79t70 57t86.5 22q10 0 32.5 -2t46 -13t41.5 -35
t20 -67l-69 -23q0 26 -10.5 40.5t-24 21.5t-28 8.5t-23.5 1.5q-32 0 -58 -16.5t-45 -42t-32 -57.5t-20 -63q-8 -39 -8 -72t10.5 -56.5t34 -37t61.5 -13.5q20 0 41 5t44 12l24 113h-102l15 69h127z" />
    <glyph glyph-name="H" unicode="H" horiz-adv-x="453" 
d="M328 0l45 213h-202l-45 -213h-67l101 477h67l-42 -196h202l42 196h66l-101 -477h-66z" />
    <glyph glyph-name="I" unicode="I" horiz-adv-x="183" 
d="M59 0l101 477h66l-101 -477h-66z" />
    <glyph glyph-name="J" unicode="J" horiz-adv-x="301" 
d="M259 124q-15 -50 -41 -80.5t-58.5 -42.5t-68.5 -7t-71 25l36 64q11 -15 31 -22.5t41 -4t39 18t24 43.5l76 359h67l-75 -353v0z" />
    <glyph glyph-name="K" unicode="K" horiz-adv-x="425" 
d="M343 -6l-168 223l-46 -217h-68l101 477h68l-42 -198l252 209l67 -20l-271 -220l185 -248z" />
    <glyph glyph-name="L" unicode="L" horiz-adv-x="367" 
d="M106 0q-6 -5 -15.5 -8.5t-12.5 -5.5q-8 -3 -14 0.5t-11 9.5t-8 13t-4 12q-2 7 3.5 13t13 12t14.5 13t9 16l9 41q4 18 10 46.5t15 71.5t22 103t30 140h68l-89 -416h214l-12 -61h-242z" />
    <glyph glyph-name="M" unicode="M" horiz-adv-x="659" 
d="M367 23q1 -5 1 -7v-3t-1 -1q0 -9 -10 -15.5t-21.5 -9.5t-21 -0.5t-8.5 11.5l-73 347l-148 -355l-63 11l185 432q-5 11 -8.5 18.5t3.5 16.5q4 3 11.5 7.5t16 8t16 5t11.5 -0.5q10 -5 16 -17t8 -19l71 -345l218 345q3 7 15 19t23 17q5 2 12.5 0.5t14 -5t12.5 -8t8 -7.5
q2 -9 -3.5 -16.5t-15.5 -18.5l1 -432l-69 -11l4 355z" />
    <glyph glyph-name="N" unicode="N" horiz-adv-x="474" 
d="M223 450q17 -35 43 -87.5t49 -102.5q27 -58 56 -120l71 335h67l-100 -475h-55l-154 322l-68 -322h-67l84 399q2 9 -1.5 16l-7 14t-6 13.5t2.5 12.5q8 11 24.5 21t29.5 8q11 -2 19 -11t13 -23z" />
    <glyph glyph-name="O" unicode="O" horiz-adv-x="465" 
d="M476 239q-12 -57 -35 -103t-55 -78.5t-71 -49.5t-84 -17q-51 0 -83.5 20.5t-49 55t-18 79.5t8.5 93q10 45 30 89t50.5 79t72 57t94.5 22q50 0 82 -21t48.5 -55.5t18 -79t-8.5 -91.5zM408 239q6 28 6.5 60t-8.5 59t-29 44.5t-55 17.5t-62.5 -16t-48 -42t-34.5 -58t-21 -65
q-6 -29 -6.5 -61t9 -59t30 -44.5t56.5 -17.5q34 0 61.5 17t48 43.5t34 58.5t19.5 63z" />
    <glyph glyph-name="P" unicode="P" horiz-adv-x="389" 
d="M367 327q9 42 -22 61t-94 19h-26t-17 -2l-36 -167h43q67 0 104 20.5t48 68.5zM141 394q2 9 -2.5 16t-9 13t-7.5 12t2 13q3 5 9.5 12t13.5 13t14.5 9.5t13.5 0.5q3 -2 6 -3.5l7 -3.5h76q40 0 75 -8t59 -25.5t35 -46t2 -69.5q-7 -32 -23.5 -60.5t-44.5 -49.5t-68 -33.5
t-94 -12.5h-44l-36 -171h-67z" />
    <glyph glyph-name="Q" unicode="Q" horiz-adv-x="478" 
d="M411 -21l-52 52q-54 -39 -122 -39q-51 0 -83.5 19.5t-49 53t-18.5 78.5t9 96t32 95.5t52 78t71.5 53t91.5 19.5q50 0 82.5 -19.5t49 -53t18 -78.5t-9.5 -95q-10 -47 -28 -87t-42 -72l52 -51zM410 239q7 33 7.5 65t-8.5 56.5t-29 39.5t-53 15q-34 0 -61 -15.5t-47 -40.5
t-33 -56.5t-20 -63.5q-7 -34 -7 -66t9.5 -56.5t30 -39.5t53.5 -15q32 0 61 17l-37 39l51 49l38 -39q31 47 45 111z" />
    <glyph glyph-name="R" unicode="R" horiz-adv-x="417" 
d="M367 327q9 42 -22 61t-94 19h-26t-17 -2l-36 -167h43q67 0 104 20.5t48 68.5zM141 394q2 9 -2.5 16t-9 13t-7.5 12t2 13q3 5 9.5 12t13.5 13t14.5 9.5t13.5 0.5q3 -2 6 -3.5l7 -3.5h76q40 0 75 -8t59 -25.5t35 -46t2 -69.5q-7 -32 -21 -56.5t-32.5 -41.5t-39.5 -28
t-42 -17l83 -183l-72 -10l-79 180h-71l-36 -171h-67z" />
    <glyph glyph-name="S" unicode="S" horiz-adv-x="419" 
d="M404 118q-8 -29 -26 -54t-44.5 -43t-62 -28t-79.5 -8q-58 2 -89.5 21.5t-51.5 44.5l61 56q14 -17 34.5 -35t57.5 -21q17 -2 37 1t38 10t32.5 19t20.5 30q5 15 3 26.5t-13 23t-32.5 22.5t-56.5 25q-62 23 -88.5 56t-21.5 75q3 27 16.5 53.5t37.5 47t56.5 33t73.5 12.5
q17 0 36.5 -3t38.5 -10t35 -19t27 -29l-46 -56q-11 16 -37.5 32t-66.5 16q-23 0 -40 -6t-28.5 -14.5t-17.5 -17.5t-8 -15q-11 -29 4.5 -50t69.5 -41q29 -11 56.5 -24.5t47 -31.5t27.5 -42t-1 -56z" />
    <glyph glyph-name="T" unicode="T" horiz-adv-x="389" 
d="M128 411q-3 0 -6.5 0.5t-7 3.5t-5.5 9.5t-1 18.5q2 21 13.5 28t25.5 6h291q14 1 22.5 -6t0.5 -28q-5 -13 -9.5 -19.5t-9 -9t-8.5 -3t-8 -0.5h-116l-87 -411h-67l87 411h-115z" />
    <glyph glyph-name="U" unicode="U" horiz-adv-x="493" 
d="M462 158q-9 -40 -29.5 -71t-49 -52t-63.5 -32t-73 -11q-40 0 -71.5 10t-52 30.5t-27.5 52t2 73.5l68 319h66l-69 -326q-11 -51 17.5 -74.5t79.5 -23.5t87.5 23.5t47.5 74.5l69 326h66l-68 -319v0z" />
    <glyph glyph-name="V" unicode="V" horiz-adv-x="465" 
d="M116 474l70 12l68 -388l230 388l64 -12l-279 -458q-4 -7 -15.5 -18.5t-23.5 -16.5q-5 -2 -12 -0.5t-13.5 5t-12.5 8t-8 7.5q-3 8 2.5 15t14.5 17z" />
    <glyph glyph-name="W" unicode="W" horiz-adv-x="659" 
d="M525 127l148 355l64 -11l-185 -432q5 -11 8 -18.5t-4 -16.5q-4 -3 -11.5 -7.5t-15.5 -8t-16 -5t-12 0.5q-9 5 -15.5 17t-7.5 19l-71 345l-218 -345q-4 -7 -15.5 -19t-23.5 -17q-5 -2 -12 -0.5t-14 5t-13 8t-8 7.5q-2 9 4 16.5t16 18.5l-1 432l68 11l-4 -355l221 347
q3 9 13.5 11.5t21 -0.5t17 -9.5t3.5 -15.5q1 0 1 -1q0 -3 -5 -10z" />
    <glyph glyph-name="X" unicode="X" horiz-adv-x="441" 
d="M353 -6l-90 203l-176 -201l-61 14l216 243l-103 215l71 13l75 -180l155 179l63 -12l-198 -222l115 -238z" />
    <glyph glyph-name="Y" unicode="Y" horiz-adv-x="400" 
d="M484 474l-9 -11t-23.5 -28.5t-33 -40t-37.5 -45.5q-46 -55 -103 -125l-47 -224h-65l47 224l-50 125q-9 24 -18 46.5l-16 40t-11 28.5l-4 11l65 12l77 -213l169 212l59 -12v0z" />
    <glyph glyph-name="Z" unicode="Z" horiz-adv-x="406" 
d="M114 410l13 65h295q5 2 12.5 5.5t11.5 5.5q14 5 22 -5.5t13 -30.5q2 -7 -3.5 -13.5t-14 -13t-18 -13t-15.5 -14.5l-284 -331h247l-13 -65h-298q-5 -2 -12.5 -5.5t-11.5 -5.5q-14 -5 -22 5.5t-13 30.5q-2 7 3.5 13.5t14 13t18 13t15.5 14.5l284 331h-244z" />
    <glyph glyph-name="bracketleft" unicode="[" horiz-adv-x="245" 
d="M29 -92l125 589h138l-13 -64h-77l-99 -462h77l-13 -63h-138z" />
    <glyph glyph-name="backslash" unicode="\" horiz-adv-x="225" 
d="M176 -17l-85 514h60l85 -514h-60z" />
    <glyph glyph-name="bracketright" unicode="]" horiz-adv-x="246" 
d="M38 -92l13 63h77l99 462h-77l13 64h138l-125 -589h-138z" />
    <glyph glyph-name="asciicircum" unicode="^" horiz-adv-x="401" 
d="M319 213l-37 181l-112 -181h-71l159 254h81l51 -254h-71z" />
    <glyph glyph-name="underscore" unicode="_" horiz-adv-x="372" 
d="M-21 -100l11 50h371l-11 -50h-371z" />
    <glyph glyph-name="grave" unicode="`" horiz-adv-x="216" 
d="M263 386h-58l-78 105l93 -1z" />
    <glyph glyph-name="a" unicode="a" horiz-adv-x="405" 
d="M320 156q2 12 3.5 19t2.5 11l1 5q1 18 -1.5 36t-11 32.5t-24 24t-38.5 9.5q-26 0 -46.5 -12t-35.5 -30t-24.5 -39t-13.5 -39q-3 -15 -3 -36t6.5 -39.5t22 -31.5t43.5 -13q22 0 41.5 9t34.5 23.5t26 33t17 37.5zM297 29q-24 -19 -51.5 -27t-57.5 -8q-40 0 -65.5 16
t-39.5 41.5t-16.5 57.5t4.5 64q7 33 23.5 65t41 57.5t57 41.5t72.5 16q29 0 51.5 -11.5t37.5 -29.5q1 4 2 9q1 7 6 28h63l-57 -267q-7 -30 -6 -44.5t5 -31.5l-62 -20q-5 13 -7 22.5t-1 20.5z" />
    <glyph glyph-name="b" unicode="b" horiz-adv-x="403" 
d="M125 35q-5 -11 -11.5 -20.5t-15.5 -22.5l-54 20q11 17 18 31.5t13 44.5q-1 -1 8 40q4 18 10 46t15 71.5t22 103t30 140.5h62q-11 -50 -17.5 -83t-11.5 -54q-5 -25 -8 -39q23 18 51 29.5t57 11.5q40 0 65.5 -15.5t39.5 -41t16.5 -57.5t-4.5 -64q-7 -33 -23 -65
t-40.5 -57.5t-57 -41.5t-72.5 -16q-58 0 -92 39zM349 176q3 15 3.5 35.5t-6.5 39t-22.5 31.5t-43.5 13q-23 0 -42.5 -10t-34.5 -26t-26 -34.5t-17 -36.5q0 -1 -1 -6t-2.5 -11t-2.5 -11.5l-1 -5.5q-2 -19 1.5 -37t12.5 -31.5t24.5 -21.5t37.5 -8q28 0 49 13t35.5 31.5
t23.5 39t12 36.5z" />
    <glyph glyph-name="c" unicode="c" horiz-adv-x="326" 
d="M302 33q-42 -32 -90 -39t-85.5 10.5t-57 60t-4.5 110.5q14 67 50.5 110t80.5 60.5t88.5 9.5t75.5 -42l-41 -60q-18 32 -47.5 40t-53.5 0q-35 -12 -59 -43t-33 -75q-10 -45 1.5 -75.5t40.5 -41.5q19 -8 51.5 -4t63.5 34l30 -46z" />
    <glyph glyph-name="d" unicode="d" horiz-adv-x="403" 
d="M368 88q-6 -30 -5.5 -44.5t4.5 -31.5l-62 -20q-5 13 -7 22t-2 20q-50 -38 -108 -38q-40 0 -66 16t-39.5 41.5t-16 57.5t4.5 65q7 32 23 64t40.5 57.5t57 41t72.5 15.5q29 0 51.5 -11.5t38.5 -29.5l37 176h62zM132 176q-3 -16 -3.5 -36.5t6 -39t22 -31.5t43.5 -13
q22 0 41 8t34 21.5t26 31.5t17 37l7 34q1 18 -1.5 36.5t-11 34.5t-23.5 26t-38 10q-28 0 -49 -13t-35.5 -31.5t-23 -39t-11.5 -35.5z" />
    <glyph glyph-name="e" unicode="e" horiz-adv-x="391" 
d="M396 180q-5 -19 -16 -26.5t-31 -7.5h-217q-4 -35 10.5 -57.5t35.5 -31.5q25 -11 54 -5.5t70 28.5l28 -47q-16 -12 -40.5 -22t-52.5 -14t-55.5 -2t-49.5 14q-42 22 -58.5 64.5t-4.5 99.5q6 27 22 58.5t41.5 58.5t61.5 45t82 18q65 0 97 -39q12 -15 18.5 -33t8 -36t0.5 -34
t-4 -28v-3zM336 205q8 37 -12.5 64.5t-61.5 27.5q-26 0 -45.5 -9.5t-33.5 -24t-23.5 -30.5t-13.5 -28h190z" />
    <glyph glyph-name="f" unicode="f" horiz-adv-x="224" 
d="M308 427q-38 12 -61 5.5t-33 -51.5q-2 -8 -3 -13l-2 -10t-1 -9h83l-22 -51h-72q-2 -11 -9 -44q-6 -29 -18.5 -85t-32.5 -154q-6 -26 -16 -47.5t-21 -37.5t-20 -26t-12 -13l-55 17q28 26 42.5 52t19.5 54q21 99 33 155t18 85q7 33 10 44h-62l22 51h51l9 45q8 37 26 58
t41.5 30t51 7.5t54.5 -9.5z" />
    <glyph glyph-name="g" unicode="g" horiz-adv-x="403" 
d="M404 260l-50 -240q-19 -82 -83 -124q-42 -27 -91.5 -33t-94.5 4l33 55q38 -8 67.5 -3t52.5 20q44 30 55 92q-47 -38 -107 -38q-40 0 -65.5 16t-39 42t-16 58t4.5 65q7 32 23 64.5t40.5 58t57 41.5t72.5 16q61 0 91 -39q5 11 11.5 19.5t15.5 21.5l56 -20
q-11 -17 -19 -31.5t-14 -44.5zM326 190q2 19 -1.5 38t-12.5 33.5t-24.5 23.5t-37.5 9q-28 0 -49 -13t-36 -31.5t-24 -39.5t-12 -36q-4 -18 -3 -39.5t8.5 -39.5t23 -30t41.5 -12q23 0 42 9.5t34 24t25.5 32.5t16.5 36l1 5q1 4 3 10.5t5 19.5z" />
    <glyph glyph-name="h" unicode="h" horiz-adv-x="403" 
d="M299 -12q-4 13 -6.5 30.5t4.5 48.5l32 153q5 22 0.5 37t-13.5 24.5t-21.5 13.5t-23.5 4q-21 0 -39 -9t-32.5 -23.5t-24.5 -32.5t-14 -37l-41 -197h-61l103 489h62q-11 -51 -18 -83.5t-11 -52.5q-5 -23 -7 -36q22 17 46.5 26.5t50.5 9.5q28 0 50.5 -10t36.5 -28t19 -42.5
t-1 -52.5l-32 -153q-1 -4 -2.5 -10.5t-2 -14t1 -16.5t6.5 -17z" />
    <glyph glyph-name="i" unicode="i" horiz-adv-x="194" 
d="M230 436q-4 -17 -18.5 -29t-31.5 -12t-27.5 12t-6.5 29t19 29t33 12q17 0 26.5 -12t5.5 -29zM67 0l74 349h60l-74 -349h-60z" />
    <glyph glyph-name="j" unicode="j" horiz-adv-x="194" 
d="M229 437q-4 -17 -18.5 -29t-31.5 -12t-27 12t-7 29q4 17 19 29t32 12q18 0 27.5 -12t5.5 -29zM127 2q-7 -33 -17.5 -58t-30 -42.5t-51.5 -28t-83 -15.5l-13 53q42 3 66.5 8t38 15t19 25t10.5 39q1 6 10 45q3 16 8.5 41.5t13.5 62.5t18.5 87t24.5 115h60z" />
    <glyph glyph-name="k" unicode="k" horiz-adv-x="338" 
d="M279 -11q-40 51 -65.5 84t-39.5 53q-18 23 -26 36q-4 -15 -8 -38q-5 -20 -11 -50t-15 -74h-62l103 489h62q-17 -78 -27 -127t-16 -77q-7 -33 -10 -49q12 9 35 26q20 14 52 37t83 58l53 -22q-65 -46 -103 -72.5t-58 -40.5q-24 -17 -32 -22q5 -7 23 -30q15 -20 44 -58
t79 -103z" />
    <glyph glyph-name="l" unicode="l" horiz-adv-x="195" 
d="M67 0l102 484l31 23h35l-107 -507h-61z" />
    <glyph glyph-name="m" unicode="m" horiz-adv-x="592" 
d="M113 260q6 30 5.5 44.5t-4.5 31.5l62 20q5 -13 6 -20.5t1 -18.5q43 36 95 36q32 0 55.5 -14t34.5 -38q22 24 53 38t63 14q35 0 56.5 -12.5t32 -32.5t11.5 -44t-4 -48l-31 -147q-2 -15 -2 -27q0 -11 1 -20t4 -11l-62 -22l-3 10q-2 5 -3.5 22t5.5 48l33 155q8 35 -5 54
t-45 19q-20 0 -37 -8.5t-30.5 -22t-22 -30.5t-12.5 -35l-42 -201h-61l47 224q7 33 -8.5 53t-48.5 20q-21 0 -37 -8.5t-28 -22.5t-19.5 -31t-11.5 -34l-42 -201h-61z" />
    <glyph glyph-name="n" unicode="n" horiz-adv-x="393" 
d="M113 260q6 30 5.5 44.5t-4.5 31.5l62 20q5 -13 6 -21t1 -19q20 17 46 27.5t53 10.5q38 0 59.5 -13.5t31.5 -33.5t11 -43t-3 -41l-33 -156q-1 -3 -1.5 -10t-0.5 -16t1.5 -17.5t4.5 -14.5l-63 -21q-4 13 -6 30.5t5 48.5l33 157q7 33 -9 52.5t-50 19.5q-20 0 -36.5 -8
t-29.5 -21.5t-21.5 -30t-12.5 -34.5l-42 -202h-62z" />
    <glyph glyph-name="o" unicode="o" horiz-adv-x="384" 
d="M381 174q-7 -33 -23.5 -65t-41 -57t-57 -40.5t-70.5 -15.5q-40 0 -66 15.5t-40 41t-16.5 57.5t4.5 64t23 64t40.5 57.5t57 41t72.5 15.5t66 -15.5t39.5 -41t16 -57.5t-4.5 -64zM319 174q4 19 3.5 40.5t-8 40t-22.5 30.5t-39 12q-23 0 -43 -11t-35.5 -28.5t-26.5 -39.5
t-16 -44t-3.5 -44t10 -39.5t23.5 -28.5t38 -11q22 0 42 11t35.5 28.5t26 39.5t15.5 44z" />
    <glyph glyph-name="p" unicode="p" horiz-adv-x="403" 
d="M347 174q4 18 3.5 39t-7.5 39.5t-22.5 30.5t-41.5 12q-24 0 -43.5 -9.5t-34.5 -24.5t-25 -33.5t-16 -36.5q-3 -13 -4 -19.5t-2 -10.5l-1 -5q-2 -18 1 -36t11.5 -33t24 -24.5t38.5 -9.5q26 0 46.5 12t35.5 30t24 39.5t13 39.5zM183 314q49 40 109 40q40 0 65.5 -16
t39 -41.5t16 -57.5t-4.5 -65t-23 -65t-40.5 -57.5t-57 -41.5t-72.5 -16q-60 0 -91 36q-2 -11 -6 -26q-3 -13 -6.5 -31.5t-8.5 -41.5q-7 -30 -16 -48t-19 -31l-50 21q1 1 4 7.5t7 15.5t7.5 18t5.5 17l70 329q6 30 4.5 44.5t-5.5 31.5l64 20q5 -13 6.5 -22t1.5 -20z" />
    <glyph glyph-name="q" unicode="q" horiz-adv-x="403" 
d="M353 315q5 11 11 19.5t15 21.5l56 -20q-11 -17 -19 -31.5t-14 -44.5q0 1 -7 -32q-3 -14 -8 -37.5t-12.5 -59t-18 -85l-24.5 -115.5q-3 -14 -3 -30.5t7 -27.5l-64 -21q-4 13 -6 31t5 48q5 23 8.5 41.5t6.5 31.5q4 15 6 26q-47 -36 -107 -36q-40 0 -66 16t-39.5 41.5
t-16 57.5t4.5 65t23 65t41 57.5t57.5 41.5t72.5 16q61 0 91 -39zM324 190q2 18 -0.5 36.5t-11.5 34t-24 25t-39 9.5q-26 0 -47 -12t-36 -30.5t-24.5 -39.5t-13.5 -39t-3 -39.5t8.5 -39.5t23 -30t41.5 -12q23 0 42 9.5t34 24.5t26 33t17 36l1 5q1 3 2 10t4 19z" />
    <glyph glyph-name="r" unicode="r" horiz-adv-x="265" 
d="M116 260q6 30 5.5 44.5t-4.5 31.5l62 20q5 -13 5 -20v-18q39 36 79.5 40.5t84.5 -21.5l-51 -57q-20 16 -41 15.5t-39.5 -13.5t-32.5 -36t-20 -53l-41 -193h-62z" />
    <glyph glyph-name="s" unicode="s" horiz-adv-x="337" 
d="M330 97q-10 -48 -52 -75t-107 -28q-26 0 -45 3.5t-35 11t-29 17t-25 21.5l54 43q21 -23 43 -33t50 -9q34 1 56 12t27 30q2 10 0.5 17.5t-9.5 14t-24 13.5t-42 17q-105 37 -91 102q4 19 16 37.5t31 33t44.5 23.5t56.5 9q26 0 58.5 -11t52.5 -26l-39 -52q-14 11 -36 22
t-49 11q-28 0 -47 -11.5t-23 -30.5q-5 -19 12 -30.5t57 -25.5q23 -9 42.5 -18.5t33 -21.5t19 -28t0.5 -38z" />
    <glyph glyph-name="t" unicode="t" horiz-adv-x="236" 
d="M158 -8q-33 0 -49 10.5t-21 26t-2.5 34t5.5 34.5q14 68 22.5 107.5t13.5 60.5q5 25 7 33h-64l25 51h50q1 7 4 18l5 25t8 37l36 23h30q-7 -30 -11 -50t-6 -32q-3 -14 -5 -21h80l-26 -51h-65q-3 -9 -8 -35q-5 -23 -14 -65t-24 -115q-4 -18 0.5 -26t14.5 -9.5t24 2t29 8.5
l7 -55z" />
    <glyph glyph-name="u" unicode="u" horiz-adv-x="400" 
d="M300 -14q-5 13 -7 21.5t-2 19.5q-23 -20 -51 -27.5t-51 -7.5q-39 0 -61.5 14t-33 34.5t-12 43t2.5 39.5l48 226h61l-49 -227q-7 -34 10 -55t52 -21q19 0 36.5 8.5t31.5 22.5t23.5 31.5t13.5 35.5l44 205h61l-57 -267q-7 -30 -5 -44.5t6 -31.5z" />
    <glyph glyph-name="v" unicode="v" horiz-adv-x="354" 
d="M147 359l50 -263l159 265l54 -21l-104 -168q-20 -32 -38.5 -62t-33.5 -53.5t-23.5 -38l-8.5 -14.5q-5 -10 -16 -12.5t-22 0.5t-18 10.5t-2 16.5l3 8l-60 313z" />
    <glyph glyph-name="w" unicode="w" horiz-adv-x="534" 
d="M396 82l145 279l52 -20l-176 -316v-8q0 -10 -10 -17.5t-22.5 -10.5t-23 -0.5t-11.5 12.5l-32 260q-39 -73 -69 -130q-13 -24 -25 -47.5t-22 -42t-15.5 -29.5l-5.5 -11q-5 -10 -17 -12.5t-23 0.5t-18 10.5t-3 17.5l4 8l-41 318l61 18l28 -280l137 267q3 9 14 11.5
t22.5 -0.5t19 -9.5t4.5 -15.5q1 0 1 -1q0 -3 -5 -10z" />
    <glyph glyph-name="x" unicode="x" horiz-adv-x="359" 
d="M410 331q-55 -54 -86 -85.5t-47 -47.5q-18 -18 -25 -24q4 -5 15 -23q10 -15 28 -44.5t50 -80.5l-58 -36q-26 45 -41.5 72t-24.5 42l-15 25l-139 -139l-43 35q53 51 83.5 80.5t46.5 44.5l24 24q-3 6 -14 24q-9 16 -26.5 47.5t-48.5 85.5l57 33q26 -47 41.5 -75t23.5 -44
q10 -18 14 -26l26 26q15 16 43 44t73 75l43 -33v0z" />
    <glyph glyph-name="y" unicode="y" horiz-adv-x="374" 
d="M181 -58q-14 -21 -28 -34.5t-31 -23.5q-20 -11 -39.5 -18t-47.5 -17l-8 52q31 11 50 19t32.5 19.5t25 30t28.5 50.5q-2 7 -10 43q-4 15 -9.5 38.5t-13 56.5t-17.5 77.5t-23 102.5l65 25q17 -85 28.5 -137t17.5 -81q7 -34 11 -50q9 17 30 51q18 29 50 81t83 136l50 -26z
" />
    <glyph glyph-name="z" unicode="z" horiz-adv-x="346" 
d="M280 300h-190l12 55h252q7 2 15 2t12 -3q8 -6 7 -19.5t-4 -21.5q-3 -6 -8.5 -8l-11 -4t-11.5 -4.5t-11 -8.5l-205 -233h192l-11 -55h-254q-8 -2 -15.5 -2t-11.5 3q-9 6 -8 19.5t4 21.5q4 6 9 8t11 4t12 4.5t11 8.5z" />
    <glyph glyph-name="braceleft" unicode="{" horiz-adv-x="205" 
d="M90 -103q-26 0 -38.5 18t-7.5 38l42 202q4 17 -1.5 21.5t-14.5 7.5l8 30q14 5 19.5 13.5t7.5 16.5l43 201q5 20 24.5 38t45.5 18h73l-36 -35q-11 -1 -16 -1.5t-8 -0.5h-4q-13 -2 -16 -8.5t-4 -9.5l-42 -198q-2 -13 -12.5 -26.5t-21.5 -22.5q8 -10 12 -23.5t1 -25.5
l-42 -198q-1 -3 0 -9t12 -8l27 -3l22 -35h-73z" />
    <glyph glyph-name="bar" unicode="|" horiz-adv-x="185" 
d="M61 -9l105 496h59l-105 -496h-59z" />
    <glyph glyph-name="braceright" unicode="}" horiz-adv-x="207" 
d="M206 181q-3 -1 -10 -5t-11 -21l-42 -202q-5 -20 -24.5 -38t-45.5 -18h-73l41 36q8 1 13 1.5t7 0.5h3q13 2 16 8t4 9l42 198q3 12 12.5 25.5t21.5 23.5q-8 9 -11.5 22.5t-1.5 26.5l42 198q1 3 0 9t-12 8l-27 3l-22 35h73q26 0 38.5 -18t7.5 -38l-43 -201q-2 -8 1 -16.5
t16 -13.5l-6 -30z" />
    <glyph glyph-name="asciitilde" unicode="~" horiz-adv-x="441" 
d="M440 173q-29 -32 -63.5 -47.5t-66.5 -13.5q-17 1 -32.5 9t-30 16.5t-29.5 16t-31 9.5q-21 2 -41 -9t-45 -38l-18 63q10 10 23 21t28.5 19t33.5 13t39 3q15 -1 31 -9t32.5 -17t32.5 -17t30 -9q15 -2 34.5 9.5t43.5 38.5z" />
    <glyph glyph-name="uni0E33.alt1" horiz-adv-x="372" 
d="M-127 476q-41 0 -56.5 26t-8.5 57t33 57t67 26q27 0 43 -12.5t21 -30.5t0.5 -40t-17.5 -40t-34 -30.5t-48 -12.5zM-118 522q18 0 29.5 11.5t14.5 25t-3.5 25t-24.5 11.5t-29.5 -11.5t-14.5 -25t3.5 -25t24.5 -11.5zM322 0h-68l57 272q1 8 7 18.5t11 13.5q-12 15 -31 29
t-55 13q-26 -1 -44.5 -9t-31 -20t-20.5 -26.5t-12 -28.5h-65q20 64 67 103.5t120 41.5q25 1 43.5 -3.5t32.5 -12t24 -18t18 -20.5q5 2 13.5 -1t16.5 -15q12 -19 6 -27.5t-19 -22.5q-7 -7 -10.5 -14.5t-6.5 -21.5z" />
    <glyph glyph-name="quotedbl" unicode="&#x22;" horiz-adv-x="287" 
d="M282 282h-50l29 186h75zM168 282h-50l29 186h75z" />
    <glyph glyph-name="exclam" unicode="!" horiz-adv-x="257" 
d="M177 106h-55l67 370h79zM179 37q-4 -18 -19.5 -31t-33.5 -13t-28.5 13t-6.5 31t20 31t34 13t28 -13t6 -31z" />
    <glyph glyph-name="uni0E4E.alt1" 
d="M64 674q-43 9 -77.5 0.5t-41 -35.5t27.5 -43l-27 -33q-64 -3 -80 -32q-6 -25 22.5 -29t44.5 4l-35 -41q-44 -19 -77.5 -4.5t-26.5 56.5q19 65 106 75q-25 22 -13.5 53.5t52 47.5t97.5 6z" />
    <glyph glyph-name="exclamdown" unicode="&#xa1;" horiz-adv-x="252" 
d="M137 -139h-79l91 370h55zM235 300q-4 -18 -19.5 -31t-33.5 -13t-28.5 13t-6.5 31t20 31t34 13t28 -13t6 -31z" />
    <glyph glyph-name="cent" unicode="&#xa2;" horiz-adv-x="451" 
d="M429 52l-8.5 -7t-24.5 -16t-39 -18.5t-52 -14.5q-17 -3 -33 -3l-9 -43h-55l9 45q-11 2 -20.5 4.5t-17.5 5.5q-18 7 -38.5 22t-35.5 42t-20 68t7 100q15 69 43.5 115t61.5 74t66.5 40.5t57.5 13.5l10 48h55l-10 -46q35 -2 65 -13.5t53 -37.5l-5 -8q-4 -6 -13 -18.5
t-25 -35.5q-13 14 -28 22t-29 13q-16 5 -33 8l-75 -352q18 1 37 6q17 4 36 12.5t37 23.5zM217 71l15 -6l73 344q-54 -11 -91.5 -57t-51.5 -115q-14 -63 1 -106.5t54 -59.5z" />
    <glyph glyph-name="sterling" unicode="&#xa3;" horiz-adv-x="451" 
d="M421 384q-17 20 -39 29.5t-44.5 10.5t-43 -5.5t-34.5 -17.5q-24 -18 -31.5 -41t-7 -44t4.5 -35.5l4 -14.5h124l-30 -54h-93q0 -15 -3 -33.5t-11.5 -38.5t-24.5 -40t-41 -36h255l-14 -64h-336l11 53q48 32 71.5 69.5t22.5 88.5h-83l28 54h59q-12 46 -7 82t25 65
q26 39 68.5 56t85.5 17q38 0 71.5 -13t51.5 -35z" />
    <glyph glyph-name="currency" unicode="&#xa4;" horiz-adv-x="486" 
d="M428 237q-5 -29 -18 -47t-21 -29l39 -51l-53 -42l-40 50q-14 -7 -30 -14.5t-43 -5.5q-17 0 -33 5.5t-27 15.5l-63 -52l-35 44l62 52q-11 16 -12 35.5t4 38.5t15 35t21 25l-42 50l55 45l40 -51q14 9 33.5 15t41.5 5q43 -2 63 -18l63 51l35 -45l-63 -52q2 -10 7.5 -23.5
t0.5 -36.5zM361 226q7 27 -8 50.5t-47 23.5q-16 0 -30.5 -6.5t-26 -17t-19 -24t-8.5 -26.5q-5 -29 12 -47t43 -18q19 0 34 7t25.5 16.5t16.5 21t8 20.5z" />
    <glyph glyph-name="yen" unicode="&#xa5;" horiz-adv-x="414" 
d="M496 466l-210 -236h104l-8 -41h-104l-10 -44h104l-8 -41h-104l-21 -104h-65l22 104h-107l8 41h107l9 44h-106l8 41h107l-108 236l54 31l98 -211l188 211z" />
    <glyph glyph-name="brokenbar" unicode="&#xa6;" horiz-adv-x="180" 
d="M171 241h-59l52 244h59zM86 119h59l-52 -244h-59z" />
    <glyph glyph-name="section" unicode="&#xa7;" horiz-adv-x="457" 
d="M430 430q-7 16 -25.5 26t-55.5 10q-21 0 -39.5 -9.5t-29 -23t-12 -30t10.5 -29.5q4 -5 18 -14t31 -19.5t34.5 -21t30.5 -19.5q26 -17 40.5 -34t12.5 -51q-2 -20 -10 -39.5t-23 -35.5q-12 -14 -25 -23.5t-24 -17.5q-3 1 -1.5 -3t4.5 -11.5t5.5 -17.5t1.5 -22
q-3 -30 -17.5 -53.5t-36.5 -40.5t-50 -26.5t-58 -10.5q-25 -1 -44 1t-35 9t-30.5 18.5t-30.5 29.5l60 46q9 -17 26.5 -26t37 -12t38.5 0.5t32 12.5q12 9 20 20.5t10 23.5t-2 22.5t-17 16.5q-3 0 -17 9q-12 8 -38 25.5t-74 50.5q-26 18 -34.5 43t-1.5 57q6 30 26 55t51 43
q-14 26 -8.5 58t29.5 61q24 28 61 43t77 15q54 0 86.5 -14.5t55.5 -45.5zM323 146q7 4 15.5 10t18.5 15q6 6 9 15.5t2.5 18.5t-5 16.5t-11.5 10.5l-15 9.5t-35.5 22.5t-41.5 26t-32 20q-17 -8 -27.5 -17t-15.5 -26q-3 -16 3 -26.5t17 -18.5l14.5 -9t34 -21.5t39 -25.5
t30.5 -20z" />
    <glyph glyph-name="dieresis" unicode="&#xa8;" horiz-adv-x="220" 
d="M145 487q18 0 28.5 -13.5t6.5 -30.5q-5 -19 -20.5 -32t-33.5 -13q-19 0 -28.5 13.5t-5.5 31.5q4 17 19.5 30.5t33.5 13.5zM309 474q10 -15 7 -31q-5 -19 -20.5 -32t-33.5 -13q-19 0 -29.5 13t-5.5 32q4 18 20 31t34 13q17 0 28 -13z" />
    <glyph glyph-name="copyright" unicode="&#xa9;" horiz-adv-x="535" 
d="M556 234q-11 -51 -39.5 -96.5t-68 -79.5t-87.5 -53.5t-97 -19.5q-51 0 -90 20.5t-64 54.5t-34 79t2 95q10 49 38.5 94.5t68 79.5t87.5 54.5t98 20.5t89.5 -20.5t64.5 -54.5t33.5 -79.5t-1.5 -94.5zM511 234q9 40 1.5 77t-27.5 65t-52 44.5t-73 16.5q-40 0 -78.5 -16
t-71 -43.5t-55.5 -64.5t-32 -79q-9 -40 -1.5 -77t28 -65t52 -44.5t72.5 -16.5q40 0 79 16.5t71.5 44.5t55 65t31.5 77zM396 114q-20 -17 -41 -25.5t-41.5 -11t-39 0t-31.5 7.5q-12 4 -25 13.5t-22.5 26.5t-13 43t4.5 63q8 38 22.5 64t31 42.5t33.5 26t31 14.5q16 6 34.5 7.5
t36.5 -1.5t33.5 -10.5t26.5 -20.5q-1 -2 -5 -6q-3 -4 -9 -12.5t-16 -22.5q-14 15 -30 20.5t-30 6.5q-17 1 -34 -4q-29 -11 -49.5 -38t-28.5 -66t0.5 -66t33.5 -37q16 -6 34 -6q15 0 33 5t37 21z" />
    <glyph glyph-name="ordfeminine" unicode="&#xaa;" horiz-adv-x="284" 
d="M240 187q1 10 3 15q1 3 1 4q-32 -25 -73 -25q-28 0 -46 11t-27.5 28t-11.5 39t3 44t16 44.5t28 40t39.5 28.5t50.5 11q39 0 62 -25q0 2 1 6q1 3 1.5 7.5t2.5 11.5h44l-42 -199l-7 -41h-45zM256 291q5 14 5.5 29.5t-4.5 28t-16 20.5t-28 8t-30 -7.5t-23 -18.5t-16 -24
t-8 -24q-2 -9 -2 -21.5t4.5 -24t14.5 -19.5t28 -8q26 0 46.5 19t28.5 42z" />
    <glyph glyph-name="guillemotleft" unicode="&#xab;" horiz-adv-x="400" 
d="M72 178l124 147h82l-129 -147l66 -148h-82zM219 178l124 147h82l-129 -147l66 -148h-82z" />
    <glyph glyph-name="logicalnot" unicode="&#xac;" horiz-adv-x="458" 
d="M386 82l29 137h-341l13 59h400l-42 -196h-59z" />
    <glyph glyph-name="registered" unicode="&#xae;" horiz-adv-x="538" 
d="M556 234q-11 -51 -39.5 -96.5t-68 -79.5t-87.5 -53.5t-97 -19.5q-51 0 -90 20.5t-64 54.5t-34 79t2 95q10 49 38.5 94.5t68 79.5t87.5 54.5t98 20.5t89.5 -20.5t64.5 -54.5t33.5 -79.5t-1.5 -94.5zM511 234q9 40 1.5 77t-27.5 65t-52 44.5t-73 16.5q-40 0 -78.5 -16
t-71 -43.5t-55.5 -64.5t-32 -79q-9 -40 -1.5 -77t28 -65t52 -44.5t72.5 -16.5q40 0 79 16.5t71.5 44.5t55 65t31.5 77zM393 291q5 25 -15 36t-57 11h-15t-10 -1l-22 -102h25q40 0 64 12.5t30 43.5zM255 336q2 10 -4.5 15t-3.5 15q4 5 11.5 12t15.5 5q3 0 9 -4h46q23 0 44 -5
t36 -15.5t22 -27t2 -40.5q-8 -40 -32.5 -60t-50.5 -28l50 -111l-43 -6l-47 109h-43l-22 -104h-42z" />
    <glyph glyph-name="macron" unicode="&#xaf;" horiz-adv-x="216" 
d="M113 400l11 54h159l-11 -54h-159z" />
    <glyph glyph-name="degree" unicode="&#xb0;" horiz-adv-x="238" 
d="M227 500q37 0 57.5 -25.5t12.5 -62.5q-4 -18 -14.5 -34t-25 -28t-32.5 -19t-36 -7q-37 0 -57 25.5t-12 62.5q4 18 14 34t24.5 28t32.5 19t36 7zM198 364q20 0 37 14t21 34q5 20 -6.5 34t-31.5 14t-36.5 -14t-21.5 -34q-3 -20 7.5 -34t30.5 -14z" />
    <glyph glyph-name="plusminus" unicode="&#xb1;" horiz-adv-x="429" 
d="M72 60h308l-12 -60h-308zM202 95l26 123h-109l13 64h110q2 11 6 28q3 14 7.5 37t12.5 57h63l-26 -122h110l-13 -64h-110l-26 -123h-64z" />
    <glyph glyph-name="twosuperior" unicode="&#xb2;" horiz-adv-x="292" 
d="M268 190h-178q-10 0 -9 7.5t3 17.5q2 8 8.5 13t13.5 8q10 11 25 25.5t38 31.5q36 26 56 42t29 26q11 11 13 18q8 14 3 30t-20 21q-13 4 -27 1t-24.5 -12t-16 -22t-1.5 -28l-51 -12q-5 28 6.5 53.5t33.5 43t50 24.5t55 -1q26 -8 38.5 -30.5t7.5 -54.5q-5 -26 -21.5 -46.5
t-38.5 -38t-46.5 -34t-43.5 -33.5h79l18 26l18 -10q8 -4 18 -11z" />
    <glyph glyph-name="threesuperior" unicode="&#xb3;" horiz-adv-x="304" 
d="M147 278q0 -18 7.5 -28t18 -14.5t22 -5t20.5 1.5q21 5 40 22t24 48q1 13 -4.5 22t-14 14t-19 5t-17.5 -6q-2 -2 -11.5 -8t-14.5 -7q-8 0 -17 7q-5 8 -8 13t6 13l82 69h-70l-21 -35l-6 3.5t-12.5 7.5t-12.5 7.5l-6 3.5l31 63h175q20 0 9 -21q-8 -17 -14 -21.5t-15 -6.5
l-46 -41q25 2 42.5 -19t12.5 -59q-4 -26 -15.5 -47t-27 -37t-34.5 -25.5t-37 -13.5q-21 -4 -42 -1t-37.5 13t-27 27t-10.5 42l6 2t14 4t16.5 4t13.5 4z" />
    <glyph glyph-name="acute" unicode="&#xb4;" horiz-adv-x="255" 
d="M249 490l93 1l-122 -105h-58z" />
    <glyph glyph-name="mu" unicode="&#xb5;" horiz-adv-x="405" 
d="M300 -14q-5 13 -7 21.5t-2 19.5q-23 -20 -51 -27.5t-51 -7.5t-39.5 5t-27.5 13l-39 -180h-61l111 519h61l-49 -227q-7 -34 10 -55t52 -21q19 0 36.5 8.5t31.5 22.5t23.5 31.5t13.5 35.5l44 205h61l-57 -267q-7 -30 -6 -44.5t5 -31.5z" />
    <glyph glyph-name="paragraph" unicode="&#xb6;" horiz-adv-x="499" 
d="M229 209q-22 0 -45 8.5t-40.5 25.5t-26 43t-0.5 62t25.5 62.5t41 44t51 26.5t54.5 9h254l-14 -63h-50l-120 -568l-62 1l120 567h-60l-120 -566h-60l74 348h-22z" />
    <glyph glyph-name="periodcentered" unicode="&#xb7;" horiz-adv-x="230" 
d="M230 236q-6 -27 -29 -45.5t-50 -18.5q-26 0 -41.5 18.5t-9.5 45.5q5 27 28.5 46t49.5 19q27 0 42 -19t10 -46z" />
    <glyph glyph-name="cedilla" unicode="&#xb8;" horiz-adv-x="216" 
d="M165 -87q-9 -23 -29.5 -37t-45 -19t-49.5 -2.5t-43 11.5l26 38q6 -6 18 -9t25 -2.5t23.5 6t14.5 16.5q3 8 -1 14t-12.5 9t-20 4.5t-24.5 0.5l53 61h45l-35 -36q35 5 50 -12.5t5 -42.5z" />
    <glyph glyph-name="onesuperior" unicode="&#xb9;" horiz-adv-x="262" 
d="M214 189h-50l45 214l-48 -28l-10 20q-2 4 -3 7.5t-3 6.5l-3 6l16.5 9.5t36 21.5t36.5 22l17 10q10 6 16 3t11 -11t2.5 -18.5t-11.5 -17.5z" />
    <glyph glyph-name="ordmasculine" unicode="&#xba;" horiz-adv-x="252" 
d="M312 308q-7 -32 -23.5 -55t-37.5 -37.5t-44 -21.5t-43 -7q-52 0 -79 33t-16 84q6 28 21 51t35.5 38.5t43.5 24t46 8.5q28 0 49 -9.5t33.5 -25.5t16 -37.5t-1.5 -45.5zM262 306q3 12 1.5 25t-8 23.5t-18.5 17.5t-31 7q-35 0 -57.5 -23t-28.5 -51q-4 -18 -0.5 -31.5t12 -22
t20 -13t23.5 -4.5q27 0 53 17.5t34 54.5z" />
    <glyph glyph-name="guillemotright" unicode="&#xbb;" horiz-adv-x="400" 
d="M275 30h-82l128 148l-65 147h82l60 -147zM128 30h-82l128 148l-65 147h82l60 -147z" />
    <glyph glyph-name="onequarter" unicode="&#xbc;" horiz-adv-x="631" 
d="M187 -6h-54l393 485h55zM214 189h-50l45 214l-48 -28l-10 20q-2 4 -3 7.5t-3 6.5l-3 6l16.5 9.5t36 21.5t36.5 22l17 10q10 6 16 3t11 -11t2.5 -18.5t-11.5 -17.5zM596 65l11 49h-49l30 144q5 6 7 7.5t2 8.5q0 -2 -2 2t-4.5 9.5t-5.5 10t-7 4.5q-8 1 -15 -7l1 1
l-199 -191v-1q-9 -11 -4.5 -23.5t15.5 -13.5h122l-13 -65h49l13 65h49zM528 200l-19 -86h-69z" />
    <glyph glyph-name="onehalf" unicode="&#xbd;" horiz-adv-x="618" 
d="M539 0h-178q-10 0 -9 7.5t3 17.5q2 8 8 13t13 8q10 11 25 25.5t38 31.5q37 26 56.5 42t29.5 26q11 11 13 18q8 14 3 30t-20 21q-13 4 -27 1t-24.5 -12t-16 -22t-1.5 -28l-51 -12q-5 28 6.5 53.5t33 43t49.5 24.5t56 -1q25 -8 38 -30.5t7 -54.5q-4 -26 -20.5 -46.5
t-38.5 -38t-46.5 -34t-44.5 -33.5h79l19 26q2 -1 5 -3q2 -2 5 -3.5l7 -3.5q8 -4 18 -11zM214 189h-50l45 214l-48 -28l-10 20q-2 4 -3 7.5t-3 6.5l-3 6l16.5 9.5t36 21.5t36.5 22l17 10q10 6 16 3t11 -11t2.5 -18.5t-11.5 -17.5zM166 -6h-54l393 485h55z" />
    <glyph glyph-name="threequarters" unicode="&#xbe;" horiz-adv-x="628" 
d="M596 65l11 49h-49l30 144q5 6 7 7.5t2 8.5q0 -2 -2 2t-4.5 9.5t-5.5 10t-7 4.5q-8 1 -15 -7l1 1l-199 -191v-1q-9 -11 -4.5 -23.5t15.5 -13.5h122l-13 -65h49l13 65h49zM528 200l-19 -86h-69zM147 278q0 -18 7.5 -28t18 -14.5t22 -5t20.5 1.5q21 5 40 22t24 48
q1 13 -4.5 22t-14 14t-19 5t-17.5 -6q-2 -2 -11.5 -8t-14.5 -7q-8 0 -17 7q-5 8 -8 13t6 13l82 69h-70l-21 -35l-6 3.5t-12.5 7.5t-12.5 7.5l-6 3.5l31 63h175q20 0 9 -21q-8 -17 -14 -21.5t-15 -6.5l-46 -41q25 2 42.5 -19t12.5 -59q-4 -26 -15.5 -47t-27 -37t-34.5 -25.5
t-37 -13.5q-21 -4 -42 -1t-37.5 13t-27 27t-10.5 42l6 2t14 4t16.5 4t13.5 4zM218 -6h-54l393 485h55z" />
    <glyph glyph-name="questiondown" unicode="&#xbf;" horiz-adv-x="399" 
d="M75 -97q-14 25 -12.5 50t13 48.5t29 44.5t36.5 38q28 26 50 50.5t29 56.5l9 42h70l-9 -42q-9 -43 -37.5 -74.5t-57.5 -58.5q-38 -34 -54 -59.5t-6 -54.5q11 -33 64 -29q22 2 48.5 19t39.5 40l40 -30q-20 -34 -51.5 -56.5t-71.5 -27.5q-41 -6 -77 4t-52 39zM233 298
q4 20 19 32t35 12t30 -12t6 -32q-5 -20 -20 -33t-35 -13t-30 13t-5 33z" />
    <glyph glyph-name="Acircumflex" unicode="&#xc2;" horiz-adv-x="447" 
d="M438 0l-70 -12l-24 136h-193l-80 -136l-65 12l278 455q4 6 14 17.5t22 17.5q6 3 13 2t14 -4t12 -7t7 -7q7 -9 0 -18t-10 -13zM301 377l-113 -191h145zM347 585q-20 -17 -38 -32.5t-36 -31.5h-70q13 12 32.5 29t37.5 32.5t30 26.5l12 11h78q17 -24 34 -49t35 -50h-69z" />
    <glyph glyph-name="Adieresis" unicode="&#xc4;" horiz-adv-x="447" 
d="M438 0l-70 -12l-24 136h-193l-80 -136l-65 12l278 455q4 6 14 17.5t22 17.5q6 3 13 2t14 -4t12 -7t7 -7q7 -9 0 -18t-10 -13zM301 377l-113 -191h145zM284 623q18 0 28.5 -13.5t6.5 -30.5q-5 -19 -20.5 -32t-33.5 -13q-19 0 -28.5 13.5t-5.5 31.5q4 17 19.5 30.5
t33.5 13.5zM448 610q10 -15 7 -31q-5 -19 -20.5 -32t-33.5 -13q-19 0 -29.5 13t-5.5 32q4 18 20 31t34 13q17 0 28 -13z" />
    <glyph glyph-name="Aring" unicode="&#xc5;" horiz-adv-x="458" 
d="M348 569q15 0 27.5 10.5t15.5 24.5t-5 24.5t-23 10.5q-14 0 -26.5 -10.5t-15.5 -24.5q-2 -14 5.5 -24.5t21.5 -10.5zM373 683q34 0 52.5 -23t11.5 -57q-8 -34 -36 -57t-62 -23t-52.5 23t-10.5 57q7 34 35 57t62 23zM445 0l-70 -12l-24 136h-193l-80 -136l-65 12l278 455
q4 6 14 17.5t22 17.5q6 3 13 2t14 -4t12 -7t7 -7q7 -9 0 -18t-10 -13zM308 377l-113 -191h145z" />
    <glyph glyph-name="AE" unicode="&#xc6;" horiz-adv-x="649" 
d="M466 214q-9 -42 -17 -80t-14 -66h197l-14 -67h-217q-20 0 -32.5 14.5t-7.5 34.5q2 11 5.5 24t5.5 24q3 12 5 25h-163l-117 -136l-61 31l362 420q33 40 80 40h242l-15 -68h-198q-5 -22 -12.5 -56t-15.5 -73h178l-13 -67h-178zM263 185h127q6 29 12.5 59t12.5 58t11.5 52
t8.5 41z" />
    <glyph glyph-name="Ccedilla" unicode="&#xc7;" horiz-adv-x="434" 
d="M416 52q-30 -26 -64.5 -39.5t-67.5 -17.5t-62 -1t-48 11q-18 7 -38.5 22t-35.5 42t-20 68.5t7 100.5q13 59 35.5 100t49 68t53 42t47.5 22q27 9 56.5 11.5t57.5 -2t52.5 -16.5t41.5 -32l-5 -8q-4 -6 -12.5 -18.5t-24.5 -35.5q-23 25 -50 34t-50 9q-27 0 -55 -8
q-46 -15 -79 -59t-47 -107t1 -107t55 -60q27 -9 55 -10q24 -1 54 7t60 34l34 -50v0zM300 -87q-9 -23 -29.5 -37t-45 -19t-49.5 -2.5t-43 11.5l26 38q6 -6 18 -9t25 -2.5t23.5 6t14.5 16.5q3 8 -1 14t-12.5 9t-20 4.5t-24.5 0.5l53 61h45l-35 -36q35 5 50 -12.5t5 -42.5z" />
    <glyph glyph-name="Ecircumflex" unicode="&#xca;" horiz-adv-x="368" 
d="M137 394q2 9 -2.5 16t-9 13t-7.5 12t2 13q3 5 9.5 12t13.5 13t14.5 9.5t13.5 0.5q3 -2 6 -3.5l7 -3.5h238l-15 -68h-199l-27 -127h178l-14 -68h-178l-31 -146h198l-14 -67h-266zM312 585q-20 -17 -38 -32.5t-36 -31.5h-70q13 12 32.5 29t37.5 32.5t30 26.5l12 11h78
q17 -24 34 -49t35 -50h-69z" />
    <glyph glyph-name="Edieresis" unicode="&#xcb;" horiz-adv-x="368" 
d="M137 394q2 9 -2.5 16t-9 13t-7.5 12t2 13q3 5 9.5 12t13.5 13t14.5 9.5t13.5 0.5q3 -2 6 -3.5l7 -3.5h238l-15 -68h-199l-27 -127h178l-14 -68h-178l-31 -146h198l-14 -67h-266zM247 614q18 0 28.5 -13.5t6.5 -30.5q-5 -19 -20.5 -32t-33.5 -13q-19 0 -28.5 13.5
t-5.5 31.5q4 17 19.5 30.5t33.5 13.5zM411 601q10 -15 7 -31q-5 -19 -20.5 -32t-33.5 -13q-19 0 -29.5 13t-5.5 32q4 18 20 31t34 13q17 0 28 -13z" />
    <glyph glyph-name="Icircumflex" unicode="&#xce;" horiz-adv-x="183" 
d="M59 0l101 477h66l-101 -477h-66zM218 585q-20 -17 -38 -32.5t-36 -31.5h-70q13 12 32.5 29t37.5 32.5t30 26.5l12 11h78q17 -24 34 -49t35 -50h-69z" />
    <glyph glyph-name="Idieresis" unicode="&#xcf;" horiz-adv-x="181" 
d="M59 0l101 477h66l-101 -477h-66zM147 623q18 0 28.5 -13.5t6.5 -30.5q-5 -19 -20.5 -32t-33.5 -13q-19 0 -28.5 13.5t-5.5 31.5q4 17 19.5 30.5t33.5 13.5zM311 610q10 -15 7 -31q-5 -19 -20.5 -32t-33.5 -13q-19 0 -29.5 13t-5.5 32q4 18 20 31t34 13q17 0 28 -13z" />
    <glyph glyph-name="Eth" unicode="&#xd0;" horiz-adv-x="522" 
d="M56 267h63l27 127q2 9 -2.5 16t-9 13t-7.5 12t2 13q3 5 9.5 12t13.5 13t14.5 9.5t13.5 0.5l6 -4l6 -4h109q111 0 153 -63t19 -174q-24 -115 -94 -176.5t-178 -61.5h-138l46 217h-63zM403 238q36 170 -131 170h-56l-30 -141h99l-10 -50h-99l-32 -149h79q78 0 120.5 45.5
t59.5 124.5z" />
    <glyph glyph-name="Ntilde" unicode="&#xd1;" horiz-adv-x="474" 
d="M223 450q17 -35 43 -87.5t49 -102.5q27 -58 56 -120l71 335h67l-100 -475h-55l-154 322l-68 -322h-67l84 399q2 9 -1.5 16l-7 14t-6 13.5t2.5 12.5q8 11 24.5 21t29.5 8q11 -2 19 -11t13 -23zM228 533q5 27 18 48.5t31 33t40 12t46 -14.5q24 -13 39.5 -16.5t25 -0.5
t14.5 11t7 19h54q-3 -19 -13 -39t-26.5 -34t-39 -18t-50.5 9q-29 18 -46.5 21t-26.5 -2t-12.5 -14t-5.5 -15h-55z" />
    <glyph glyph-name="Ocircumflex" unicode="&#xd4;" horiz-adv-x="463" 
d="M476 239q-12 -57 -35 -103t-55 -78.5t-71 -49.5t-84 -17q-51 0 -83.5 20.5t-49 55t-18 79.5t8.5 93q10 45 30 89t50.5 79t72 57t94.5 22q50 0 82 -21t48.5 -55.5t18 -79t-8.5 -91.5zM408 239q6 28 6.5 60t-8.5 59t-29 44.5t-55 17.5t-62.5 -16t-48 -42t-34.5 -58t-21 -65
q-6 -29 -6.5 -61t9 -59t30 -44.5t56.5 -17.5q34 0 61.5 17t48 43.5t34 58.5t19.5 63zM355 587q-20 -17 -38 -32.5t-36 -31.5h-70q13 12 32.5 29t37.5 32.5t30 26.5l12 11h78q17 -24 34 -49t35 -50h-69z" />
    <glyph glyph-name="Odieresis" unicode="&#xd6;" horiz-adv-x="464" 
d="M476 239q-12 -57 -35 -103t-55 -78.5t-71 -49.5t-84 -17q-51 0 -83.5 20.5t-49 55t-18 79.5t8.5 93q10 45 30 89t50.5 79t72 57t94.5 22q50 0 82 -21t48.5 -55.5t18 -79t-8.5 -91.5zM408 239q6 28 6.5 60t-8.5 59t-29 44.5t-55 17.5t-62.5 -16t-48 -42t-34.5 -58t-21 -65
q-6 -29 -6.5 -61t9 -59t30 -44.5t56.5 -17.5q34 0 61.5 17t48 43.5t34 58.5t19.5 63zM296 623q18 0 28.5 -13.5t6.5 -30.5q-5 -19 -20.5 -32t-33.5 -13q-19 0 -28.5 13.5t-5.5 31.5q4 17 19.5 30.5t33.5 13.5zM460 610q10 -15 7 -31q-5 -19 -20.5 -32t-33.5 -13
q-19 0 -29.5 13t-5.5 32q4 18 20 31t34 13q17 0 28 -13z" />
    <glyph glyph-name="multiply" unicode="&#xd7;" horiz-adv-x="429" 
d="M341 8l-94 127q-26 -22 -40 -33.5t-22 -18.5t-13 -11.5t-13 -11.5t-22 -19t-40 -34l-35 40l150 127l-96 127l52 40l95 -128l146 126l34 -40l-148 -125l98 -126z" />
    <glyph glyph-name="Oslash" unicode="&#xd8;" horiz-adv-x="489" 
d="M549 505l-74 -88q35 -65 12 -176q-12 -57 -35.5 -102.5t-55.5 -78t-71 -49.5t-84 -17q-61 0 -97 30l-70 -82l-36 26l76 91q-19 32 -23 78t9 104q10 51 31 95.5t52 78t71.5 53t91.5 19.5q61 0 101 -34l65 78zM168 241q-15 -71 0 -119l230 273q-23 26 -66 26
q-35 0 -62.5 -16t-47.5 -41.5t-33.5 -57.5t-20.5 -65zM419 241q13 64 1 111l-228 -270q23 -22 63 -22q34 0 61.5 15t47.5 40.5t33.5 58t21.5 67.5z" />
    <glyph glyph-name="Ucircumflex" unicode="&#xdb;" horiz-adv-x="498" 
d="M462 158q-9 -40 -29.5 -71t-49 -52t-63.5 -32t-73 -11q-40 0 -71.5 10t-52 30.5t-27.5 52t2 73.5l68 319h66l-69 -326q-11 -51 17.5 -74.5t79.5 -23.5t87.5 23.5t47.5 74.5l69 326h66l-68 -319v0zM376 588q-20 -17 -38 -32.5t-36 -31.5h-70q13 12 32.5 29t37.5 32.5
t30 26.5l12 11h78q17 -24 34 -49t35 -50h-69z" />
    <glyph glyph-name="Udieresis" unicode="&#xdc;" horiz-adv-x="498" 
d="M462 158q-9 -40 -29.5 -71t-49 -52t-63.5 -32t-73 -11q-40 0 -71.5 10t-52 30.5t-27.5 52t2 73.5l68 319h66l-69 -326q-11 -51 17.5 -74.5t79.5 -23.5t87.5 23.5t47.5 74.5l69 326h66l-68 -319v0zM314 623q18 0 28.5 -13.5t6.5 -30.5q-5 -19 -20.5 -32t-33.5 -13
q-19 0 -28.5 13.5t-5.5 31.5q4 17 19.5 30.5t33.5 13.5zM478 610q10 -15 7 -31q-5 -19 -20.5 -32t-33.5 -13q-19 0 -29.5 13t-5.5 32q4 18 20 31t34 13q17 0 28 -13z" />
    <glyph glyph-name="Thorn" unicode="&#xde;" horiz-adv-x="487" 
d="M488 250q-11 -50 -35 -85t-60 -57.5t-82.5 -33t-100.5 -10.5h-63l-31 -148h-72l131 620h72l-24 -114h86q46 1 83 -9t61.5 -31.5t34 -54t0.5 -77.5zM413 247q6 29 -0.5 49.5t-22.5 34t-39 19.5t-50 6h-92l-46 -216h75q74 0 118.5 25t56.5 82z" />
    <glyph glyph-name="uni00DF" unicode="&#xdf;" horiz-adv-x="461" 
d="M184 -4l13 65h43q23 0 46 7.5t42.5 22t33 33.5t17.5 42q4 22 -0.5 40.5t-16.5 32t-29.5 21.5t-38.5 8h-54l15 65h57q22 3 35 15t15.5 27t-5 29t-24.5 19q-18 6 -39 3.5t-39.5 -13t-33 -28t-19.5 -42.5q-28 -131 -50 -235l-50 -236q0 -1 -11 -1.5t-23.5 -0.5t-23.5 0.5
l-11 0.5l101 477q14 63 59 98.5t108 35.5q60 3 94 -16.5t44.5 -48.5t-2.5 -61.5t-47 -55.5q18 -7 28.5 -17.5t18.5 -26.5q19 -41 7 -93q-7 -35 -27.5 -65.5t-49 -53t-63 -35.5t-70.5 -13h-50z" />
    <glyph glyph-name="acircumflex" unicode="&#xe2;" horiz-adv-x="412" 
d="M320 156q2 12 3.5 19t2.5 11l1 5q1 18 -1.5 36t-11 32.5t-24 24t-38.5 9.5q-26 0 -46.5 -12t-35.5 -30t-24.5 -39t-13.5 -39q-3 -15 -3 -36t6.5 -39.5t22 -31.5t43.5 -13q22 0 41.5 9t34.5 23.5t26 33t17 37.5zM297 29q-24 -19 -51.5 -27t-57.5 -8q-40 0 -65.5 16
t-39.5 41.5t-16.5 57.5t4.5 64q7 33 23.5 65t41 57.5t57 41.5t72.5 16q29 0 51.5 -11.5t37.5 -29.5q1 4 2 9q1 7 6 28h63l-57 -267q-7 -30 -6 -44.5t5 -31.5l-62 -20q-5 13 -7 22.5t-1 20.5zM292 461q-20 -17 -38 -32.5t-36 -31.5h-70q13 12 32.5 29t37.5 32.5t30 26.5
l12 11h78q17 -24 34 -49t35 -50h-69z" />
    <glyph glyph-name="adieresis" unicode="&#xe4;" horiz-adv-x="412" 
d="M320 156q2 12 3.5 19t2.5 11l1 5q1 18 -1.5 36t-11 32.5t-24 24t-38.5 9.5q-26 0 -46.5 -12t-35.5 -30t-24.5 -39t-13.5 -39q-3 -15 -3 -36t6.5 -39.5t22 -31.5t43.5 -13q22 0 41.5 9t34.5 23.5t26 33t17 37.5zM297 29q-24 -19 -51.5 -27t-57.5 -8q-40 0 -65.5 16
t-39.5 41.5t-16.5 57.5t4.5 64q7 33 23.5 65t41 57.5t57 41.5t72.5 16q29 0 51.5 -11.5t37.5 -29.5q1 4 2 9q1 7 6 28h63l-57 -267q-7 -30 -6 -44.5t5 -31.5l-62 -20q-5 13 -7 22.5t-1 20.5zM216 487q18 0 28.5 -13.5t6.5 -30.5q-5 -19 -20.5 -32t-33.5 -13
q-19 0 -28.5 13.5t-5.5 31.5q4 17 19.5 30.5t33.5 13.5zM380 474q10 -15 7 -31q-5 -19 -20.5 -32t-33.5 -13q-19 0 -29.5 13t-5.5 32q4 18 20 31t34 13q17 0 28 -13z" />
    <glyph glyph-name="aring" unicode="&#xe5;" horiz-adv-x="412" 
d="M320 156q2 12 3.5 19t2.5 11l1 5q1 18 -1.5 36t-11 32.5t-24 24t-38.5 9.5q-26 0 -46.5 -12t-35.5 -30t-24.5 -39t-13.5 -39q-3 -15 -3 -36t6.5 -39.5t22 -31.5t43.5 -13q22 0 41.5 9t34.5 23.5t26 33t17 37.5zM297 29q-24 -19 -51.5 -27t-57.5 -8q-40 0 -65.5 16
t-39.5 41.5t-16.5 57.5t4.5 64q7 33 23.5 65t41 57.5t57 41.5t72.5 16q29 0 51.5 -11.5t37.5 -29.5q1 4 2 9q1 7 6 28h63l-57 -267q-7 -30 -6 -44.5t5 -31.5l-62 -20q-5 13 -7 22.5t-1 20.5zM220 456q6 29 29.5 48.5t52.5 19.5t44 -19.5t9 -48.5t-29.5 -48t-52.5 -19t-44 19
t-9 48zM258 456q-2 -12 4.5 -20.5t18.5 -8.5q13 0 23.5 8.5t12.5 20.5q3 13 -3.5 21.5t-19.5 8.5q-12 0 -22.5 -8.5t-13.5 -21.5z" />
    <glyph glyph-name="ae" unicode="&#xe6;" horiz-adv-x="661" 
d="M536 359q42 0 70 -15t42.5 -39t17.5 -54.5t-4 -61.5q-2 -8 -6 -16t-13 -14q-10 -7 -31 -7h-222q-7 -35 5 -57t36.5 -31t57.5 -4t67 25l28 -52q-20 -14 -49.5 -24t-61 -13t-62 3t-53.5 24q0 -3 -1 -7q-2 -8 -2 -14h-68l7 37q-25 -23 -53 -35t-60 -12q-36 0 -61 15
t-39 40.5t-17 58t4 67.5t25 68t43 58t56 40t66 15q63 0 92 -45l11 49h66l-8 -38q25 18 54.5 28.5t62.5 10.5zM263 78q25 19 39 46t19 49q4 18 3 38.5t-8.5 38t-23.5 29t-43 11.5q-26 0 -47 -11.5t-36 -29t-24.5 -38t-13.5 -38.5q-4 -20 -2.5 -40.5t10 -37t24.5 -27.5t40 -11
q34 0 63 21zM402 213h198q5 34 -15.5 59t-62.5 25q-26 0 -46 -8.5t-35 -21.5t-25 -27.5t-14 -26.5z" />
    <glyph glyph-name="ccedilla" unicode="&#xe7;" horiz-adv-x="330" 
d="M302 33q-42 -32 -90 -39t-85.5 10.5t-57 60t-4.5 110.5q14 67 50.5 110t80.5 60.5t88.5 9.5t75.5 -42l-41 -60q-18 32 -47.5 40t-53.5 0q-35 -12 -59 -43t-33 -75q-10 -45 1.5 -75.5t40.5 -41.5q19 -8 51.5 -4t63.5 34l30 -46zM228 -87q-9 -23 -29.5 -37t-45 -19
t-49.5 -2.5t-43 11.5l26 38q6 -6 18 -9t25 -2.5t23.5 6t14.5 16.5q3 8 -1 14t-12.5 9t-20 4.5t-24.5 0.5l53 61h45l-35 -36q35 5 50 -12.5t5 -42.5z" />
    <glyph glyph-name="ecircumflex" unicode="&#xea;" horiz-adv-x="387" 
d="M396 180q-5 -19 -16 -26.5t-31 -7.5h-217q-4 -35 10.5 -57.5t35.5 -31.5q25 -11 54 -5.5t70 28.5l28 -47q-16 -12 -40.5 -22t-52.5 -14t-55.5 -2t-49.5 14q-42 22 -58.5 64.5t-4.5 99.5q6 27 22 58.5t41.5 58.5t61.5 45t82 18q65 0 97 -39q12 -15 18.5 -33t8 -36t0.5 -34
t-4 -28v-3zM336 205q8 37 -12.5 64.5t-61.5 27.5q-26 0 -45.5 -9.5t-33.5 -24t-23.5 -30.5t-13.5 -28h190zM301 464q-20 -17 -38 -32.5t-36 -31.5h-70q13 12 32.5 29t37.5 32.5t30 26.5l12 11h78q17 -24 34 -49t35 -50h-69z" />
    <glyph glyph-name="edieresis" unicode="&#xeb;" horiz-adv-x="387" 
d="M396 180q-5 -19 -16 -26.5t-31 -7.5h-217q-4 -35 10.5 -57.5t35.5 -31.5q25 -11 54 -5.5t70 28.5l28 -47q-16 -12 -40.5 -22t-52.5 -14t-55.5 -2t-49.5 14q-42 22 -58.5 64.5t-4.5 99.5q6 27 22 58.5t41.5 58.5t61.5 45t82 18q65 0 97 -39q12 -15 18.5 -33t8 -36t0.5 -34
t-4 -28v-3zM336 205q8 37 -12.5 64.5t-61.5 27.5q-26 0 -45.5 -9.5t-33.5 -24t-23.5 -30.5t-13.5 -28h190zM231 487q18 0 28.5 -13.5t6.5 -30.5q-5 -19 -20.5 -32t-33.5 -13q-19 0 -28.5 13.5t-5.5 31.5q4 17 19.5 30.5t33.5 13.5zM395 474q10 -15 7 -31q-5 -19 -20.5 -32
t-33.5 -13q-19 0 -29.5 13t-5.5 32q4 18 20 31t34 13q17 0 28 -13z" />
    <glyph glyph-name="icircumflex" unicode="&#xee;" horiz-adv-x="181" 
d="M62 0l74 349h60l-74 -349h-60zM193 464q-20 -17 -38 -32.5t-36 -31.5h-70q13 12 32.5 29t37.5 32.5t30 26.5l12 11h78q17 -24 34 -49t35 -50h-69z" />
    <glyph glyph-name="idieresis" unicode="&#xef;" horiz-adv-x="180" 
d="M62 0l74 349h60l-74 -349h-60zM130 487q18 0 28.5 -13.5t6.5 -30.5q-5 -19 -20.5 -32t-33.5 -13q-19 0 -28.5 13.5t-5.5 31.5q4 17 19.5 30.5t33.5 13.5zM294 474q10 -15 7 -31q-5 -19 -20.5 -32t-33.5 -13q-19 0 -29.5 13t-5.5 32q4 18 20 31t34 13q17 0 28 -13z" />
    <glyph glyph-name="eth" unicode="&#xf0;" horiz-adv-x="416" 
d="M220 553q11 -4 25 -11t29 -16t29 -18t24 -17q11 5 28.5 12.5t33.5 13.5q18 7 38 14l6 -24l6 -24q-22 -9 -39.5 -15t-38.5 -15q50 -52 69 -120t1 -151q-8 -40 -29 -78.5t-59 -67.5t-84 -40t-87.5 -4t-73 32t-40.5 69q-9 43 0.5 84t32 75.5t55 59.5t70.5 37.5t78 9.5
t78 -25q-12 29 -29 51t-40 41q-29 -12 -65 -28t-65 -27q-2 8 -4.5 23.5t-4.5 23.5l105 45q-19 12 -42 24.5t-44 20.5q6 8 18.5 22.5t18.5 22.5zM368 177q10 44 -4 74t-42.5 43.5t-65.5 10t-73 -27.5q-29 -19 -44.5 -48t-21.5 -60q-8 -41 7 -72t43.5 -46t65 -12t70.5 29
q28 22 42.5 50t22.5 59z" />
    <glyph glyph-name="ntilde" unicode="&#xf1;" horiz-adv-x="401" 
d="M113 260q6 30 5.5 44.5t-4.5 31.5l62 20q5 -13 6 -21t1 -19q20 17 46 27.5t53 10.5q38 0 59.5 -13.5t31.5 -33.5t11 -43t-3 -41l-33 -156q-1 -3 -1.5 -10t-0.5 -16t1.5 -17.5t4.5 -14.5l-63 -21q-4 13 -6 30.5t5 48.5l33 157q7 33 -9 52.5t-50 19.5q-20 0 -36.5 -8
t-29.5 -21.5t-21.5 -30t-12.5 -34.5l-42 -202h-62zM156 406q5 27 18 48.5t31 33t40 12t46 -14.5q24 -13 39.5 -16.5t25 -0.5t14.5 11t7 19h54q-3 -19 -13 -39t-26.5 -34t-39 -18t-50.5 9q-29 18 -46.5 21t-26.5 -2t-12.5 -14t-5.5 -15h-55z" />
    <glyph glyph-name="ocircumflex" unicode="&#xf4;" horiz-adv-x="389" 
d="M381 174q-7 -33 -23.5 -65t-41 -57t-57 -40.5t-70.5 -15.5q-40 0 -66 15.5t-40 41t-16.5 57.5t4.5 64t23 64t40.5 57.5t57 41t72.5 15.5t66 -15.5t39.5 -41t16 -57.5t-4.5 -64zM319 174q4 19 3.5 40.5t-8 40t-22.5 30.5t-39 12q-23 0 -43 -11t-35.5 -28.5t-26.5 -39.5
t-16 -44t-3.5 -44t10 -39.5t23.5 -28.5t38 -11q22 0 42 11t35.5 28.5t26 39.5t15.5 44zM288 458q-20 -17 -38 -32.5t-36 -31.5h-70q13 12 32.5 29t37.5 32.5t30 26.5l12 11h78q17 -24 34 -49t35 -50h-69z" />
    <glyph glyph-name="odieresis" unicode="&#xf6;" horiz-adv-x="389" 
d="M381 174q-7 -33 -23.5 -65t-41 -57t-57 -40.5t-70.5 -15.5q-40 0 -66 15.5t-40 41t-16.5 57.5t4.5 64t23 64t40.5 57.5t57 41t72.5 15.5t66 -15.5t39.5 -41t16 -57.5t-4.5 -64zM319 174q4 19 3.5 40.5t-8 40t-22.5 30.5t-39 12q-23 0 -43 -11t-35.5 -28.5t-26.5 -39.5
t-16 -44t-3.5 -44t10 -39.5t23.5 -28.5t38 -11q22 0 42 11t35.5 28.5t26 39.5t15.5 44zM227 488q18 0 28.5 -13.5t6.5 -30.5q-5 -19 -20.5 -32t-33.5 -13q-19 0 -28.5 13.5t-5.5 31.5q4 17 19.5 30.5t33.5 13.5zM391 475q10 -15 7 -31q-5 -19 -20.5 -32t-33.5 -13
q-19 0 -29.5 13t-5.5 32q4 18 20 31t34 13q17 0 28 -13z" />
    <glyph glyph-name="divide" unicode="&#xf7;" horiz-adv-x="500" 
d="M356 299q-4 -19 -22 -34.5t-38 -15.5q-21 0 -32.5 14.5t-6.5 35.5t22.5 36t38.5 15q20 0 31.5 -15.5t6.5 -35.5zM304 52q-5 -19 -22.5 -35t-37.5 -16q-21 0 -32.5 15t-6.5 36t22 35t38 14q20 0 31.5 -14.5t7.5 -34.5zM105 209h373l-15 -70h-373z" />
    <glyph glyph-name="oslash" unicode="&#xf8;" horiz-adv-x="416" 
d="M444 376l-62 -71q19 -28 22.5 -64.5t-3.5 -67.5q-8 -35 -30 -76.5t-62 -70.5q-47 -33 -102 -33q-48 0 -79 24l-62 -71l-30 24l67 77q-17 28 -19 62.5t4 63.5q6 27 21 58.5t39.5 58.5t58.5 45t77 18q44 0 71 -21l60 68zM145 173q-3 -17 -2.5 -36.5t8.5 -36.5l158 179
q-17 9 -39 9q-28 0 -49.5 -11.5t-37 -29t-25 -37.5t-13.5 -37zM345 173q5 19 3 40.5t-12 39.5l-161 -183q19 -12 46 -12q35 0 64 21q26 18 40.5 44.5t19.5 49.5z" />
    <glyph glyph-name="ucircumflex" unicode="&#xfb;" horiz-adv-x="405" 
d="M300 -14q-5 13 -7 21.5t-2 19.5q-23 -20 -51 -27.5t-51 -7.5q-39 0 -61.5 14t-33 34.5t-12 43t2.5 39.5l48 226h61l-49 -227q-7 -34 10 -55t52 -21q19 0 36.5 8.5t31.5 22.5t23.5 31.5t13.5 35.5l44 205h61l-57 -267q-7 -30 -5 -44.5t6 -31.5zM296 457q-20 -17 -38 -32.5
t-36 -31.5h-70q13 12 32.5 29t37.5 32.5t30 26.5l12 11h78q17 -24 34 -49t35 -50h-69z" />
    <glyph glyph-name="udieresis" unicode="&#xfc;" horiz-adv-x="405" 
d="M300 -14q-5 13 -7 21.5t-2 19.5q-23 -20 -51 -27.5t-51 -7.5q-39 0 -61.5 14t-33 34.5t-12 43t2.5 39.5l48 226h61l-49 -227q-7 -34 10 -55t52 -21q19 0 36.5 8.5t31.5 22.5t23.5 31.5t13.5 35.5l44 205h61l-57 -267q-7 -30 -5 -44.5t6 -31.5zM236 486q18 0 28.5 -13.5
t6.5 -30.5q-5 -19 -20.5 -32t-33.5 -13q-19 0 -28.5 13.5t-5.5 31.5q4 17 19.5 30.5t33.5 13.5zM400 473q10 -15 7 -31q-5 -19 -20.5 -32t-33.5 -13q-19 0 -29.5 13t-5.5 32q4 18 20 31t34 13q17 0 28 -13z" />
    <glyph glyph-name="thorn" unicode="&#xfe;" horiz-adv-x="489" 
d="M161 173q-6 -27 -1.5 -50.5t17 -41t32.5 -27.5t45 -10t49 10t44 27.5t34 41t20 50.5t1.5 50t-17.5 40.5t-32.5 27.5t-44.5 10t-49 -10t-44 -27.5t-34 -40.5t-20 -50zM167 497h72l-37 -173q27 19 57.5 29.5t62.5 10.5q38 0 68.5 -15t49.5 -41t26 -60.5t-2 -74.5
q-8 -40 -29.5 -74.5t-52 -60.5t-67 -41t-74.5 -15q-32 0 -58 10.5t-45 28.5l-38 -179h-72z" />
    <glyph glyph-name="ydieresis" unicode="&#xff;" horiz-adv-x="377" 
d="M181 -58q-14 -21 -28 -34.5t-31 -23.5q-20 -11 -39.5 -18t-47.5 -17l-8 52q31 11 50 19t32.5 19.5t25 30t28.5 50.5q-2 7 -10 43q-4 15 -9.5 38.5t-13 56.5t-17.5 77.5t-23 102.5l65 25q17 -85 28.5 -137t17.5 -81q7 -34 11 -50q9 17 30 51q18 29 50 81t83 136l50 -26z
M210 487q18 0 28.5 -13.5t6.5 -30.5q-5 -19 -20.5 -32t-33.5 -13q-19 0 -28.5 13.5t-5.5 31.5q4 17 19.5 30.5t33.5 13.5zM374 474q10 -15 7 -31q-5 -19 -20.5 -32t-33.5 -13q-19 0 -29.5 13t-5.5 32q4 18 20 31t34 13q17 0 28 -13z" />
    <glyph glyph-name="Lslash" unicode="&#x141;" horiz-adv-x="353" 
d="M44 208l70 42l48 227h68l-38 -180l88 54l-10 -47l-88 -54l-41 -189h214l-12 -61h-242q-6 -5 -15.5 -8.5t-12.5 -5.5q-8 -3 -14 0.5t-11 9.5t-8 13t-4 12q-2 7 3.5 13t13 12t14.5 13t9 16l28 128l-70 -42z" />
    <glyph glyph-name="lslash" unicode="&#x142;" horiz-adv-x="183" 
d="M47 223l70 42l44 208l31 23h35l-40 -188l78 47l-10 -46l-78 -47l-55 -262h-61l46 219l-70 -42z" />
    <glyph glyph-name="OE" unicode="&#x152;" horiz-adv-x="686" 
d="M722 409h-199l-27 -128h178l-13 -68h-179l-31 -145h198l-14 -67h-217q-19 0 -30 11.5t-9 30.5q-29 -24 -64 -38t-73 -14q-51 0 -83.5 20.5t-49 55t-18 79.5t8.5 93q10 45 30 89t50.5 79t72 57t94.5 22q40 0 68.5 -14t45.5 -37q8 20 24.5 31t35.5 11h216zM256 57
q32 0 58 15t45.5 38.5t33.5 53t22 58.5l7 35q4 27 3 56t-10.5 53t-29 39t-52.5 15q-35 0 -62.5 -16t-48 -42t-34.5 -58t-21 -65q-6 -29 -6.5 -61t9 -59t30 -44.5t56.5 -17.5z" />
    <glyph glyph-name="oe" unicode="&#x153;" horiz-adv-x="655" 
d="M534 354q42 0 70 -15t42.5 -39t17.5 -54.5t-4 -60.5q-5 -20 -17 -28.5t-33 -8.5h-222q-7 -35 5 -57t36.5 -31t57.5 -4t67 25l28 -52q-24 -20 -63.5 -30.5t-79 -8t-71.5 20t-42 53.5q-27 -32 -63 -51.5t-77 -19.5q-38 0 -64 16t-40.5 42t-18 58t3.5 64q6 27 21 58.5
t39.5 58t58 44.5t76.5 18q48 0 74.5 -21.5t38.5 -52.5q29 35 69.5 55.5t89.5 20.5zM264 78q19 14 33 35t25 54q4 19 3.5 40.5t-8 39.5t-24 29.5t-44.5 11.5t-49.5 -11.5t-37 -29t-25 -37.5t-13.5 -37q-5 -21 -2.5 -41.5t11.5 -37t25.5 -26.5t41.5 -10q35 0 64 20zM520 293
q-26 0 -46 -8.5t-35 -21.5t-25 -27.5t-14 -26.5h199q4 34 -16.5 59t-62.5 25z" />
    <glyph glyph-name="Scaron" unicode="&#x160;" horiz-adv-x="432" 
d="M404 118q-8 -29 -26 -54t-44.5 -43t-62 -28t-79.5 -8q-58 2 -89.5 21.5t-51.5 44.5l61 56q14 -17 34.5 -35t57.5 -21q17 -2 37 1t38 10t32.5 19t20.5 30q5 15 3 26.5t-13 23t-32.5 22.5t-56.5 25q-62 23 -88.5 56t-21.5 75q3 27 16.5 53.5t37.5 47t56.5 33t73.5 12.5
q17 0 36.5 -3t38.5 -10t35 -19t27 -29l-46 -56q-11 16 -37.5 32t-66.5 16q-23 0 -40 -6t-28.5 -14.5t-17.5 -17.5t-8 -15q-11 -29 4.5 -50t69.5 -41q29 -11 56.5 -24.5t47 -31.5t27.5 -42t-1 -56zM403 626h69q-29 -25 -56.5 -50t-54.5 -49h-78l-7.5 11t-19 26.5t-23.5 32.5
t-20 29h70q11 -16 22 -31t24 -32z" />
    <glyph glyph-name="scaron" unicode="&#x161;" horiz-adv-x="344" 
d="M330 97q-10 -48 -52 -75t-107 -28q-26 0 -45 3.5t-35 11t-29 17t-25 21.5l54 43q21 -23 43 -33t50 -9q34 1 56 12t27 30q2 10 0.5 17.5t-9.5 14t-24 13.5t-42 17q-105 37 -91 102q4 19 16 37.5t31 33t44.5 23.5t56.5 9q26 0 58.5 -11t52.5 -26l-39 -52q-14 11 -36 22
t-49 11q-28 0 -47 -11.5t-23 -30.5q-5 -19 12 -30.5t57 -25.5q23 -9 42.5 -18.5t33 -21.5t19 -28t0.5 -38zM342 494h69q-29 -25 -56.5 -50t-54.5 -49h-78l-7.5 11t-19 26.5t-23.5 32.5t-20 29h70q11 -16 22 -31t24 -32z" />
    <glyph glyph-name="Ydieresis" unicode="&#x178;" horiz-adv-x="400" 
d="M484 474l-9 -11t-23.5 -28.5t-33 -40t-37.5 -45.5q-46 -55 -103 -125l-47 -224h-65l47 224l-50 125q-9 24 -18 46.5l-16 40t-11 28.5l-4 11l65 12l77 -213l169 212l59 -12v0zM261 623q18 0 28.5 -13.5t6.5 -30.5q-5 -19 -20.5 -32t-33.5 -13q-19 0 -28.5 13.5t-5.5 31.5
q4 17 19.5 30.5t33.5 13.5zM425 610q10 -15 7 -31q-5 -19 -20.5 -32t-33.5 -13q-19 0 -29.5 13t-5.5 32q4 18 20 31t34 13q17 0 28 -13z" />
    <glyph glyph-name="Zcaron" unicode="&#x17d;" horiz-adv-x="400" 
d="M114 410l13 65h295q5 2 12.5 5.5t11.5 5.5q14 5 22 -5.5t13 -30.5q2 -7 -3.5 -13.5t-14 -13t-18 -13t-15.5 -14.5l-284 -331h247l-13 -65h-298q-5 -2 -12.5 -5.5t-11.5 -5.5q-14 -5 -22 5.5t-13 30.5q-2 7 3.5 13.5t14 13t18 13t15.5 14.5l284 331h-244zM393 627h69
q-29 -25 -56.5 -50t-54.5 -49h-78l-7.5 11t-19 26.5t-23.5 32.5t-20 29h70q11 -16 22 -31t24 -32z" />
    <glyph glyph-name="zcaron" unicode="&#x17e;" horiz-adv-x="344" 
d="M280 300h-190l12 55h252q7 2 15 2t12 -3q8 -6 7 -19.5t-4 -21.5q-3 -6 -8.5 -8l-11 -4t-11.5 -4.5t-11 -8.5l-205 -233h192l-11 -55h-254q-8 -2 -15.5 -2t-11.5 3q-9 6 -8 19.5t4 21.5q4 6 9 8t11 4t12 4.5t11 8.5zM342 492h69q-29 -25 -56.5 -50t-54.5 -49h-78l-7.5 11
t-19 26.5t-23.5 32.5t-20 29h70q11 -16 22 -31t24 -32z" />
    <glyph glyph-name="florin" unicode="&#x192;" horiz-adv-x="357" 
d="M411 416q-8 4 -18.5 8.5t-22 5.5t-23.5 -2t-23 -12q-24 -20 -36.5 -58t-24.5 -73h76l-16 -43h-74l-22 -64l-22 -64q-10 -28 -19 -52.5t-21 -46.5t-29.5 -40t-42.5 -33q-12 -7 -27 -11t-30 -5.5t-29.5 -1t-24.5 1.5q4 5 9 14.5t10 17.5q5 10 11 21q31 -5 52 5.5t35.5 30
t23.5 44.5t18 49q13 34 23.5 67t23.5 67h-75q5 11 9 21q3 8 6 14.5t3 7.5h71q12 38 26.5 79.5t43.5 74.5q20 23 43.5 33.5t47.5 11.5t47 -6t41 -19z" />
    <glyph glyph-name="circumflex" unicode="&#x2c6;" horiz-adv-x="358" 
d="M289 527q-20 -17 -38 -32.5t-36 -31.5h-70q13 12 32.5 29t37.5 32.5t30 26.5l12 11h78q17 -24 34 -49t35 -50h-69z" />
    <glyph glyph-name="caron" unicode="&#x2c7;" horiz-adv-x="350" 
d="M365 603h69q-29 -25 -56.5 -50t-54.5 -49h-78l-7.5 11t-19 26.5t-23.5 32.5t-20 29h70q11 -16 22 -31t24 -32z" />
    <glyph glyph-name="breve" unicode="&#x2d8;" horiz-adv-x="300" 
d="M239 412q-55 0 -81 30.5t-14 85.5h58q-7 -34 8 -50.5t37.5 -16.5t45 17t29.5 50h59q-11 -52 -49.5 -84t-92.5 -32z" />
    <glyph glyph-name="dotaccent" unicode="&#x2d9;" horiz-adv-x="158" 
d="M227 461q-4 -21 -21.5 -35t-38.5 -14t-32.5 14t-7.5 35q5 21 22.5 36t38.5 15t32.5 -15t6.5 -36z" />
    <glyph glyph-name="ring" unicode="&#x2da;" horiz-adv-x="278" 
d="M169 450q6 29 29.5 48.5t52.5 19.5t44 -19.5t9 -48.5t-29.5 -48t-52.5 -19t-44 19t-9 48zM207 450q-2 -12 4.5 -20.5t18.5 -8.5q13 0 23.5 8.5t12.5 20.5q3 13 -3.5 21.5t-19.5 8.5q-12 0 -22.5 -8.5t-13.5 -21.5z" />
    <glyph glyph-name="ogonek" unicode="&#x2db;" horiz-adv-x="194" 
d="M31.0303 -87q8.99805 -23 29.4941 -37q20.4971 -14 44.9922 -19t49.4912 -2.5q24.9951 2.5 42.9922 11.5l-25.9961 38q-5.99805 -6 -17.9961 -9t-24.9951 -2.5q-12.998 0.5 -23.4961 6t-14.4971 16.5q-3 8 1 14q3.99902 6 12.4971 9q8.49902 3 19.9961 4.5
q11.498 1.5 24.4961 0.5l-52.9902 61h-44.9922l34.9941 -36q-34.9941 5 -49.9912 -12.5t-4.99902 -42.5z" />
    <glyph glyph-name="tilde" unicode="&#x2dc;" horiz-adv-x="301" 
d="M104 389q6 27 18.5 48.5t30.5 33t40 12t46 -14.5q24 -13 39.5 -16.5t25.5 -0.5t15 11t7 19h54q-3 -19 -13.5 -39t-27 -34t-39 -18t-50.5 9q-29 18 -46 21t-26 -2t-13 -14t-6 -15h-55z" />
    <glyph glyph-name="hungarumlaut" unicode="&#x2dd;" horiz-adv-x="380" 
d="M354 498l93 1l-122 -105h-58zM216 498l93 1l-122 -105h-58z" />
    <glyph glyph-name="uni0E00" unicode="&#xe00;" horiz-adv-x="427" 
 />
    <glyph glyph-name="uni0E01" unicode="&#xe01;" horiz-adv-x="464" 
d="M410 297q-1 1 -7.5 10t-19 19t-32 18.5t-46.5 8.5q-33 0 -56.5 -7.5t-39.5 -18.5t-26 -22.5t-16 -19.5l24 -21q11 11 23 18.5t30 13.5l4 -7t8 -15t7 -14.5l3 -6.5q-27 -10 -44 -29.5t-23 -45.5l-37 -178h-69l38 181q4 18 8 27t9 14l-60 45q3 6 17.5 28.5t41.5 46.5
t68.5 43.5t98.5 20.5q31 0 54 -6t40 -15.5t27.5 -20.5t15.5 -21q5 5 15 3t20 -16q11 -19 5.5 -27.5t-19.5 -22.5q-7 -7 -10.5 -14t-5.5 -21l-52 -245h-69l54 255q2 11 6 22.5t15 19.5z" />
    <glyph glyph-name="uni0E02" unicode="&#xe02;" horiz-adv-x="437" 
d="M169 2q-4 -2 -8 -3.5t-8 -3.5q-7 -3 -13 0.5t-11 9.5t-8 13t-4 12q-2 7 2.5 13t11.5 12t13.5 13t8.5 16q0 -1 2 7q2 7 5 22.5t10 47.5q3 12 10 22t16.5 18.5t20.5 15.5t20 14q20 14 32 36.5t13 43t-11.5 33.5t-40.5 9q10 -22 5 -45q-7 -32 -33.5 -54t-58.5 -22t-49.5 22
t-10.5 54q4 17 15 33.5t28 30.5t39 23.5t46 11.5q72 8 107 -20.5t22 -86.5q-8 -35 -23 -56t-31.5 -34.5t-29.5 -24t-16 -25.5l-18 -84l-3.5 -7t-5.5 -7h93q10 0 14.5 5.5t6.5 13.5l68 319h70l-74 -345q-5 -26 -26.5 -39.5t-46.5 -13.5h-149zM190 308q3 13 -4 22t-20 9
t-24 -9t-14 -22t4 -22t20 -9t24 9t14 22z" />
    <glyph glyph-name="uni0E03" unicode="&#xe03;" horiz-adv-x="450" 
d="M171 262q2 11 -4 19t-17 8t-21 -8t-12 -19t4 -19t17 -8t21 8t12 19zM179 84q0 -1 2.5 11.5l5.5 27.5q4 18 9 40q4 21 11 34.5t15.5 23.5t18.5 17.5t21 15.5q5 4 14 10.5t17.5 14t15.5 14t8 11.5q3 8 3.5 18t-1 18t-4.5 13.5t-7 5.5q-7 -1 -14.5 -5t-14.5 -9q1 -5 3 -10.5
t1.5 -10.5t-4.5 -9.5t-14 -8.5q-4 -2 -8.5 -3.5t-9.5 -1t-9 5.5t-6 16q-3 14 -17 24t-30 5q-14 -5 -23 -13t-14 -16q18 4 31 0t21 -13t10.5 -22t-0.5 -26q-5 -27 -28.5 -44.5t-50.5 -17.5q-20 0 -33.5 9.5t-19.5 25.5q-6 20 -3 44t14 46.5t29 41.5t43 30q27 12 55.5 8.5
t45.5 -26.5q29 20 40 24t21 4q18 1 30 -10q11 -9 17.5 -31t0.5 -66q-4 -11 -8.5 -17.5t-12 -12.5t-18 -13.5t-26.5 -20.5q-12 -10 -22 -19t-13 -24l-25 -115q-1 -5 -4 -10t-7 -7h83q10 0 15 5.5t7 13.5l68 320h70l-74 -346q-5 -26 -26.5 -39t-46.5 -13h-136q-4 -2 -7.5 -3.5
t-7.5 -3.5q-7 -3 -13 0.5t-11 9.5t-8 13t-4 12q-2 7 2.5 13t11 12t13 13t8.5 16z" />
    <glyph glyph-name="uni0E04" unicode="&#xe04;" horiz-adv-x="461" 
d="M313 224q3 13 -4 22t-21 9q-13 0 -24 -9t-14 -22t4.5 -22t20.5 -9q14 0 24.5 9t13.5 22zM416 297l-5.5 11t-15.5 19t-31 18t-52 8q-35 0 -59.5 -9.5t-41.5 -25t-26.5 -34t-13.5 -36.5q-4 -20 -5.5 -34t-2 -25t-0.5 -21v-21q16 32 33 63.5t25 43.5q14 19 34 31t42 12
q31 0 47.5 -21.5t9.5 -51.5q-6 -30 -31.5 -51.5t-56.5 -21.5q-23 0 -39 13q-20 -37 -38 -70q-16 -28 -34 -54t-31 -36q-23 -18 -41 6q-8 9 -9.5 15.5t5.5 15.5q12 15 20 27t7 38q-2 27 -2.5 63.5t7.5 75.5q15 73 70.5 117.5t139.5 44.5q61 0 93 -18.5t48 -43.5q5 2 13.5 -1
t16.5 -14q11 -19 5.5 -27.5t-19.5 -22.5q-7 -7 -10.5 -14t-5.5 -21l-52 -245h-69l54 255q2 11 6 22.5t15 19.5z" />
    <glyph glyph-name="uni0E05" unicode="&#xe05;" horiz-adv-x="463" 
d="M419 300q-4 17 -14.5 28.5t-33.5 17.5q-3 -1 -11 -8t-17.5 -15.5t-18 -15t-10.5 -7.5q-11 -5 -18.5 -1t-12.5 13q-5 8 -17.5 19t-21.5 16q-35 -11 -50 -31.5t-23 -55.5q-8 -37 -9.5 -65t-0.5 -54q15 28 31.5 55t25.5 40q13 19 33 31t43 12q30 0 46.5 -21.5t9.5 -51.5
q-6 -30 -31.5 -51.5t-55.5 -21.5q-12 0 -24 4.5t-17 10.5q-20 -36 -38 -66q-16 -26 -33 -49.5t-28 -30.5q-8 -5 -17 -6.5t-19 8.5q-9 10 -12 17t-1.5 12t5.5 8.5t8 8.5q5 4 9 11q3 5 5.5 14t1.5 21q-2 28 -2.5 72t10.5 92q24 112 135 146q10 4 19 -1q14 -5 28.5 -16.5
t25.5 -23.5q26 21 42.5 33t25.5 10q37 -7 57.5 -26.5t26.5 -34.5q13 -2 24 -17q11 -19 5.5 -27.5t-19.5 -22.5q-7 -7 -10.5 -14t-5.5 -21l-52 -245h-69l54 258q2 11 6.5 22.5t14.5 19.5zM308 206q3 13 -4 22t-20 9t-24 -9t-14 -22q-2 -13 5 -22t20 -9t24 9t13 22z" />
    <glyph glyph-name="uni0E06" unicode="&#xe06;" horiz-adv-x="505" 
d="M455 0h-67l5 26q-8 27 -20.5 46t-27.5 32t-31 20t-31 10l-14 -64q-5 -26 -17.5 -41.5t-28 -24t-31.5 -10.5t-28 0q-14 3 -25 11t-18 21t-8 31t6 40q14 43 45.5 66t66.5 31q0 3 1 7q1 3 1.5 7.5t2.5 9.5q4 18 10 29.5t13.5 19.5t17 14.5t20.5 14.5t17 11.5t9 12.5
q2 8 0.5 16t-5.5 13.5t-9 8t-9 0.5q-7 -4 -9 -4.5t-10 -5.5q6 -14 -1 -23t-18 -14q-7 -2 -14.5 -1t-10.5 12q-3 14 -17 24t-31 5q-14 -5 -21 -12.5t-12 -15.5q18 4 31 0t20.5 -13.5t10.5 -22.5t0 -26q-5 -26 -23.5 -42t-40 -20.5t-40.5 3.5t-26 30q-7 19 -4.5 43t13 48
t28.5 43.5t41 29.5q27 12 55.5 8.5t45.5 -26.5q18 12 34 19t27 10q14 4 24.5 -4t17.5 -19.5t10.5 -22t3.5 -11.5q4 -14 0.5 -24.5t-11 -19.5t-18 -17t-20.5 -16q-8 -6 -17 -13t-14 -25l-8 -43q15 -2 32.5 -8.5t34 -17t30 -23.5t19.5 -29l61 286h67zM179 261q2 11 -4 19
t-17 8t-21 -8t-12 -19t4 -18.5t17 -7.5t21 7.5t12 18.5zM217 134q-15 -2 -31.5 -14t-21.5 -36q-4 -20 1 -28t12.5 -9t15 3.5t8.5 10.5z" />
    <glyph glyph-name="uni0E07" unicode="&#xe07;" horiz-adv-x="341" 
d="M302 57q-3 -12 -10.5 -21.5t-18 -17.5t-22 -14t-22.5 -10q-15 -7 -24 5t-13 24q-2 5 0.5 9t-0.5 9q-7 9 -25.5 30.5t-40 46.5t-43 48.5t-35.5 36.5l49 53q13 -12 32 -34.5t40 -48.5t40.5 -51t33.5 -40l37 175q-5 -2 -10.5 -3t-8.5 -1q-32 0 -49 22t-11 54q7 32 34 53.5
t59 22.5q31 0 45 -11t19 -25q5 -16 2 -37zM308 329q3 14 -4 22.5t-20 8.5t-24 -8.5t-14 -22.5q-2 -13 5 -22t20 -9t24 9t13 22z" />
    <glyph glyph-name="uni0E08" unicode="&#xe08;" horiz-adv-x="439" 
d="M437 345q4 5 13.5 2t19.5 -17q11 -19 5 -27.5t-20 -22.5q-5 -5 -9 -10t-7 -12l-80 -217q-2 -6 -5.5 -11t-10 -10t-18.5 -11.5t-31 -16.5q-12 -6 -22 4t-18 28q-3 8 3 14t10 11l-3 100q-10 -7 -18.5 -9.5t-20.5 -2.5q-27 0 -44.5 21t-9.5 56q6 27 30.5 50t59.5 23
q26 0 45 -15.5t17 -53.5l-4 -120l57 165q5 14 10.5 22t9.5 11q-2 1 -8 10t-18 19.5t-32 19t-50 8.5q-69 0 -108.5 -37.5t-53.5 -106.5h-60q11 52 33.5 89.5t53 61.5t68 35.5t77.5 11.5q58 0 90.5 -18.5t48.5 -43.5zM278 212q2 13 -5.5 22.5t-21.5 9.5t-25 -9.5t-13 -22.5
q-3 -14 4 -23.5t21 -9.5t25.5 9.5t14.5 23.5z" />
    <glyph glyph-name="uni0E09" unicode="&#xe09;" horiz-adv-x="470" 
d="M455 346q6 2 14.5 -1t16.5 -15q11 -19 5.5 -27.5t-19.5 -22.5q-7 -7 -10.5 -14t-5.5 -21l-21 -96q17 -8 23 -29t1 -41q-8 -35 -36.5 -59t-63.5 -24q-17 0 -31 6.5t-23.5 17.5t-13 26t0.5 33q1 2 3.5 9.5t7.5 13.5q-12 -4 -27 -13.5t-30 -21.5t-28.5 -24t-22.5 -21
q-5 -5 -15 -14.5t-18 -13.5q-14 -5 -24.5 6t-12.5 21q-2 7 2.5 12.5t10.5 11t11.5 11.5t7.5 15l10 48q-30 0 -47 21.5t-11 51.5q7 30 33 51.5t56 21.5t47 -21.5t10 -51.5q-2 -9 -7 -18.5t-10 -17.5l-10 -44q34 26 71.5 41.5t73.5 13.5l20 93q3 20 18 33q-2 4 -8 13.5
t-19.5 19.5t-35 17.5t-54.5 7.5q-48 0 -93 -26t-73 -78l-50 22q39 64 96 102.5t134 38.5q34 0 58.5 -6t41.5 -15t28 -20.5t19 -22.5zM150 192q-3 -14 4.5 -23t21.5 -9t24.5 9t13.5 23t-4 23t-21 9t-25 -9t-14 -23zM413 79q4 15 -4 26t-24 11t-28 -11t-16 -26q-3 -15 4.5 -26
t23.5 -11t28.5 11t15.5 26z" />
    <glyph glyph-name="uni0E0A" unicode="&#xe0a;" horiz-adv-x="437" 
d="M169 2q-4 -2 -7.5 -3.5t-7.5 -3.5q-7 -3 -13.5 0.5t-11 9.5t-8 13t-4.5 12q-2 7 2.5 13t11.5 12t13.5 13t8.5 16l17 77q3 12 10 22t16.5 18.5t20.5 15.5t20 14q20 14 32 36.5t13 43t-11.5 33.5t-40.5 9q10 -22 5 -45q-7 -32 -33.5 -54t-58.5 -22t-49.5 22t-10.5 54
q4 17 15 33.5t28 30.5t39 23.5t46 11.5q72 8 107 -20.5t22 -86.5q-8 -35 -23 -56t-31.5 -34.5t-29.5 -24t-16 -25.5l-18 -84q-4 -11 -10 -14h94q10 0 14.5 5.5t6.5 13.5l39 184q2 12 -0.5 19.5t-7.5 12.5t-14 8q0 14 12 30.5t33.5 35.5t50 39.5t60.5 43.5l31 -46
q-29 -19 -57.5 -39t-54.5 -49q7 -5 11 -12q4 -6 6.5 -16t-0.5 -24l-45 -213q-5 -26 -26.5 -39.5t-46.5 -13.5h-149zM190 308q3 13 -4 22t-20 9t-24 -9t-14 -22t4 -22t20 -9t24 9t14 22z" />
    <glyph glyph-name="uni0E0B" unicode="&#xe0b;" horiz-adv-x="459" 
d="M171 262q2 11 -4 19t-17 8t-21 -8t-12 -19t4 -19t17 -8t21 8t12 19zM196 163q4 21 11 34.5t15.5 23.5t18.5 17.5t21 15.5q5 4 14 10.5t17.5 14t15.5 14t8 11.5q3 8 3.5 18t-1 18t-4.5 13.5t-7 5.5q-7 -1 -14.5 -5t-14.5 -9q1 -5 3 -10.5t1.5 -10.5t-4.5 -9.5t-14 -8.5
q-4 -2 -8.5 -3.5t-9.5 -1t-9 5.5t-6 16q-3 14 -17 24t-30 5q-14 -5 -23 -13t-14 -16q18 4 31 0t21 -13t10.5 -22t-0.5 -26q-5 -27 -28.5 -44.5t-50.5 -17.5q-20 0 -33.5 9.5t-19.5 25.5q-6 20 -3 44t14 46.5t29 41.5t43 30q27 12 55.5 8.5t45.5 -26.5q29 20 40 24t21 4
q18 -1 30 -12q11 -9 16.5 -29t-3.5 -56q-4 -11 -8 -19t-10 -16t-16 -17t-26 -22q-12 -10 -22 -19t-13 -24l-25 -115q-1 -5 -4 -10t-7 -7h93q10 0 15 5.5t7 13.5l39 185q2 12 -0.5 19.5t-7.5 12.5t-14 8q0 14 11.5 30.5t32.5 35.5t49.5 39.5t60.5 43.5l31 -46
q-29 -19 -56.5 -39t-53.5 -49q7 -5 11 -12q4 -6 6.5 -16t-0.5 -24l-45 -214q-5 -26 -26.5 -39t-46.5 -13h-146q-4 -2 -8 -3.5t-8 -3.5q-7 -3 -13 0.5t-11 9.5t-8 13t-4 12q-2 7 2.5 13t11.5 12t13.5 13t8.5 16z" />
    <glyph glyph-name="uni0E0C" unicode="&#xe0c;" horiz-adv-x="649" 
d="M369 129q-16 -2 -28.5 -16t-16.5 -31q-4 -20 -0.5 -28.5t9.5 -10t12.5 2.5t7.5 10zM216 75q3 13 -4 22t-20 9q-14 0 -25 -9t-14 -22q-2 -13 5 -22t21 -9q13 0 24 9t13 22zM455 345q5 2 14 -0.5t17 -14.5q11 -19 5.5 -27.5t-19.5 -22.5q-7 -7 -10.5 -14t-5.5 -21l-14 -66
q24 -2 53 -18t51 -41l60 280h68l-85 -400h-68l9 43q-18 35 -47 55.5t-52 25.5l-12 -57q-5 -23 -16.5 -37.5t-25.5 -22t-28.5 -9t-25.5 0.5q-24 5 -38.5 28.5t-2.5 63.5q11 35 36 55t54 29l18 84q1 8 6.5 20.5t13.5 17.5q-3 1 -10 10t-19 19t-30.5 18.5t-45.5 8.5
q-33 0 -56.5 -7.5t-39.5 -18.5t-26 -22.5t-16 -19.5l24 -21q11 11 23 18.5t30 13.5l4 -7t8 -15t7 -14.5l3 -6.5q-54 -20 -67 -75l-6 -29q17 1 30.5 -4.5t22.5 -16t12 -24t0 -29.5q-6 -32 -33.5 -54t-59.5 -22t-47.5 22t-9.5 54l23 106q4 18 8 27t9 14l-60 45q3 6 17.5 28.5
t41.5 46.5t68.5 43.5t98.5 20.5q30 0 53 -5.5t40 -14t28.5 -19.5t19.5 -22z" />
    <glyph glyph-name="uni0E0D" unicode="&#xe0d;" horiz-adv-x="644" 
d="M216 72q2 13 -5 22t-21 9q-13 0 -24 -9t-13 -22q-3 -14 4 -23t20 -9q14 0 25 9t14 23zM376 -99q2 12 -6.5 19t-19.5 5q-12 -2 -20.5 -11.5t-9.5 -20.5q-1 -12 6.5 -19t20.5 -5q11 2 19.5 11.5t9.5 20.5zM418 79q0 -5 -3.5 -11t-7.5 -8h103q18 0 21 19l69 321h70l-74 -345
q-8 -40 -16.5 -70t-19.5 -52v-1q-2 -5 -5 -10l-6 -10q-10 -15 -20 -25t-20 -18q-24 -19 -51 -30t-53.5 -15t-50.5 -1.5t-42 9.5q-16 7 -25.5 20.5t-8.5 33.5q2 29 23.5 51.5t50.5 27.5t48.5 -12t17.5 -45q0 -14 -8 -30q52 11 79 42q8 8 18.5 27t19.5 53h-158l-13 -4
q-7 -2 -13 1t-11 9t-8 12.5t-4 11.5q-2 7 1.5 11t9 8.5t10.5 9.5t7 14l40 186q1 8 7 20t13 18q-3 1 -9.5 10t-18.5 19t-30 18.5t-45 8.5q-33 0 -56.5 -7.5t-39.5 -18.5t-26 -22.5t-16 -19.5l24 -21q11 11 23 18.5t30 13.5l4 -7t8 -15t7 -14.5l3 -6.5q-27 -10 -44 -29.5
t-23 -45.5l-6 -31q2 1 4 1h3q32 0 50 -22t11 -54q-3 -16 -12.5 -30t-22 -24.5t-28 -16.5t-31.5 -6q-32 0 -49 22.5t-10 54.5l23 109q4 18 8 27t9 14l-60 45q3 6 17.5 28.5t41.5 46.5t68.5 43.5t98.5 20.5q30 0 53 -5.5t39.5 -14t27.5 -19.5t19 -22q5 2 14 -0.5t17 -14.5
q11 -19 5.5 -27.5t-19.5 -22.5q-7 -7 -10.5 -14t-5.5 -21z" />
    <glyph glyph-name="uni0E0E" unicode="&#xe0e;" horiz-adv-x="485" 
d="M400 -125q-3 -11 -10 -19q-1 -1 -15 -13.5t-31 -28t-32 -29t-18 -16.5q-12 -11 -20 -13t-20 7q-7 5 -14 14.5t0 19.5q-14 20 -29 30.5t-29 15.5q0 -6 -1 -9q-7 -33 -35 -56t-61 -23q-32 0 -50.5 23t-11.5 56q3 16 12.5 30.5t22.5 25t29 17t32 6.5q10 0 18 -3l9 42h57
l-11 -53q20 -5 44.5 -18.5t47.5 -42.5q13 11 26.5 23t21.5 20l81 380q1 8 7.5 20.5t12.5 18.5q-3 1 -9.5 10t-19 19t-31 18t-45.5 8q-33 0 -56.5 -7.5t-39.5 -18.5t-25.5 -22.5t-15.5 -19.5l23 -21q11 11 23 18.5t31 13.5l3.5 -7l7.5 -15t7.5 -14.5l3.5 -6.5
q-28 -10 -42 -29.5t-19 -45.5l-22 -102q-3 -16 -11 -31.5t-21 -27.5t-30.5 -19t-39.5 -7q-32 0 -50 22.5t-11 54.5q3 16 12 30t22 24.5t28.5 16.5t31.5 6q5 0 13 -2l8 38q4 18 8 27t9 14l-64 45q3 6 17 28.5t41.5 46.5t68.5 43.5t98 20.5q31 0 54 -5.5t40 -14.5t28 -20
t19 -22q6 2 14.5 -1t16.5 -15q11 -19 5.5 -27.5t-19.5 -22.5q-7 -7 -10.5 -14t-5.5 -21zM152 70q3 13 -4 22t-20 9q-14 0 -25 -9t-14 -22q-2 -13 5 -22t21 -9q13 0 24 9t13 22zM135 -166q3 14 -4.5 23.5t-21.5 9.5t-25.5 -9.5t-14.5 -23.5t4.5 -24t21.5 -10t25.5 10t14.5 24
z" />
    <glyph glyph-name="uni0E0F" unicode="&#xe0f;" horiz-adv-x="485" 
d="M398 -133q0 -1 -12 -14.5t-27 -30t-28 -30l-13 -13.5q-9 -8 -16 -7.5t-15 3.5q-13 5 -18.5 13.5t-1.5 15.5q-23 0 -39 -9t-33 -32q-3 -5 -6.5 -6.5t-7 -1t-7.5 2t-8 2.5q-10 2 -16.5 5t-0.5 11q0 2 3.5 5.5t6.5 8.5q-4 19 -12 29.5t-17 18.5q-2 -12 -9 -26.5t-19.5 -27
t-30 -21t-38.5 -8.5q-32 0 -50 23t-11 56q6 25 20.5 42t31.5 26t34 10.5t27 -2.5l12 53h56l-14 -63q17 -8 34 -23.5t28 -47.5q27 20 48 22.5t41 -7.5l43 41l80 376q1 8 7 20.5t13 17.5q-3 1 -9.5 10t-19 19t-31 18.5t-45.5 8.5q-33 0 -56.5 -7.5t-39.5 -18.5t-25.5 -22.5
t-15.5 -19.5l23 -21q11 11 23 18.5t31 13.5l3.5 -7l7.5 -15t7.5 -14.5l3.5 -6.5q-28 -10 -42 -29.5t-19 -45.5l-22 -102q-3 -16 -11 -31.5t-21 -27.5t-30.5 -19t-39.5 -7q-32 0 -50 22.5t-11 54.5q3 16 12 30t22 24.5t28.5 16.5t31.5 6q5 0 13 -2l8 38q4 18 8 27t9 14
l-64 45q3 6 17 28.5t41.5 46.5t68.5 43.5t98 20.5q31 0 54 -5.5t40 -14.5t28 -20t19 -22q6 2 14.5 -1t16.5 -15q11 -19 5.5 -27.5t-19.5 -22.5q-7 -7 -10.5 -14t-5.5 -21zM152 70q3 13 -4 22t-20 9q-14 0 -25 -9t-14 -22q-2 -13 5 -22t21 -9q13 0 24 9t13 22zM83 -166
q3 14 -3.5 23.5t-22.5 9.5q-14 0 -25.5 -9.5t-14.5 -23.5t4.5 -24t21.5 -10t25.5 10t14.5 24z" />
    <glyph glyph-name="uni0E10" unicode="&#xe10;" horiz-adv-x="418" 
d="M288 -206q0 -5 -13 -18q-13 -12 -20.5 -10t-8.5 4q-39 23 -88 -7q-14 -8 -18 -5.5l-12 7.5q-11 7 -12.5 8t3.5 8q-5 26 -16 38t-22 18q-2 -15 -10 -30t-20 -26.5t-28 -18.5t-34 -7q-31 0 -48.5 21.5t-10.5 53.5q5 22 17.5 38t28 25t32.5 11.5t31 -1.5l12 59h57l-15 -72
q21 -8 40.5 -25t29.5 -52q19 8 38 10t36 0l6 31q-11 -3 -23.5 -0.5t-22.5 10.5t-15 21t-1 32q5 26 28 45t49 19q25 0 43.5 -16.5t12.5 -45.5zM37 -170q3 14 -4.5 23.5t-21.5 9.5q-13 0 -24.5 -9.5t-14.5 -23.5q-2 -14 5 -23.5t21 -9.5t25.5 9.5t13.5 23.5zM271 -83
q2 11 -4 18t-17 7t-19.5 -7t-10.5 -18t3 -18.5t16 -7.5t20.5 7.5t11.5 18.5zM215 159q3 13 -4 22.5t-21 9.5t-25.5 -9.5t-14.5 -22.5q-3 -14 4.5 -23t21.5 -9t25 9t14 23zM408 218q-6 -8 -13 -15.5t-12 -18.5l-51 -140q-3 -6 -11.5 -12.5t-20 -13t-23.5 -12.5t-22 -12
q-4 -2 -5 -2t-5 -2q-7 -3 -13 0.5t-11 9.5t-8 13t-4 12q-2 8 2 13t12 12q-1 8 -4 21t-5 32q-8 -8 -20 -11.5t-23 -4.5q-13 -1 -25 3.5t-21 13.5t-13 23t0 33q7 35 34 53.5t54 18.5q18 0 33.5 -10t20.5 -25q4 -9 8 -23t7 -31t5 -35.5t2 -35.5l42 120q3 8 7 17.5t15 20.5
q-6 7 -23 15t-43 13.5t-59.5 7t-72.5 -3.5q-9 -12 -18 -15.5t-29 7.5q-11 7 -7.5 15.5t17.5 28.5q16 24 38.5 45.5t49.5 37.5t58 24.5t66 6.5q28 -2 52 -7.5t44 -11t36 -10t28 -4.5l-28 -44q-8 -5 -24.5 -1.5t-37.5 9.5t-44 12t-42 6q-49 0 -74 -12.5t-41 -30.5
q41 2 73.5 -1t56.5 -9.5t41 -15t27 -15.5q3 3 13 1.5t19 -15.5q11 -17 7 -25.5t-15 -19.5z" />
    <glyph glyph-name="uni0E11" unicode="&#xe11;" horiz-adv-x="544" 
d="M175 262q2 11 -4 19t-17 8t-20.5 -8t-11.5 -19t3.5 -19t16.5 -8t21 8t12 19zM489 0h-69l61 290q1 5 6 19.5t15 25.5q-2 2 -11.5 5.5t-12.5 3.5l-213 -305q-5 -7 -19.5 -18.5t-29.5 -19.5l-7.5 -3t-6.5 -3q-7 -3 -13 0.5t-10.5 9.5t-7.5 13t-4 12q-2 7 2 12.5t9.5 11.5
t11 12.5t7.5 15.5l29 138q1 17 15 33.5t31 30.5q4 4 12 9.5t15 11.5t12 11t5 8q-1 14 -5 24t-13 9q-10 -1 -24 -12q2 -11 -4.5 -19.5t-17.5 -13.5q-7 -3 -14.5 -1.5t-10.5 12.5q-3 14 -14 24t-27 5q-14 -5 -21.5 -13t-12.5 -16q18 4 31 0t21 -13t10.5 -22t-0.5 -26
q-5 -27 -28.5 -46.5t-51.5 -19.5q-19 0 -32 10t-18 26q-7 19 -4.5 43.5t13 48t28 43.5t41.5 30q27 12 52.5 8t42.5 -27q29 21 43 25t24 5q14 1 24 -8.5t16 -21.5t9 -23t3 -12q1 -5 1.5 -8t-3.5 -12q-3 -7 -13.5 -15.5t-23 -18t-23.5 -21.5t-14 -25l-23 -109l183 273
q24 0 48 -6t35 -17q4 5 15.5 3.5t21.5 -15.5q11 -19 5.5 -27.5t-19.5 -22.5q-7 -7 -10.5 -14t-5.5 -21z" />
    <glyph glyph-name="uni0E12" unicode="&#xe12;" horiz-adv-x="642" 
d="M372 126q-15 -2 -28 -15.5t-16 -30.5q-5 -20 -1.5 -28.5t10 -10.5t12.5 2t8 10zM305 225q3 13 -3.5 21.5t-18.5 8.5q-13 0 -23.5 -8.5t-13.5 -21.5q-2 -12 4.5 -20.5t19.5 -8.5q12 0 22.5 8.5t12.5 20.5zM446 171q24 -2 52 -17t50 -39l61 285h67l-85 -400h-67l8 41
q-18 34 -47 52.5t-52 23.5l-11 -53q-5 -23 -16.5 -37.5t-25 -22t-28 -9t-25.5 0.5q-24 5 -40 29t-4 64q12 36 39.5 56.5t56.5 28.5l20 91q2 8 6.5 17.5t12.5 15.5l-1.5 7.5t-6.5 16.5t-14.5 17t-24.5 11q-3 -1 -11 -6t-17.5 -11t-17.5 -11t-9 -6q-12 -5 -16 -2t-16 14
q-9 8 -18.5 13.5t-18.5 9.5q-36 -11 -54 -35.5t-26 -59.5q-9 -50 -6 -87t1 -67q7 7 18.5 17.5t22.5 20t19 16.5t9 8q-17 6 -25 23t-3 38q7 30 33 51.5t56 21.5q29 0 46 -21.5t10 -51.5q-3 -15 -11.5 -28.5t-19 -25t-23 -21t-22.5 -18.5q-21 -16 -43.5 -36t-42.5 -38
t-34.5 -32t-20.5 -18q-13 -10 -23 -13t-20 10q-11 14 -13 21t9 18q7 7 11.5 13t6.5 16q3 21 2 41.5t-2.5 43t-1 47t6.5 54.5q23 112 137 147q12 4 24 -1q14 -5 27.5 -15.5t24.5 -22.5q25 21 44 32.5t27 9.5q35 -10 54.5 -25.5t25.5 -35.5q7 2 12.5 -4t11.5 -14
q11 -19 5 -27.5t-20 -22.5q-7 -7 -11.5 -14t-6.5 -21z" />
    <glyph glyph-name="uni0E13" unicode="&#xe13;" horiz-adv-x="664" 
d="M222 72q2 13 -5 22t-20 9q-14 0 -25 -9t-13 -22q-3 -14 4 -23t21 -9q13 0 24 9t14 23zM606 77q4 17 -4.5 28t-25.5 11t-29.5 -11t-16.5 -28q-4 -16 4.5 -27t25.5 -11t29.5 11t16.5 27zM428 126q35 27 71.5 38t73.5 9q4 3 6 13l40 190h67l-44 -208q-4 -13 -11 -19
q15 -12 21.5 -31t1.5 -41q-4 -18 -14.5 -34t-24.5 -28t-31.5 -18.5t-35.5 -6.5q-37 0 -56.5 25t-11.5 62q1 2 4.5 12t8.5 17q-23 -6 -41.5 -19.5t-34.5 -29.5t-28 -30.5t-21 -22.5q-6 -6 -13 -4.5t-13.5 6.5t-11.5 11.5t-6 11.5q-2 7 1 11.5t7.5 9l9.5 9.5t7 14l39 186
q1 8 7 19t13 19q-3 1 -9.5 10t-18.5 19t-30 18.5t-45 8.5q-33 0 -56.5 -7.5t-39.5 -18.5t-26 -22.5t-16 -19.5l24 -21q11 11 23 18.5t30 13.5l4 -7t8 -15t7 -14.5l3 -6.5q-27 -10 -44 -29.5t-23 -45.5l-7 -34q16 5 31 1.5t26.5 -13t16.5 -25t1 -35.5q-7 -32 -34 -54.5
t-59 -22.5q-11 0 -24.5 3.5t-24 13t-16 25t-0.5 39.5l22 105q4 18 8 27t9 14l-60 45q3 6 17.5 28.5t41.5 46.5t68.5 43.5t98.5 20.5q60 0 92 -19t47 -41q6 2 14.5 -1t16.5 -15q11 -19 5.5 -27.5t-19.5 -22.5q-7 -7 -10.5 -14t-5.5 -21z" />
    <glyph glyph-name="uni0E14" unicode="&#xe14;" horiz-adv-x="458" 
d="M410 0h-69l54 258q3 14 9.5 24t12.5 15q-3 1 -8 9.5t-16 18t-31 17.5t-54 8q-58 0 -94 -28.5t-47 -74.5q-6 -29 -7 -49.5t-0.5 -36.5t2 -30t0.5 -29q7 7 19 17.5t23.5 20t20 16t9.5 7.5q-17 7 -25.5 24.5t-3.5 40.5q7 32 33.5 54t58.5 22t49.5 -22t10.5 -54
q-7 -33 -32.5 -56.5t-48.5 -41.5q-22 -17 -45 -36.5t-43.5 -37t-35.5 -31t-21 -17.5q-13 -10 -23 -13t-20 10q-11 14 -13 21t9 18q7 7 11.5 13t6.5 16q3 21 2 40.5t-2.5 40t-1 44t6.5 53.5q9 35 28 64t47 49t62.5 31.5t74.5 11.5q32 0 55 -5t39.5 -13.5t27.5 -19.5t19 -23
q6 2 15 -1t17 -15q11 -19 5.5 -27.5t-19.5 -22.5q-7 -7 -10.5 -14t-5.5 -21zM312 228q3 13 -4 22t-20 9t-24 -9t-14 -22t4 -22t20 -9t24 9t14 22z" />
    <glyph glyph-name="uni0E15" unicode="&#xe15;" horiz-adv-x="463" 
d="M413 0h-69l56 264q2 8 6.5 17.5t12.5 15.5l-1 7t-5 15.5t-12.5 16.5t-22.5 11q-2 -1 -12 -8.5t-21 -15.5t-20.5 -15t-11.5 -8q-11 -5 -17 -1.5t-11 12.5q-3 4 -8 9.5t-11 11t-12.5 10t-10.5 6.5q-19 -9 -31 -18t-19.5 -19.5t-11.5 -22t-7 -26.5q-6 -29 -7.5 -52t-1 -42.5
t2 -36t0.5 -31.5q7 7 17.5 15.5t20.5 15.5t17 12t8 6q-14 2 -24 20t-5 41q7 32 33.5 54t58.5 22t49.5 -22t10.5 -54q-5 -21 -17.5 -37.5t-28 -29.5t-31 -22.5t-26.5 -17.5q-45 -32 -74 -60t-40 -37q-13 -10 -23 -13t-21 10q-11 14 -13 21t9 18q7 7 12 13t7 16q3 21 1.5 42.5
t-3 44.5t-0.5 48.5t7 55.5q12 56 43.5 91t88.5 52q12 5 22 -2q15 -5 28 -15.5t24 -22.5q26 21 45.5 33t27.5 10q34 -8 52.5 -24.5t25.5 -36.5q7 2 13 -3.5t12 -13.5q11 -19 5.5 -27.5t-19.5 -22.5q-7 -7 -10.5 -14t-5.5 -21zM309 210q3 13 -4 22t-20 9t-24 -9t-14 -22
q-2 -13 5 -22t20 -9t24 9t13 22z" />
    <glyph glyph-name="uni0E16" unicode="&#xe16;" horiz-adv-x="461" 
d="M223 72q2 13 -5 22t-20 9q-14 0 -25 -9t-13 -22q-3 -14 4 -23t21 -9q13 0 24 9t14 23zM410 297q-1 1 -7.5 10t-19 19t-32 18.5t-46.5 8.5q-33 0 -56.5 -7.5t-39.5 -18.5t-26 -22.5t-16 -19.5l24 -21q11 11 23 18.5t30 13.5l4 -7t8 -15t7 -14.5l3 -6.5q-27 -10 -44 -29.5
t-23 -45.5l-6 -32q8 2 15 2q32 0 49.5 -22t10.5 -54t-34 -54.5t-59 -22.5q-11 0 -24.5 3.5t-24.5 13t-16.5 25t-0.5 39.5l22 105q4 18 8 27t9 14l-60 45q3 6 17.5 28.5t41.5 46.5t68.5 43.5t98.5 20.5q31 0 54 -6t40 -15.5t27.5 -20.5t15.5 -21q5 5 15 3t20 -16
q11 -19 5.5 -27.5t-19.5 -22.5q-7 -7 -10.5 -14t-5.5 -21l-52 -245h-69l54 255q2 11 6 22.5t15 19.5z" />
    <glyph glyph-name="uni0E17" unicode="&#xe17;" horiz-adv-x="483" 
d="M431 0h-69l60 285q0 2 1.5 8.5t4 14t6 14.5t8.5 11q-3 4 -8.5 6.5t-12 3.5t-13 1.5t-9.5 -0.5l-200 -305q-6 -8 -21.5 -19.5t-26.5 -18.5l-13 -5q-8 -3 -14 0.5t-11 9.5t-8 13t-4 12q-2 7 2 12.5t10 11.5t11.5 12.5t7.5 15.5l37 175q-3 -1 -9 -1q-16 0 -28.5 6t-21 16.5
t-11.5 24.5t0 30q7 32 34.5 54t59.5 22q29 0 49 -20.5t12 -55.5l-40 -189l157 259q15 3 32 3t32.5 -3.5t29 -9t21.5 -12.5q4 5 14.5 3.5t20.5 -15.5q12 -19 6 -27.5t-19 -22.5q-7 -7 -10.5 -14t-6.5 -21zM207 334q3 13 -4 22t-20 9t-24 -9t-14 -22q-2 -14 5 -23t20 -9t24 9
t13 23z" />
    <glyph glyph-name="uni0E18" unicode="&#xe18;" horiz-adv-x="418" 
d="M339 210q-5 2 -18 4.5t-30 4.5t-35.5 3.5t-34.5 2.5l-32 -152q-2 -10 -8 -14h102q10 0 14.5 5.5t7.5 13.5l19 89q1 5 4 18.5t11 24.5zM137 0q-5 -2 -8.5 -3t-7.5 -3q-7 -3 -13 0.5t-10.5 9.5t-7.5 13.5t-4 12.5q-2 7 2.5 12.5t11.5 11.5t13.5 12.5t8.5 15.5l32 150
q-5 0 -16 0.5t-19 -3.5q-10 -5 -14.5 -3t-12.5 10q-10 9 -11.5 14t9.5 17q12 12 29 36t42.5 48t61.5 42t86 18q26 0 49.5 -4.5t44.5 -9.5t40.5 -10t36.5 -6l-32 -55q-26 1 -44 6t-34 10t-32.5 9t-38.5 4q-42 0 -69.5 -18t-52.5 -47q31 0 62 -2.5t58 -6t50 -8.5t39 -9
q7 6 15 3.5t14 -9t10 -15t3 -13.5q-1 -8 -6 -14t-10.5 -12t-10.5 -12.5t-7 -15.5l-26 -124q-6 -26 -28 -39.5t-47 -13.5z" />
    <glyph glyph-name="uni0E19" unicode="&#xe19;" horiz-adv-x="477" 
d="M422 85q3 17 -6 29t-26 12t-31 -12t-17 -29q-4 -17 5 -28.5t26 -11.5t31 11.5t18 28.5zM206 330q2 13 -5 22t-20 9q-14 0 -25 -9t-13 -22q-3 -13 4 -22t21 -9q13 0 24 9t14 22zM301 114q-25 -5 -51 -22.5t-48 -36.5t-38 -34.5t-20 -18.5q-7 -5 -14 -2.5t-12.5 8.5
t-9.5 13.5t-5 12.5q-2 7 2.5 12.5t11 11.5t12.5 13t8 16l36 168q-19 -4 -34.5 0.5t-26 15t-14.5 26t0 33.5q3 16 12 30t21.5 24.5t28 16.5t31.5 6q24 0 38.5 -7t22 -18.5t8.5 -25.5t-2 -29l-41 -194q37 29 84 42t86 11q3 3 4 6t3 8l43 200h70l-47 -219q-2 -5 -4 -10.5
t-7 -9.5q15 -13 22 -33t2 -43q-4 -19 -15 -35.5t-26 -29t-33.5 -19.5t-37.5 -7q-38 0 -58.5 26.5t-12.5 64.5q0 3 2.5 10.5t8.5 18.5z" />
    <glyph glyph-name="uni0E1A" unicode="&#xe1a;" horiz-adv-x="487" 
d="M147 4q-4 -2 -7 -3t-7 -3q-7 -3 -13.5 0.5t-11 9.5t-8 13.5t-4.5 12.5q-2 7 3 13t12 12t14 12.5t9 15.5q8 36 15 69q6 28 11.5 56t9.5 43q-19 -4 -34.5 0.5t-26 15t-14.5 26t0 33.5q3 16 12 30t21.5 24.5t28 16.5t31.5 6q24 0 38.5 -7t22 -18.5t8.5 -25.5t-2 -29
l-53 -249q-1 -5 -4 -9t-6 -6h164q10 0 14.5 5.5t6.5 13.5l68 318h70l-73 -343q-6 -26 -27.5 -39.5t-46.5 -13.5h-221zM203 330q2 13 -5 22t-20 9q-14 0 -25 -9t-13 -22q-3 -13 4 -22t21 -9q13 0 24 9t14 22z" />
    <glyph glyph-name="uni0E1B" unicode="&#xe1b;" horiz-adv-x="487" 
d="M147 4q-4 -2 -7 -3t-7 -3q-7 -3 -13.5 0.5t-11 9.5t-8 13.5t-4.5 12.5q-2 7 3 13t12 12t14 12.5t9 15.5q8 36 15 69q6 28 11.5 56t9.5 43q-19 -4 -34.5 0.5t-26 15t-14.5 26t0 33.5q3 16 12 30t21.5 24.5t28 16.5t31.5 6q24 0 38.5 -7t22 -18.5t8.5 -25.5t-2 -29
l-53 -249q-1 -5 -4 -9t-6 -6h164q10 0 14.5 5.5t6.5 13.5l99 468h70l-104 -493q-6 -26 -27.5 -39.5t-46.5 -13.5h-221zM203 330q2 13 -5 22t-20 9q-14 0 -25 -9t-13 -22q-3 -13 4 -22t21 -9q13 0 24 9t14 22z" />
    <glyph glyph-name="uni0E1C" unicode="&#xe1c;" horiz-adv-x="463" 
d="M124 323q3 15 10.5 30t19.5 27t30 19.5t42 7.5q32 0 50 -22.5t11 -54.5q-4 -18 -14.5 -33.5t-25.5 -26t-32.5 -15t-34.5 -0.5q-4 -15 -8 -37.5t-9 -43.5q-5 -25 -11 -50l97 84q8 8 14 12.5t14 4.5q2 1 6 -1q6 -3 15 -16l60 -91l61 283h71l-77 -358l-3 -20
q2 -11 -8.5 -16.5t-23.5 -10.5q-11 -5 -20.5 -6t-11.5 10l-87 143q-56 -48 -89 -75.5l-51 -42.5q-21 -18 -29 -24l-12 -7q-6 -4 -12.5 -1.5t-12 8.5t-9.5 13.5t-5 12.5q-2 7 2.5 13t10.5 12t12 12.5t8 15.5zM179 330q-3 -13 4 -22t20 -9q14 0 25 9t14 22q2 13 -5 22t-21 9
q-13 0 -24 -9t-13 -22z" />
    <glyph glyph-name="uni0E1D" unicode="&#xe1d;" horiz-adv-x="463" 
d="M124 323q3 15 10.5 30t19.5 27t30 19.5t42 7.5q32 0 50 -22.5t11 -54.5q-4 -18 -14.5 -33.5t-25.5 -26t-32.5 -15t-34.5 -0.5q-4 -15 -8 -37.5t-9 -43.5q-5 -25 -11 -50l97 84q8 8 14 12.5t14 4.5q2 1 6 -1q6 -3 15 -16l60 -91l92 433h71l-108 -508l-3 -20
q2 -11 -8.5 -16.5t-23.5 -10.5q-11 -5 -20.5 -6t-11.5 10l-87 143q-56 -48 -89 -75.5l-51 -42.5q-21 -18 -29 -24l-12 -7q-6 -4 -12.5 -1.5t-12 8.5t-9.5 13.5t-5 12.5q-2 7 2.5 13t10.5 12t12 12.5t8 15.5zM179 330q-3 -13 4 -22t20 -9q14 0 25 9t14 22q2 13 -5 22t-21 9
q-13 0 -24 -9t-13 -22z" />
    <glyph glyph-name="uni0E1E" unicode="&#xe1e;" horiz-adv-x="527" 
d="M375 394q11 0 15 -4t6 -14l39 -216l51 240h71l-73 -338q-1 -4 -3 -20t-2 -26q-5 -12 -13.5 -14t-13.5 -4q-29 -8 -37.5 -2.5t-10.5 15.5l-56 260l-146 -228q-10 -13 -21 -22q-5 -4 -11 -8q-10 -7 -18.5 -10.5t-19.5 -8.5q-14 -5 -25 7.5t-13 23.5q-2 7 3 13t12.5 12.5
t14.5 13.5t9 16l37 175q-19 -4 -34.5 0.5t-26 15t-14.5 26t0 33.5q3 16 12 30t21.5 24.5t28 16.5t31.5 6q24 0 38.5 -7t21 -18.5t7.5 -25.5t-2 -29l-35 -167l128 216q7 10 12.5 14t16.5 4zM203 330q2 13 -5 22t-20 9q-14 0 -25 -9t-13 -22q-3 -13 4 -22t21 -9q13 0 24 9
t14 22z" />
    <glyph glyph-name="uni0E1F" unicode="&#xe1f;" horiz-adv-x="527" 
d="M170 13q-10 -7 -18.5 -10.5t-19.5 -8.5q-14 -5 -25 7.5t-13 23.5q-2 7 3 13t12.5 12.5t14.5 13.5t9 16q8 38 15 72q6 29 12 58.5t10 44.5q-19 -4 -34.5 0.5t-26 15t-14.5 26t0 33.5q3 16 12 30t21.5 24.5t28 16.5t31.5 6q24 0 38.5 -7t21 -18.5t7.5 -25.5t-2 -29
l-35 -167l128 216q7 10 12.5 14t16.5 4q6 0 10 -2t7.5 -5.5t3.5 -9.5l39 -217l82 389h71l-104 -487q-1 -4 -3 -20t-2 -26q-5 -12 -13.5 -14t-13.5 -4q-29 -8 -37.5 -2.5t-10.5 15.5l-56 260l-146 -228q-10 -13 -21 -22q-5 -4 -11 -8zM203 330q2 13 -5 22t-20 9q-14 0 -25 -9
t-13 -22q-3 -13 4 -22t21 -9q13 0 24 9t14 22z" />
    <glyph glyph-name="uni0E20" unicode="&#xe20;" horiz-adv-x="479" 
d="M152 68q3 13 -4 22t-20 9q-14 0 -25 -9t-14 -22t4 -22t21 -9q13 0 24 9t14 22zM427 0h-69l55 259q1 8 7 20.5t13 17.5q-3 1 -10 10t-19 19t-30.5 18.5t-45.5 8.5q-33 0 -56.5 -7.5t-39.5 -18.5t-26 -22.5t-16 -19.5l24 -21q11 11 23 18.5t30 13.5l4 -7t8 -15t7 -14.5
l3 -6.5q-27 -10 -41 -29.5t-20 -45.5l-21 -102q-3 -16 -11 -31.5t-21 -27.5t-30.5 -19t-39.5 -7q-32 0 -50 22.5t-11 54.5q3 16 12 30t21.5 24.5t28 16.5t31.5 6q4 0 7 -0.5t7 -1.5l8 38q4 18 8 27t9 14l-65 45q3 6 17.5 28.5t41.5 46.5t68.5 43.5t98.5 20.5q61 0 93.5 -19
t47.5 -41q6 2 14.5 -1t16.5 -15q11 -19 5.5 -27.5t-19.5 -22.5q-7 -7 -10.5 -14t-5.5 -21z" />
    <glyph glyph-name="uni0E21" unicode="&#xe21;" horiz-adv-x="472" 
d="M165 133q-16 -2 -28.5 -16t-16.5 -31q-4 -20 -0.5 -28.5t9.5 -10t12.5 2.5t7.5 10zM248 197q29 -5 64 -21t64 -50l59 274h67l-85 -400h-67l6 31q-8 27 -22 46t-31 32t-34.5 20t-32.5 10l-15 -70q-5 -26 -18.5 -41.5t-29.5 -24t-33 -10t-29 0.5q-13 3 -24.5 11t-18.5 20.5
t-8.5 30.5t5.5 40q13 43 45.5 66t67.5 31q1 6 3 16q2 8 4 19.5t6 26.5q-19 -4 -34.5 0.5t-26 15t-14.5 26t0 33.5q3 16 12 30t21.5 24.5t28 16.5t31.5 6q24 0 38.5 -7t22 -18.5t8.5 -25.5t-2 -29zM224 330q2 13 -5 22t-20 9q-14 0 -25 -9t-13 -22q-3 -13 4 -22t21 -9
q13 0 24 9t14 22z" />
    <glyph glyph-name="uni0E22" unicode="&#xe22;" horiz-adv-x="455" 
d="M131 1q-5 -2 -9 -3.5t-8 -3.5q-7 -3 -13 0.5t-10.5 10t-7.5 14t-4 12.5q-2 7 3 13t12 12t13.5 12.5t8.5 15.5l8 36q3 15 6.5 32t6.5 31q-34 22 -39 64q-3 31 9 61t33.5 52.5t51 36t60.5 13.5q29 -1 41.5 -12.5t17.5 -25.5q5 -17 2 -38q-6 -32 -33 -54t-59 -22
q-20 0 -34 9t-21 24q-6 -15 1 -32q7 -23 24.5 -30.5t37 -7t38.5 6.5t31 12q14 7 18 3.5t9 -17.5q5 -18 3 -23t-16 -12q-23 -11 -51.5 -17.5t-56.5 -6.5l-19 -92q-2 -10 -11 -14h151q17 0 22 19l68 320h70l-74 -346q-5 -26 -26.5 -39.5t-46.5 -13.5h-207zM268 334q3 13 -4 22
t-20 9t-24 -9t-14 -22q-2 -13 5 -22t20 -9t24 9t13 22z" />
    <glyph glyph-name="uni0E23" unicode="&#xe23;" horiz-adv-x="377" 
d="M332 75q-3 -15 -10 -29t-19.5 -25.5t-30 -18.5t-41.5 -7q-32 0 -49.5 22.5t-10.5 54.5q4 18 14.5 33.5t25.5 26t32.5 15t34.5 0.5l8 39q2 5 4.5 13.5t7.5 13.5q-11 8 -35 14t-50.5 10t-50 4.5t-33.5 -2.5q-12 -4 -21 -8t-19 7q-9 8 -11 12.5t9 20.5q14 20 33.5 44.5
t46.5 46t63 35t82 10.5q27 -2 58 -12.5t71 -15.5l-23 -57q-17 0 -32.5 4t-31.5 9t-32.5 9t-34.5 4q-26 0 -56 -9.5t-55 -40.5q62 1 105 -11t67 -23q4 5 14 3t20 -16q12 -19 6 -27.5t-20 -22.5q-7 -7 -10 -14t-6 -21zM279 72q2 13 -5 22t-20 9q-14 0 -25 -9t-13 -22
q-3 -13 4 -22t21 -9q13 0 24 9t14 22z" />
    <glyph glyph-name="uni0E24" unicode="&#xe24;" horiz-adv-x="461" 
d="M223 72q2 13 -5 22t-20 9q-14 0 -25 -9t-13 -22q-3 -14 4 -23t21 -9q13 0 24 9t14 23zM410 297q-1 1 -7.5 10t-19 19t-32 18.5t-46.5 8.5q-33 0 -56.5 -7.5t-39.5 -18.5t-26 -22.5t-16 -19.5l24 -21q11 11 23 18.5t30 13.5l4 -7t8 -15t7 -14.5l3 -6.5q-27 -10 -44 -29.5
t-23 -45.5l-6 -32q8 2 15 2q32 0 49.5 -22t10.5 -54t-34 -54.5t-59 -22.5q-11 0 -24.5 3.5t-24.5 13t-16.5 25t-0.5 39.5l22 105q4 18 8 27t9 14l-60 45q3 6 17.5 28.5t41.5 46.5t68.5 43.5t98.5 20.5q31 0 54 -6t40 -15.5t27.5 -20.5t15.5 -21q5 5 15 3t20 -16
q11 -19 5.5 -27.5t-19.5 -22.5q-7 -7 -10.5 -14t-5.5 -21l-101 -473h-69l103 483q2 11 6 22.5t15 19.5z" />
    <glyph glyph-name="uni0E25" unicode="&#xe25;" horiz-adv-x="449" 
d="M395 0h-69l4 20q-5 25 -12.5 54t-17.5 57t-21.5 53t-23.5 43q-21 -15 -40.5 -37t-33.5 -45q36 5 52.5 -17.5t9.5 -54.5t-33.5 -54t-58.5 -22q-22 0 -37.5 11.5t-20.5 29.5q-3 9 -4 17.5t0.5 19.5t7 25t16.5 34q28 50 60.5 86.5t56.5 56.5q-1 6 3 12t10 10.5t13.5 7
t13.5 1.5q9 -2 22 -20t26 -43.5t23 -53t15 -48.5l25 119q0 1 2 6.5t4.5 12t6 12t7.5 7.5q-17 18 -44 33.5t-72 15.5q-36 0 -62 -10.5t-44.5 -28t-29.5 -39.5t-16 -46h-62q9 39 28.5 72.5t49 57.5t67 37.5t81.5 13.5q31 0 54.5 -5t40.5 -13.5t29.5 -19t22.5 -22.5q4 5 13.5 3
t19.5 -16q12 -19 6 -27.5t-19 -22.5q-7 -7 -10.5 -14t-6.5 -21zM198 73q3 13 -4 22t-20 9q-14 0 -25 -9.5t-13 -21.5q-3 -13 4 -22t20 -9t24 9t14 22z" />
    <glyph glyph-name="uni0E26" unicode="&#xe26;" horiz-adv-x="482" 
d="M152 68q3 13 -4 22t-20 9q-14 0 -25 -9t-14 -22t4 -22t21 -9q13 0 24 9t14 22zM378 -229h-69l104 488q1 8 6.5 20.5t13.5 17.5q-3 1 -10 10t-19 19t-30.5 18.5t-45.5 8.5q-33 0 -56.5 -7.5t-39.5 -18.5t-26 -22.5t-16 -19.5l24 -21q11 11 23 18.5t30 13.5l4 -7t8 -15
t7 -14.5l3 -6.5q-27 -10 -41 -29.5t-20 -45.5l-21 -102q-3 -16 -11 -31.5t-21 -27.5t-30.5 -19t-39.5 -7q-32 0 -50 22.5t-11 54.5q3 16 12 30t21.5 24.5t28 16.5t31.5 6q4 0 7 -0.5t7 -1.5l8 38q4 18 8 27t9 14l-65 45q3 6 17.5 28.5t41.5 46.5t68.5 43.5t98.5 20.5
q30 0 53 -5.5t40 -14t28 -19t19 -21.5q6 2 15 -1t17 -15q11 -19 5.5 -27.5t-19.5 -22.5q-7 -7 -10.5 -14t-5.5 -21z" />
    <glyph glyph-name="uni0E27" unicode="&#xe27;" horiz-adv-x="383" 
d="M348 74q-3 -15 -10.5 -29t-20.5 -25.5t-31 -18.5t-42 -7q-32 0 -49.5 22.5t-10.5 54.5q4 18 15 33t26.5 25.5t33.5 15t35 0.5q3 15 7.5 36.5t9.5 41.5q5 24 10 49q1 8 7 18.5t11 13.5q-12 15 -31 29t-55 13t-57.5 -15.5t-33.5 -33.5t-17 -38.5t-8 -31.5h-65
q14 79 63 128.5t132 51.5q25 1 43.5 -3.5t33 -12t24.5 -18t18 -20.5q5 2 13.5 -1t16.5 -15q12 -19 6 -27.5t-19 -22.5q-7 -7 -10.5 -14.5t-6.5 -21.5zM292 71q2 13 -5 22t-20 9q-14 0 -25 -9t-13 -22q-3 -13 4 -22t21 -9q13 0 24 9t14 22z" />
    <glyph glyph-name="uni0E28" unicode="&#xe28;" horiz-adv-x="462" 
d="M422 380q8 8 20.5 17.5t26.5 20t28.5 21t27.5 20.5l31 -46q-50 -31 -91 -68q11 -2 22 -15q11 -19 5.5 -27.5t-19.5 -22.5q-7 -7 -10.5 -14t-5.5 -21l-52 -245h-69l54 255q2 11 6 22.5t15 19.5l-5.5 11t-15.5 19t-31 18t-52 8q-35 0 -59.5 -9.5t-41.5 -25t-26.5 -34
t-13.5 -36.5q-4 -20 -5.5 -34t-2 -25t-0.5 -21v-21q16 32 33 63.5t25 43.5q14 19 34 31t42 12q31 0 47.5 -21.5t9.5 -51.5q-6 -30 -31.5 -51.5t-56.5 -21.5q-23 0 -39 13q-20 -37 -38 -70q-16 -28 -34 -54t-31 -36q-23 -18 -41 6q-8 9 -9.5 15.5t5.5 15.5q12 15 20 27t7 38
q-2 27 -2.5 63.5t7.5 75.5q15 73 70.5 117.5t139.5 44.5q37 0 63 -7.5t43 -19.5zM308 224q3 13 -4 22t-21 9q-13 0 -24 -9t-14 -22t4.5 -22t20.5 -9q14 0 24.5 9t13.5 22z" />
    <glyph glyph-name="uni0E29" unicode="&#xe29;" horiz-adv-x="495" 
d="M208 333q3 13 -4 22.5t-21 9.5q-13 0 -24 -9.5t-14 -22.5q-2 -13 4.5 -22.5t19.5 -9.5q14 0 25.5 9.5t13.5 22.5zM175 257q-4 -1 -6.5 -1h-4.5h-4q-16 -1 -29 5t-21 16.5t-11 25t0 30.5t12.5 30t22 24.5t28 16.5t31.5 6q25 0 40 -7t22.5 -18.5t8.5 -25.5t-2 -29l-54 -252
q-1 -5 -4.5 -9t-5.5 -6h165q10 0 14.5 5.5t6.5 13.5l17 81q-13 -16 -32.5 -24.5t-40.5 -9t-39.5 5.5t-29.5 18q-9 10 -12 24t-1 29t9 29.5t19 26.5t29 20t33.5 10t30 -3.5t19.5 -20.5q1 -2 2 -9t-17 -19q-13 -8 -19 -6q-4 1 -5 3q-2 8 -16.5 6.5t-25.5 -11.5
q-9 -8 -11.5 -22.5t5.5 -21.5q15 -13 33 -11.5t35 12t31 27t21 33.5l33 151h71l-74 -344q-5 -26 -26.5 -39.5t-47.5 -13.5h-222q-10 -4 -14 -6q-8 -3 -14 0.5t-11 9.5t-8 13.5t-4 12.5q-2 7 3 13t12 12t13.5 12.5t8.5 15.5z" />
    <glyph glyph-name="uni0E2A" unicode="&#xe2a;" horiz-adv-x="449" 
d="M395 0h-69l4 20q-5 25 -12.5 54t-17.5 57t-21.5 53t-23.5 43q-21 -15 -40.5 -37t-33.5 -45q36 5 52.5 -17.5t9.5 -54.5t-33.5 -54t-58.5 -22q-22 0 -37.5 11.5t-20.5 29.5q-3 9 -4 17.5t0.5 19.5t7 25t16.5 34q28 50 60.5 86.5t56.5 56.5q-1 6 3 12t10 10.5t13.5 7
t13.5 1.5q9 -2 22 -20t26 -43.5t23 -53t15 -48.5l25 119q0 1 2 6.5t4.5 12t6 12t7.5 7.5q-17 18 -44 33.5t-72 15.5q-36 0 -62 -10.5t-44.5 -28t-29.5 -39.5t-16 -46h-62q9 39 28.5 72.5t49 57.5t67 37.5t81.5 13.5q40 0 66.5 -8t46.5 -21q7 7 19 17t26.5 21t30 22.5
t29.5 21.5l31 -46q-23 -15 -45.5 -31.5t-42.5 -33.5q5 -2 9.5 -5t9.5 -10q12 -19 6 -27.5t-19 -22.5q-7 -7 -10.5 -14t-6.5 -21zM198 73q3 13 -4 22t-20 9q-14 0 -25 -9.5t-13 -21.5q-3 -13 4 -22t20 -9t24 9t14 22z" />
    <glyph glyph-name="uni0E2B" unicode="&#xe2b;" horiz-adv-x="483" 
d="M170 257q-4 -1 -11 -1q-32 0 -49.5 22t-10.5 54t33.5 53.5t57.5 22.5q31 0 45 -11t19 -25q5 -16 3 -37l-40 -192l128 127q-21 23 -15 59q4 17 14.5 32t25.5 26.5t33 18t37 6.5q38 0 60 -24t14 -59q-4 -20 -18 -39t-31 -27q5 -6 6 -7l3 -3q10 -9 11.5 -17.5t-1.5 -17
t-7.5 -16.5t-6.5 -16l-39 -186h-70l40 192q0 1 1 5t2.5 9t3.5 9.5t5 7.5q-4 7 -8 11.5t-15 8.5l-235 -236q-4 -4 -7 -5.5t-5 -3.5q-3 -2 -6 -3q-7 -3 -14 0.5t-12 9.5t-9 13t-5 12q-2 7 3 13.5t12 13t13.5 14t8.5 16.5zM206 332q3 13 -4 22t-20 9q-14 0 -24.5 -9t-13.5 -22
t3.5 -22t20.5 -9q13 0 24 9t14 22zM381 329q-3 -15 7 -26t27 -11t31 11t17 26q4 15 -6 26t-27 11t-31 -11t-18 -26z" />
    <glyph glyph-name="uni0E2C" unicode="&#xe2c;" horiz-adv-x="538" 
d="M479 364q-6 -2 -12 -2h-11q-37 0 -57.5 24.5t-12.5 61.5t39 61.5t68 24.5q28 0 47.5 -14.5t24.5 -39.5q12 10 25.5 21t15.5 13l34 -52q-1 0 -14 -10.5t-29 -22.5l-42 -32l-71 -333q-1 -4 -3 -21t-2 -27q-5 -12 -13.5 -14t-13.5 -4q-29 -8 -37.5 -2.5t-10.5 15.5l-65 219
l-137 -187q-10 -13 -21 -22q-5 -4 -11 -8q-10 -7 -18.5 -10.5t-19.5 -8.5q-14 -5 -25 7.5t-13 23.5q-2 7 3 13t12 12t14 12.5t9 15.5l38 177q-19 -4 -34.5 0.5t-26 15t-14.5 26t0 33.5q3 16 12 30t21.5 24.5t28 16.5t31.5 6q24 0 38.5 -7t21 -18.5t7.5 -25.5t-2 -29
l-35 -167l118 166q7 10 12.5 14t16.5 4t15 -4t6 -14l48 -173zM203 330q2 13 -5 22t-20 9q-14 0 -25 -9t-13 -22q-3 -13 4 -22t21 -9q13 0 24 9t14 22zM505 447q2 13 -5.5 22.5t-20.5 9.5q-14 0 -25.5 -9.5t-13.5 -22.5q-3 -13 4.5 -22.5t21.5 -9.5q13 0 24.5 9.5t14.5 22.5z
" />
    <glyph glyph-name="uni0E2D" unicode="&#xe2d;" horiz-adv-x="455" 
d="M265 210q3 13 -4 22t-20 9t-24 -9t-14 -22q-3 -14 4 -23t20 -9t24 9t14 23zM447 346q4 5 14 2.5t20 -16.5q12 -19 6 -27.5t-20 -22.5q-6 -7 -9.5 -14t-6.5 -21l-41 -192q-5 -26 -26 -39.5t-46 -13.5h-196q-4 -2 -8.5 -3.5t-8.5 -3.5q-7 -3 -13 0.5t-10.5 10t-7.5 14
t-4 12.5q-2 7 3 13t11.5 12t13.5 12.5t9 15.5l25 121q8 34 36 56.5t62 23.5q32 0 50 -22t11 -54t-34 -54.5t-59 -22.5q-8 0 -12 1l-12 -58q-4 -8 -4.5 -11t-2.5 -3h139q10 0 14.5 5t6.5 13l37 176q2 8 6 20.5t15 20.5q-1 2 -7 10t-19.5 17t-35 16.5t-52.5 7.5
q-69 0 -114 -34.5t-56 -92.5h-59q9 43 31.5 77.5t54.5 58.5t72 36.5t84 12.5q58 0 92.5 -17.5t50.5 -42.5z" />
    <glyph glyph-name="uni0E2E" unicode="&#xe2e;" horiz-adv-x="416" 
d="M210 174q3 14 -4 23t-20 9t-24 -9t-14 -23q-2 -13 5 -22t20 -9t24 9t13 22zM337 337q-12 8 -32 14t-49 6q-35 0 -55 -6.5t-24.5 -14t6 -13.5t36.5 -6q74 0 118 20zM94 2q-4 -2 -8 -3.5t-8 -3.5q-7 -3 -13 0.5t-10.5 10t-7.5 14t-4 12.5q-2 7 3 13t11.5 12t13.5 12.5
t9 15.5l18 85q7 34 35.5 57t62.5 24q16 0 28.5 -6t21 -16.5t11.5 -24.5t-1 -30q-6 -32 -33.5 -54t-59.5 -22q-8 0 -11 1l-5 -23q-4 -9 -6 -12t-4 -3h149q17 0 22 19l43 205q0 4 -1 5l-2 2q-38 -16 -67.5 -22.5t-62.5 -6.5q-61 0 -91 20.5t-24 50.5q7 30 48 52.5t116 22.5
q48 0 78.5 -9.5t46.5 -25.5q13 12 31.5 34t31.5 39l44 -28q-13 -19 -33.5 -43t-40.5 -39q9 -4 14.5 -13t6.5 -16q0 -13 -11 -21t-18 -21l-45 -212q-5 -26 -26.5 -39.5t-46.5 -13.5z" />
    <glyph glyph-name="uni0E2F" unicode="&#xe2f;" horiz-adv-x="415" 
d="M325 2q-5 -2 -13 -6q-8 -3 -14 0.5t-11 9.5t-8.5 13t-4.5 12q-2 7 3 12.5t12 11.5t14 12.5t9 15.5l41 192q-39 -28 -78 -40.5t-72 -12.5q-21 0 -41 7.5t-33.5 21t-20 33.5t-0.5 46q3 16 12 30t21.5 24.5t28 16.5t31.5 6q32 0 49.5 -22.5t10.5 -54.5q-8 -30 -31 -52
q16 1 38.5 8.5t46.5 24t47 42t39 62.5l52 -19l-2.5 -4.5t-4.5 -9.5t-4 -9.5l-2 -4.5l-63 -294q-1 -5 -4 -17.5t-7 -17.5q-9 -13 -18.5 -21t-22.5 -16zM216 330q2 13 -5 22t-20 9q-14 0 -25 -9t-13 -22q-3 -13 4 -22t21 -9q13 0 24 9t14 22z" />
    <glyph glyph-name="uni0E30" unicode="&#xe30;" horiz-adv-x="381" 
d="M420 364q-17 -38 -49 -66t-69.5 -45.5t-76 -23t-69 1t-48.5 25.5t-14 51q3 31 28 55.5t57 27.5q20 2 36 -6t24.5 -22.5t8.5 -33.5t-11 -38q40 6 74.5 30.5t56.5 67.5zM202 318q2 13 -6.5 21t-21.5 6q-13 -1 -23 -11t-11 -23q-2 -13 6 -21t22 -6q13 1 22.5 11t11.5 23z
M372 137q-17 -38 -49 -66t-69.5 -45.5t-76 -23t-69 1t-48.5 25.5t-14 51q1 15 8.5 29.5t19 26t26.5 18.5t31 9q20 2 36 -6t24.5 -22.5t8.5 -33.5t-11 -38q40 6 74.5 30.5t56.5 67.5zM154 91q2 13 -6.5 21t-21.5 6q-14 -1 -23.5 -11t-11.5 -23t6.5 -21t22.5 -6q13 1 22.5 11
t11.5 23z" />
    <glyph glyph-name="uni0E31" unicode="&#xe31;" 
d="M256 640q-38 -65 -88.5 -100t-102 -47.5t-97.5 -5.5t-74 25q-15 10 -22.5 27.5t-2.5 39.5q6 32 33 54t59 22q31 0 48 -22t11 -54q-2 -8 -8.5 -19.5t-11.5 -16.5q20 -3 45 0t52 16t54.5 38t53.5 66zM-24 579q2 13 -5 22t-20 9t-24 -9t-13 -22q-3 -13 4 -22t20 -9t24 9
t14 22z" />
    <glyph glyph-name="uni0E32" unicode="&#xe32;" horiz-adv-x="372" 
d="M322 0h-68l57 272q1 8 7 18.5t11 13.5q-12 15 -31 29t-55 13q-26 -1 -44.5 -9t-31 -20t-20.5 -26.5t-12 -28.5h-65q20 64 67 103.5t120 41.5q25 1 43.5 -3.5t32.5 -12t24 -18t18 -20.5q5 2 13.5 -1t16.5 -15q12 -19 6 -27.5t-19 -22.5q-7 -7 -10.5 -14.5t-6.5 -21.5z" />
    <glyph glyph-name="uni0E33" unicode="&#xe33;" horiz-adv-x="372" 
d="M-20 473q-27 0 -43 12.5t-21.5 30.5t-1 40t17.5 40t34 30.5t48 12.5t43 -12.5t21.5 -30.5t1 -40t-17.5 -40t-34 -30.5t-48 -12.5zM-10 519q18 0 29 11.5t13.5 25t-4 25t-24.5 11.5t-29 -11.5t-13.5 -25t4 -25t24.5 -11.5zM322 0h-68l57 272q1 8 7 18.5t11 13.5
q-12 15 -31 29t-55 13q-26 -1 -44.5 -9t-31 -20t-20.5 -26.5t-12 -28.5h-65q20 64 67 103.5t120 41.5q25 1 43.5 -3.5t32.5 -12t24 -18t18 -20.5q5 2 13.5 -1t16.5 -15q12 -19 6 -27.5t-19 -22.5q-7 -7 -10.5 -14.5t-6.5 -21.5z" />
    <glyph glyph-name="uni0E34" unicode="&#xe34;" horiz-adv-x="2" 
d="M41 469q-2 -4 -6.5 -10t-10 -11t-11.5 -8.5t-12 -1.5q-45 15 -84 22.5t-73.5 9t-66 -1t-61.5 -6.5h1q-13 -2 -20 9t-5 22q2 5 8.5 9.5t25.5 21.5q15 16 32.5 32.5t40 29.5t49.5 21t61 6q60 -3 91.5 -34.5t42.5 -87.5q1 -5 0.5 -11.5t-2.5 -10.5zM-7 484q-11 37 -39 59
t-58 22q-23 0 -41 -5t-32.5 -13t-26.5 -18t-22 -21q65 8 117 1.5t102 -25.5z" />
    <glyph glyph-name="uni0E35" unicode="&#xe35;" horiz-adv-x="2" 
d="M45 475q0 -4 -4.5 -10.5t-11 -13t-13.5 -10.5t-11 -3q-49 15 -89 22t-74.5 8.5t-65 -0.5t-60.5 -6h1q-13 -2 -20 9t-5 22q2 8 15 15.5t18 15.5q17 18 36.5 34.5t41.5 29.5t48 20t57 5q24 -2 42 -9.5t32 -18.5l14 67h58l-26 -124q6 -13 11.5 -24t5.5 -29zM-7 484
q-11 37 -39 59t-58 22q-43 0 -71 -17t-51 -40q65 8 117 1.5t102 -25.5z" />
    <glyph glyph-name="uni0E36" unicode="&#xe36;" horiz-adv-x="2" 
d="M44 484q2 -5 -1.5 -15t-14.5 -18q-8 -7 -12.5 -11t-10.5 -2q-44 15 -83.5 22t-75 9t-67.5 -0.5t-62 -6.5q-12 -2 -19 9.5t-5 21.5q2 9 14 16t19 16q18 19 37.5 36t42 29t48.5 18.5t55 4.5q12 -1 21.5 -3t19.5 -7q2 8 5.5 16t10.5 15q16 17 36.5 22.5t37.5 0.5t28 -19.5
t9 -37.5q-5 -24 -20 -38t-36 -21q7 -11 13 -21.5t11 -28.5v-1zM34 596q2 9 -1.5 14.5t-10 7.5t-14.5 1t-14 -7q-9 -7 -11.5 -18.5t5.5 -18.5q9 -11 26 -4.5t20 25.5zM-7 484q-11 37 -39 59t-58 22q-43 0 -72.5 -17t-49.5 -40q65 8 117 1.5t102 -25.5z" />
    <glyph glyph-name="uni0E37" unicode="&#xe37;" horiz-adv-x="2" 
d="M43 473q-2 -12 -18 -25q-9 -7 -12 -9.5t-9 -0.5q-88 28 -158 30t-129 -6q-14 -2 -20.5 8.5t-4.5 21.5q2 7 11.5 13.5t21.5 18.5q41 42 83 67t100 22q12 -1 15.5 -2l10.5 -3l9 44h50l-13 -63q3 -2 11.5 -8t13.5 -14l18 85h52l-33 -158q1 -4 1.5 -10.5t-0.5 -10.5zM-7 484
q-11 37 -39 59t-58 22q-43 0 -72 -17t-50 -40q65 8 117 1.5t102 -25.5z" />
    <glyph glyph-name="uni0E38" unicode="&#xe38;" 
d="M-175 -276l17 83q-18 -3 -32.5 1.5t-24.5 14.5t-14.5 25t-0.5 32q7 31 33 52.5t57 21.5q43 0 55.5 -23t3.5 -65l-30 -142h-64zM-124 -120q3 13 -4.5 22.5t-20.5 9.5q-14 0 -25 -9.5t-14 -22.5q-3 -14 4 -23t21 -9q13 0 24.5 9t14.5 23z" />
    <glyph glyph-name="uni0E39" unicode="&#xe39;" 
d="M-102 -219q-5 -25 -24.5 -36t-42.5 -11h-93q-7 -4 -13 -5q-14 -5 -21.5 4.5t-9.5 18.5q-3 10 7 17.5t18 19.5l5 24q-19 -7 -36 -4t-29 12.5t-17.5 25.5t-1.5 34q7 31 33 52t56 21q27 0 41 -9t19.5 -21.5t5 -27t-2.5 -24.5l-15 -71q-3 -5 -5 -8.5t-5 -5.5h51q9 0 13.5 5
t6.5 13l27 125q2 14 12 17t24 3t22.5 -3t6.5 -17zM-255 -119q3 14 -4 23t-21 9t-25 -9t-14 -23q-2 -13 4.5 -22.5t20.5 -9.5t25.5 9.5t13.5 22.5z" />
    <glyph glyph-name="uni0E3A" unicode="&#xe3a;" 
d="M-123 -150q-24 0 -33.5 15.5t-5.5 33.5t19.5 33.5t39.5 15.5t33 -15.5t5.5 -33.5t-19 -33.5t-39.5 -15.5z" />
    <glyph glyph-name="uni0E3F" unicode="&#xe3f;" horiz-adv-x="422" 
d="M243 279l27 128h-49l-27 -128h49zM285 280q29 4 51 21t28 47q8 35 -4.5 46.5t-47.5 12.5zM198 67l31 146h-50l-31 -146h50zM240 67h8q45 0 67.5 16t31.5 60q8 38 -15 53t-61 17zM285 476l18 87h42l-18 -87q56 0 86.5 -34.5t18.5 -90.5q-8 -35 -26 -59t-41 -38
q27 -14 42 -42t7 -68q-14 -68 -57 -106t-106 -38h-25l-18 -80h-42l18 80h-116l83 394q2 9 -2.5 16t-9 13t-7.5 12t2 13q3 5 9.5 12t13.5 13t14.5 9.5t13.5 0.5q3 -2 6 -3.5l7 -3.5h87z" />
    <glyph glyph-name="uni0E40" unicode="&#xe40;" horiz-adv-x="245" 
d="M238 71q-7 -32 -34 -54t-59 -22q-39 0 -56.5 23t-10.5 57l70 325h70l-54 -254q4 1 7 1.5t7 0.5q32 0 49.5 -22.5t10.5 -54.5zM193 71q2 14 -5 22.5t-20 8.5t-24 -8.5t-13 -22.5q-3 -13 4 -22t20 -9t24 9t14 22z" />
    <glyph glyph-name="uni0E41" unicode="&#xe41;" horiz-adv-x="436" 
d="M431 71q-7 -32 -34 -54t-59 -22q-39 0 -56.5 23t-10.5 57l70 325h70l-54 -254q4 1 7 1.5t7 0.5q32 0 49.5 -22.5t10.5 -54.5zM238 71q-7 -32 -34 -54t-59 -22q-39 0 -56.5 23t-10.5 57l70 325h70l-54 -254q4 1 7 1.5t7 0.5q32 0 49.5 -22.5t10.5 -54.5zM386 71
q2 14 -5 22.5t-20 8.5t-24 -8.5t-13 -22.5q-3 -13 4 -22t20 -9t24 9t14 22zM193 71q2 14 -5 22.5t-20 8.5t-24 -8.5t-13 -22.5q-3 -13 4 -22t20 -9t24 9t14 22z" />
    <glyph glyph-name="uni0E42" unicode="&#xe42;" horiz-adv-x="278" 
d="M400 614q-3 8 -8.5 23t-16.5 29t-28.5 25t-43.5 11q-22 0 -38 -4t-29.5 -12t-26.5 -19.5t-28 -25.5q38 -9 61.5 -23t37 -27t18.5 -23t6 -11q8 -8 7 -16.5t-15 -26.5q-2 -2 -3 -2.5t-3 -2.5l-78 -364h8q32 0 49.5 -22t10.5 -53q-7 -32 -33.5 -54t-58.5 -22q-29 0 -46 19
t-15 47l101 478q-14 17 -34 30.5t-53 21.5q-2 -1 -2 -1.5t-1 -1.5q-11 -9 -17.5 -5t-18.5 9q-14 7 -11 21.5t19 31.5q19 19 38.5 39t42 36.5t50 27.5t63.5 13q41 2 68.5 -10t45.5 -31t28.5 -41t16.5 -38zM233 70q3 12 -3.5 20.5t-18.5 8.5t-22.5 -8.5t-13.5 -20.5
q-2 -13 4.5 -21.5t18.5 -8.5t22.5 8.5t12.5 21.5z" />
    <glyph glyph-name="uni0E43" unicode="&#xe43;" horiz-adv-x="279" 
d="M235 71q2 12 -4.5 20.5t-18.5 8.5t-22.5 -8.5t-12.5 -20.5q-3 -12 3.5 -20.5t18.5 -8.5t22.5 8.5t13.5 20.5zM297 645q5 -5 9 -15t4 -19q1 -26 -14 -49t-38.5 -37.5t-52.5 -18.5t-56 8q-26 11 -38 36t-4 63q6 30 23 56.5t41.5 46.5t56.5 32t70 12q40 0 66.5 -10.5
t43 -28.5t23.5 -40t8.5 -44.5t-1.5 -43t-8 -33.5q-4 -10 -6.5 -15.5t-5.5 -9t-8 -6t-12 -5.5q-8 -4 -23.5 -13.5t-33.5 -22t-36 -26.5t-30 -27l-61 -289q2 0 4 0.5t4 0.5q32 0 49.5 -22t10.5 -54t-34 -54t-59 -22q-31 0 -49 21.5t-11 51.5l7 35q3 15 8 39l12.5 60t18.5 85.5
t25 115.5q-2 5 -5.5 9t-4.5 9q-3 15 7.5 25t20.5 17q22 19 47 37q21 16 48 34.5t55 35.5q10 16 10.5 39.5t-9.5 44.5t-31.5 36t-54.5 15q-36 0 -64.5 -17t-43.5 -40t-14.5 -47t21.5 -37q9 -5 20 -6t21.5 1.5t18.5 8.5t11 14q4 12 1 18.5t-9 9.5t-13 2.5t-10 -1.5
q-5 -3 -8 2.5t-3 13.5t4 16.5t13 12.5q11 5 33 4t36 -15z" />
    <glyph glyph-name="uni0E44" unicode="&#xe44;" horiz-adv-x="278" 
d="M367 720q5 2 13 4t19 -7q7 -4 17.5 -19t20 -33.5t17 -38.5t9.5 -34q1 -3 1.5 -13.5t-15.5 -24.5q-5 -4 -10.5 -5.5t-10.5 -2.5q-6 -1 -12 0q-15 -6 -35 -18t-40.5 -25.5t-37.5 -28t-26 -24.5l-64 -304h8q32 0 49 -22t11 -53q-7 -32 -34 -54t-59 -22t-49 22t-10 54l71 337
q-8 13 -9.5 20t0.5 14q3 8 7.5 14.5t5.5 7.5q44 42 95 77.5t96 52.5q0 7 -3 16.5t-8 19.5t-11.5 18t-13.5 12q-15 -6 -33 -15.5t-34.5 -21t-29.5 -25t-17 -29.5q-10 -11 -23.5 -11t-24.5 7q-5 4 -3.5 9.5t1.5 12.5q-25 67 -116 94l41 46q16 -4 34 -12.5t34.5 -20.5
t29.5 -26.5t18 -30.5q13 17 32.5 31.5t39 25t36 17t23.5 9.5zM234 70q3 12 -4 20.5t-19 8.5t-23 -8.5t-14 -20.5q-2 -13 5 -21.5t19 -8.5t23 8.5t13 21.5z" />
    <glyph glyph-name="uni0E45" unicode="&#xe45;" horiz-adv-x="373" 
d="M273 -228h-68l106 500q1 8 7 18.5t11 13.5q-12 15 -31 29t-55 13q-26 -1 -44.5 -9t-31 -20t-20.5 -26.5t-12 -28.5h-65q20 64 67 103.5t120 41.5q25 1 43.5 -3.5t32.5 -12t24 -18t18 -20.5q5 2 13.5 -1t16.5 -15q12 -19 6 -27.5t-19 -22.5q-7 -7 -10.5 -14.5t-6.5 -21.5z
" />
    <glyph glyph-name="uni0E46" unicode="&#xe46;" horiz-adv-x="427" 
d="M395 316q1 1 -2.5 7.5t-8 14t-10 12.5t-8.5 2q-1 -1 -11 -7.5t-21 -16.5q1 -10 -1.5 -17.5t-23.5 -18.5q-11 -6 -18 -2.5t-9 14.5q-4 18 -17.5 32.5t-31 19t-36.5 -2.5t-34 -31q16 10 34 11t32 -7t21 -24.5t1 -40.5q-7 -31 -33.5 -53t-58.5 -22q-27 0 -42.5 15t-20 36.5
t0.5 47t18 48.5q16 27 40 45.5t54 25.5q33 8 62.5 -0.5t46.5 -35.5q10 8 22 16t24.5 14t23.5 9t19 1q14 -4 24.5 -18t15.5 -24q9 0 15 -5t10 -11.5t6 -13t1 -9.5q-2 -11 -11.5 -19t-21.5 -20t-24.5 -31t-19.5 -52l-81 -381q-2 -9 -5 -14.5t-8 -11.5l-12.5 -10t-15.5 -12
l-14 -10.5t-8 -4.5q-14 -5 -21 6.5t-12 23.5q-2 7 1 11t9 8.5t12 11t10 17.5l80 374q2 12 7 26t13 28t17.5 27t20.5 22zM204 261q3 13 -4 21.5t-19 8.5t-22 -8.5t-13 -21.5q-2 -12 4.5 -20.5t18.5 -8.5t22.5 8.5t12.5 20.5z" />
    <glyph glyph-name="uni0E47" unicode="&#xe47;" 
d="M108 714q-21 -29 -46.5 -47t-53 -28t-55.5 -13t-53 -2q-51 2 -73 -9t-36 -37q-6 -11 -7.5 -26.5t2.5 -24.5q8 8 23.5 23t29.5 26q2 5 5.5 8.5t9.5 3.5q11 0 19.5 1t9.5 -8q-3 -23 3 -35.5t15 -19.5q10 -8 24 -11q-6 2 -8 12t0 19q5 26 26 42t44 16q31 0 41 -20.5t2 -47.5
q-9 -35 -40.5 -52.5t-70.5 -12.5q-22 2 -36 8.5t-23 14.5t-13 16l-7 14q-5 -4 -16.5 -14t-15.5 -15q2 -11 -6 -17t-19 -7.5t-22 1.5t-15 12q-11 23 -14 46.5t9 53.5q12 32 30.5 49t41 25.5t46 10t46.5 1.5q13 0 32.5 2.5t40.5 9t41.5 18.5t37.5 32zM0 546q2 11 -4 17.5
t-16 6.5t-19 -6.5t-11 -17.5t3.5 -18t15.5 -7t19.5 7t11.5 18z" />
    <glyph glyph-name="uni0E48" unicode="&#xe48;" 
d="M-2 693l26 127h64l-27 -127h-63z" />
    <glyph glyph-name="uni0E49" unicode="&#xe49;" 
d="M292 864q-36 -53 -80 -85.5t-89 -51.5t-86.5 -27.5t-71.5 -13.5q-5 -1 -7.5 3.5t-7.5 18.5q-2 5 -2 9t6 9q11 3 22.5 6.5t22 8.5t19.5 13.5t15 22.5q-15 -3 -28.5 0t-23 11.5t-14 21.5t-1.5 29q6 28 30 47t51 19q29 0 46.5 -21t11.5 -50q-5 -21 -15.5 -41t-27.5 -36
q43 12 74 28.5t54 35t38.5 37t26.5 33.5zM60 839q2 11 -4 18.5t-17 7.5t-20.5 -7.5t-11.5 -18.5t4.5 -18t17.5 -7t20 7t11 18z" />
    <glyph glyph-name="uni0E4A" unicode="&#xe4a;" 
d="M215 900q-2 -33 -10 -66t-26.5 -61t-49.5 -50t-79 -33q-8 -2 -12 14q-1 10 0.5 11.5t7.5 5.5q11 8 19.5 26t10.5 44q0 13 -6 20.5t-14 9t-15 -3.5t-9 -17q-1 -8 0 -14t0 -15h-33q1 22 -4 34t-22 17q-12 4 -23 1.5t-20.5 -9t-15.5 -16t-7 -19.5q5 6 14 11t22 5
q20 0 32 -15.5t6 -38.5q-5 -18 -17.5 -30t-28.5 -17.5t-31.5 -3t-25.5 13.5q-12 13 -15 33t2.5 41t18.5 40t33 31q15 9 30.5 12.5t29 1.5t23.5 -9t14 -19q18 21 38 26.5t36.5 -0.5t26.5 -21.5t7 -35.5q-2 -17 -5.5 -28.5t-8.5 -19.5q23 11 38.5 42.5t21.5 89.5l24 6q5 1 9 2
t7 2q4 1 7 2zM-51 741q3 14 -9.5 19.5t-24.5 -3.5q-18 -16 -9 -32q4 -6 11 -7t13.5 2t11.5 8.5t7 12.5z" />
    <glyph glyph-name="uni0E4B" unicode="&#xe4b;" 
d="M78 757l-13 -62h-64l13 62h-62l12 55h62l13 62h64l-13 -62h63l-12 -55h-63z" />
    <glyph glyph-name="uni0E4C" unicode="&#xe4c;" 
d="M209 814q-26 -34 -55.5 -48t-76.5 -19q7 -7 9 -17.5t0 -20.5q-2 -11 -9 -21.5t-17 -18t-21.5 -11.5t-23.5 -4q-28 1 -39 16t-10 32l1 8t5.5 19t15 23.5t28.5 21.5t40.5 13t44.5 9t41 13.5t29 26.5zM54 710q2 11 -3.5 18t-16.5 7t-20.5 -7t-11.5 -18q-2 -10 4 -17t17 -7
t20 7t11 17z" />
    <glyph glyph-name="uni0E4D" unicode="&#xe4d;" 
d="M-5 491q-27 0 -43 12.5t-21.5 30.5t-1 40t17.5 40t34 30.5t48 12.5t43 -12.5t21.5 -30.5t1 -40t-17.5 -40t-34 -30.5t-48 -12.5zM4 537q18 0 29.5 11.5t14 25t-4 25t-24.5 11.5t-29 -11.5t-14 -25t3.5 -25t24.5 -11.5z" />
    <glyph glyph-name="uni0E4E" unicode="&#xe4e;" 
d="M134 674q-43 9 -78 0.5t-41.5 -35.5t27.5 -43l-27 -33q-63 -3 -79 -32q-6 -25 22.5 -29t43.5 4l-34 -41q-44 -19 -77.5 -4.5t-26.5 56.5q19 65 106 75q-25 22 -13.5 53.5t51.5 47.5t98 6z" />
    <glyph glyph-name="uni0E4F" unicode="&#xe4f;" horiz-adv-x="451" 
d="M309 166q4 22 -6 35.5t-33 13.5t-39.5 -13.5t-20.5 -35.5q-5 -23 5.5 -36.5t33.5 -13.5t39 13.5t21 36.5zM348 166q-8 -37 -39 -63t-68 -26t-57 26t-12 63t38.5 62.5t67.5 25.5t57.5 -25.5t12.5 -62.5zM387 166q11 53 -18 90t-82 37q-52 0 -97.5 -37t-56.5 -90
t18.5 -90.5t81.5 -37.5q53 0 98 38t56 90zM429 166q-15 -70 -75 -119.5t-130 -49.5t-109 49.5t-24 119.5t75 119.5t130 49.5q69 0 108 -50t25 -119z" />
    <glyph glyph-name="uni0E50" unicode="&#xe50;" horiz-adv-x="468" 
d="M435 140q-7 -33 -26 -60t-46.5 -46.5t-61.5 -30t-70 -10.5q-78 0 -116.5 40.5t-24.5 106.5q7 31 25 58t44.5 47.5t61 32t73.5 11.5q36 0 65 -11t48.5 -30.5t27 -47t0.5 -60.5zM378 140q10 45 -17.5 70t-78.5 25q-24 0 -46.5 -6.5t-41 -19t-31.5 -30t-18 -39.5t1 -39
t19.5 -29t33 -18.5t43.5 -6.5q25 0 48 7.5t41 20t30.5 29.5t16.5 36z" />
    <glyph glyph-name="uni0E51" unicode="&#xe51;" horiz-adv-x="490" 
d="M449 120q-6 -27 -18.5 -54.5t-32.5 -52.5t-49 -45.5t-68 -33.5l-15 49q19 5 39 16t37 28.5t30.5 40.5t19.5 52q5 24 0.5 44.5t-17.5 36t-33.5 24t-45.5 8.5q-24 0 -48 -7t-43.5 -20.5t-34 -33t-19.5 -44.5q-5 -24 2 -45t27 -29q-9 17 -4 37q7 31 33 52.5t57 21.5
q30 0 47 -21t11 -52q-5 -29 -25 -48.5t-46.5 -30t-55 -12t-50.5 6.5q-34 12 -48.5 45.5t-5.5 74.5q8 37 28.5 67t50 51t64.5 32t72 11q38 0 67.5 -13t48.5 -35.5t25.5 -53.5t-0.5 -67zM281 89q3 14 -4.5 23.5t-21.5 9.5t-25.5 -9.5t-14.5 -23.5t4.5 -23.5t21.5 -9.5
t25.5 9.5t14.5 23.5z" />
    <glyph glyph-name="uni0E52" unicode="&#xe52;" horiz-adv-x="532" 
d="M517 250q5 1 11 0.5t11 -11.5q7 -14 6 -22t-10 -17q-7 -7 -14.5 -16t-10.5 -21l-23 -109q-12 -29 -33.5 -41.5t-52.5 -12.5h-320q-11 -2 -12.5 7t-1.5 23q0 16 7 19t14 5q7 30 14.5 76.5t10.5 97t-2 99t-23 82.5l51 36q20 -46 26 -99t4 -106t-10.5 -102t-16.5 -86h270
q12 0 17.5 6.5t7.5 12.5l20 96q3 16 8.5 25.5t11.5 14.5q-4 16 -16 22t-25.5 4t-24 -10t-10.5 -20q3 -6 2.5 -22t-2.5 -33h-50q3 32 -7.5 57.5t-42.5 27.5q-17 1 -33.5 -12t-24.5 -34q19 9 35.5 8t28.5 -9t17 -22.5t1 -32.5q-5 -25 -27.5 -44.5t-54.5 -17.5q-33 3 -47.5 21
t-15 43.5t11 54.5t30.5 52t43.5 34t49.5 11q43 0 62 -35q14 19 34.5 27.5t41 8.5t38.5 -9.5t26 -26.5zM287 131q3 12 -4 20t-18 8t-21 -8t-13 -20q-2 -11 5 -19t18 -8t21 8t12 19z" />
    <glyph glyph-name="uni0E53" unicode="&#xe53;" horiz-adv-x="522" 
d="M212 68q3 14 -4.5 23.5t-21.5 9.5t-25.5 -9.5t-14.5 -23.5t4.5 -23.5t21.5 -9.5t25.5 9.5t14.5 23.5zM506 250q5 1 11 0.5t11 -11.5q7 -14 6 -22t-10 -17q-7 -7 -14.5 -16t-10.5 -21l-34 -163h-54l35 169q2 8 8 21t12 17q-11 17 -27 20t-30 1q-18 -3 -34 -20t-24 -57
l-27 -126q-1 -5 -5 -6.5t-26 -1.5t-25 1.5t-2 6.5l27 127q4 22 -0.5 37.5t-14.5 24.5t-23.5 12.5t-27.5 2.5q-24 -2 -41.5 -13t-29.5 -28t-18 -37t-5 -39q13 14 29 22t33 8q32 0 49 -21.5t10 -53.5q-7 -30 -33 -51.5t-58 -21.5q-36 0 -55.5 18.5t-26 46.5t-2.5 60.5t15 59.5
q9 23 24 42t34 33.5t40.5 22.5t43.5 9q32 2 61 -9.5t40 -41.5q14 25 40.5 36.5t52.5 13.5q25 2 45.5 -6.5t30.5 -28.5z" />
    <glyph glyph-name="uni0E54" unicode="&#xe54;" horiz-adv-x="489" 
d="M626 389q-20 -40 -53.5 -67t-72.5 -44t-80.5 -25.5t-77 -12.5t-61.5 -4.5t-34 -0.5q-22 -2 -46.5 -10.5t-37.5 -26.5q-15 -21 -14.5 -60t19.5 -87h113q-6 5 -15.5 13.5t-17.5 20.5t-12.5 27t-1.5 32q6 28 30 47.5t52 19.5t44 -19.5t10 -47.5q-5 -21 -20 -38t-35 -25
q8 -8 17 -16.5t20 -13.5h91l-10 -51h-302q-17 0 -20 7.5t-5 17.5q0 7 7 12q-43 116 6 185q17 25 41 38.5t46 19.5q26 7 53 7q46 0 93 4t89.5 16.5t78.5 35.5t60 61zM330 144q2 11 -4.5 19t-17.5 8t-21.5 -8t-12.5 -19q-2 -12 4.5 -20t17.5 -8t21.5 8t12.5 20z" />
    <glyph glyph-name="uni0E55" unicode="&#xe55;" horiz-adv-x="489" 
d="M623 389q-22 -41 -56.5 -68.5t-74 -44.5t-81 -25.5t-76.5 -12t-60 -3.5t-33 -1q-21 -2 -43 -10t-36 -26q-15 -21 -15.5 -59.5t18.5 -86.5h115q-6 3 -15.5 11.5t-17.5 20.5t-12.5 27t-0.5 33q6 28 29.5 47.5t52.5 19.5q28 0 43.5 -19.5t9.5 -47.5q-5 -21 -19.5 -38
t-34.5 -25q6 -11 15.5 -18t17.5 -11h96l-11 -52h-302q-18 0 -21 8t-5 19q0 3 2.5 5.5l4.5 4.5q-41 116 6 185q18 27 44 40t50.5 17.5t43.5 4.5t24 1q-6 4 -7 14.5t1 18.5q6 29 32 49.5t56 20.5t48 -20t11 -50q-1 -3 -3.5 -10t-7.5 -8q21 4 44.5 13t46.5 22t43 31t34 41z
M376 314q2 9 -1.5 16t-10 10.5t-15.5 2.5t-18 -8q-11 -8 -13 -20.5t4 -20.5q3 -3 8.5 -4.5t12 -1t11.5 1.5t7 2q12 8 15 22zM330 144q2 11 -4 19t-17 8q-12 0 -22 -8t-12 -19q-2 -12 4 -20t18 -8q11 0 21 8t12 20z" />
    <glyph glyph-name="uni0E56" unicode="&#xe56;" horiz-adv-x="458" 
d="M433 214q8 -45 -5 -80.5t-35.5 -62t-48.5 -43t-43 -23.5q-25 -9 -61 -12.5t-69 2.5t-54 24t-16 51q5 29 29.5 48.5t52.5 19.5t40.5 -13t14.5 -30t-3.5 -32.5t-14.5 -21.5q39 -4 71 11.5t53 39.5t30 52t3 50q-8 26 -33.5 39t-59.5 13.5t-71 -12.5t-68 -38q-10 -8 -19 -7
t-14 10q-8 11 2 27q-18 23 -34.5 50t-28.5 53t-18 48t-4 36l55 4q-4 -15 5 -36t22.5 -43.5t27 -43t18.5 -34.5q36 24 78.5 34.5t82 6t70.5 -25.5t45 -61zM196 70q3 12 -3.5 20t-18.5 8q-11 0 -20.5 -8t-12.5 -20q-2 -11 4.5 -19t17.5 -8q12 0 21.5 8t11.5 19z" />
    <glyph glyph-name="uni0E57" unicode="&#xe57;" horiz-adv-x="590" 
d="M699 413q-24 -50 -60 -111.5t-76 -120t-79 -107.5t-69 -74q-5 -4 -15 -7t-23 11q-4 5 -6 14t10 16q9 6 20 23t20.5 38.5t16 44.5t6 42.5t-10 32t-30.5 12.5q-18 0 -29.5 -9t-18.5 -20q-8 -13 -13 -29l-28 -132q0 -3 -9.5 -4.5t-20.5 -1.5t-19.5 1.5t-8.5 4.5l14 64
q5 24 9 44t5 21q1 29 -16 48t-42 17q-22 -2 -38.5 -12t-27.5 -24.5t-17.5 -32.5t-8.5 -36q25 19 52 19q31 0 48 -22t10 -53q-6 -31 -26 -48.5t-44 -22t-47 3.5t-36 28q-20 32 -17 76t23.5 84t56 68t82.5 29q29 1 52.5 -12t37.5 -40q18 21 39.5 34t44.5 15q27 2 45.5 -8
t29 -28t12.5 -41.5t-2 -47.5q24 33 48.5 72t46 76.5t39 69.5t26.5 52zM200 69q3 13 -4 22t-20 9q-14 0 -25 -9t-14 -22q-2 -13 5 -22t21 -9q13 0 24 9t13 22z" />
    <glyph glyph-name="uni0E58" unicode="&#xe58;" horiz-adv-x="531" 
d="M626 398q-20 -47 -66 -79.5t-101 -52.5t-110 -28.5t-94 -8.5q-45 0 -69 -16.5t-32.5 -42t-4 -57t17.5 -61.5h19q2 4 15 22t27 39q17 24 36 54q8 11 17.5 8t19.5 -8q5 -2 9.5 -9t-1.5 -16q-4 -5 -7 -9t-5 -7.5t-4 -5.5q2 -26 16 -42t29 -24q-3 18 2.5 35.5t17.5 32
t30 23.5t39 9q25 0 40 -15t18 -36t-6.5 -43.5t-33.5 -38.5q-27 -19 -60 -22.5t-57 1.5q-26 5 -46 21.5t-31 41.5q-5 -8 -11.5 -15.5t-11.5 -15.5q-6 -9 -12 -17q-3 -5 -9 -10t-14 -5h-64q-15 0 -19 11t-2 20q2 6 5 9q-7 27 -13 50t-7 44.5t4.5 42.5t21.5 44q45 60 137 65
q128 7 208 38t112 94zM442 76q2 13 -5 22t-20 9q-14 0 -24.5 -9t-12.5 -22q-3 -13 3.5 -22t20.5 -9q13 0 24 9t14 22z" />
    <glyph glyph-name="uni0E59" unicode="&#xe59;" horiz-adv-x="519" 
d="M625 392q-4 -8 -18 -34t-33.5 -58t-43 -66t-45.5 -58q-8 -8 -21 -6.5t-19 6.5q-4 3 -6 7.5t1 8.5q3 22 -7.5 38t-33.5 11q-13 -2 -31 -21t-21 -49q3 -8 10 -28t14.5 -43t14 -44.5t9.5 -32.5l-54 -27q-11 45 -23.5 83.5t-25.5 69t-25 52t-21 30.5l-62 -31q-42 -20 -54 -53
t4 -63q11 26 35 42t50 16q31 0 48 -21.5t10 -51.5q-3 -15 -12.5 -28.5t-23 -24t-29 -16.5t-31.5 -6q-30 0 -53 11t-37.5 30.5t-19.5 45.5t1 56q8 35 32 64.5t62 48.5q19 9 29.5 14.5t16.5 8.5t8 4.5t5 2.5q9 8 19 13.5t20 4.5q14 -2 25 -17.5t29 -49.5q16 31 43 46.5
t46 17.5q31 2 50.5 -9.5t27.5 -32.5q24 33 50 73t49 91zM234 68q3 13 -4 22t-20 9q-14 0 -25 -9t-14 -22q-3 -14 4 -23t21 -9q13 0 24 9t14 23z" />
    <glyph glyph-name="uni0E5A" unicode="&#xe5a;" horiz-adv-x="555" 
d="M216 330q2 13 -5 22t-20 9q-14 0 -25 -9t-13 -22q-3 -13 4 -22t21 -9q13 0 24 9t14 22zM455 396q-3 -7 -7 -13q-3 -5 -5.5 -10.5t-3.5 -9.5l-16 -72q32 14 65 43.5t56 80.5l54 -19q-3 -7 -7 -13q-3 -5 -5.5 -10.5t-3.5 -9.5l-62 -289q-1 -5 -4 -17.5t-7 -17.5
q-9 -13 -18.5 -21t-22.5 -16l-14 -6q-14 -4 -21.5 7.5t-12.5 22.5q-2 6 2 11t10 10.5t12 11.5t8 15q0 3 5 25q4 19 13 60t26 116q-44 -31 -85 -43l-34 -158q-1 -5 -4 -17.5t-7 -17.5q-9 -13 -18.5 -21t-22.5 -16l-14 -6q-14 -4 -21.5 7.5t-12.5 22.5q-2 6 2 11t10 10.5
t12 11.5t8 15q0 3 5 25q4 19 13 60t26 116q-39 -28 -78 -40.5t-72 -12.5q-21 0 -41 7.5t-33.5 21t-20 33.5t-0.5 46q3 16 12 30t21.5 24.5t28 16.5t31.5 6q32 0 49.5 -22.5t10.5 -54.5q-8 -30 -31 -52q16 1 38.5 8.5t46.5 24t47 42t39 62.5z" />
    <glyph glyph-name="uni0E5B" unicode="&#xe5b;" horiz-adv-x="1185" 
d="M377 310q5 21 -0.5 40t-20 29t-37 8.5t-50.5 -20.5q-19 -13 -33 -34t-24 -45t-15 -49t-6 -46q-2 -43 17 -70t50 -36.5t69 -1t74 36.5q28 22 48.5 52.5t34 64.5t22.5 68t15 64q45 -19 68 -54t22 -83q20 32 37 60t25 63q28 -19 44 -48t21 -58q17 24 29.5 45.5t26.5 49.5
q28 -23 46 -53.5t20 -52.5q22 24 33 48t14 38q24 -15 40 -27t38 -21t56.5 -16.5t96.5 -14.5q-18 -10 -50.5 -17.5t-66.5 -10.5t-63 0.5t-40 16.5q-15 -29 -34.5 -54t-55.5 -44q-1 15 -6 32.5t-11 32.5t-12 26.5t-9 15.5q-18 -29 -41 -61.5t-52 -56.5q-2 34 -8.5 67.5
t-15.5 43.5q-17 -34 -42.5 -67t-64.5 -63q1 10 0 27.5t-4 36t-7.5 35t-11.5 24.5q-6 -17 -19 -40.5t-30 -48t-36 -46.5t-37 -34q-47 -32 -99 -41t-96.5 4t-74 47.5t-30.5 90.5q-1 40 10 88t35.5 91t62.5 74.5t91 38.5q50 6 79 -13t41.5 -50.5t10 -71t-15.5 -73.5
q-7 -18 -16.5 -34t-23.5 -28.5t-32.5 -20t-42.5 -7.5q-32 0 -50 23.5t-11 55.5q8 40 41 62t77 12zM368 236q2 13 -5 22t-20 9q-14 0 -25 -9t-13 -22q-3 -13 4 -22t21 -9q13 0 24 9t14 22z" />
    <glyph glyph-name="zerowidthnonjoiner" unicode="&#x200c;" 
d="M-37 -308h-55l116 548h55z" />
    <glyph glyph-name="zerowidthjoiner" unicode="&#x200d;" 
d="M4 147l-31 -15l-8 30l47 23l-36 28l24 30l43 -36l61 36l12 -30l-49 -28l38 -23l-20 -30l-26 15l-96 -455h-55z" />
    <glyph glyph-name="lefttorightmark" unicode="&#x200e;" 
d="M62 161l-99 -469h-55l108 515h139l-20 31l40 19l38 -72l-69 -73l-32 19l34 30h-84z" />
    <glyph glyph-name="righttoleftmark" unicode="&#x200f;" 
d="M-76 161l20 -30l-40 -19l-37 73l68 72l32 -19l-34 -31h138l-108 -515h-55l99 469h-83z" />
    <glyph glyph-name="endash" unicode="&#x2013;" horiz-adv-x="502" 
d="M74 126l15 70h380l-15 -70h-380z" />
    <glyph glyph-name="emdash" unicode="&#x2014;" horiz-adv-x="728" 
d="M26 127l15 70h728l-15 -70h-728z" />
    <glyph glyph-name="quoteleft" unicode="&#x2018;" horiz-adv-x="237" 
d="M132 359q10 45 40 80.5t75 67.5l33 -25q-8 -4 -20 -13.5t-24 -20.5t-22.5 -22.5t-14.5 -19.5q22 0 34 -15.5t7 -36.5t-24 -37t-41 -16q-23 0 -35.5 16t-7.5 42z" />
    <glyph glyph-name="quoteright" unicode="&#x2019;" horiz-adv-x="239" 
d="M273 449q-10 -45 -40.5 -80.5t-75.5 -67.5l-32 25q7 4 19 13.5t24.5 20.5t22.5 22.5t15 19.5q-22 0 -34 15.5t-7 36.5t23.5 37t40.5 16q23 0 36 -16t8 -42z" />
    <glyph glyph-name="quotesinglbase" unicode="&#x201a;" horiz-adv-x="236" 
d="M179 42q-9 -45 -39.5 -80.5t-75.5 -67.5l-33 25q8 4 20 13.5t24 20.5t22.5 22.5t14.5 19.5q-22 0 -33.5 15.5t-7.5 36.5q5 21 24 37t41 16q23 0 36 -16t7 -42z" />
    <glyph glyph-name="quotedblleft" unicode="&#x201c;" horiz-adv-x="400" 
d="M290 359q10 45 40 80.5t75 67.5l33 -25q-8 -4 -20 -13.5t-24 -20.5t-22.5 -22.5t-14.5 -19.5q22 0 34 -15.5t7 -36.5t-24 -37t-41 -16q-23 0 -35.5 16t-7.5 42zM132 359q10 45 40 80.5t75 67.5l33 -25q-8 -4 -20 -13.5t-24 -20.5t-22.5 -22.5t-14.5 -19.5q22 0 34 -15.5
t7 -36.5t-24 -37t-41 -16q-23 0 -35.5 16t-7.5 42z" />
    <glyph glyph-name="quotedblright" unicode="&#x201d;" horiz-adv-x="400" 
d="M273 449q-10 -45 -40.5 -80.5t-75.5 -67.5l-32 25q7 4 19 13.5t24.5 20.5t22.5 22.5t15 19.5q-22 0 -34 15.5t-7 36.5t23.5 37t40.5 16q23 0 36 -16t8 -42zM431 449q-10 -45 -40.5 -80.5t-75.5 -67.5l-32 25q7 4 19 13.5t24.5 20.5t22.5 22.5t15 19.5q-22 0 -34 15.5
t-7 36.5t23.5 37t40.5 16q23 0 36 -16t8 -42z" />
    <glyph glyph-name="quotedblbase" unicode="&#x201e;" horiz-adv-x="386" 
d="M179 42q-9 -45 -39.5 -80.5t-75.5 -67.5l-33 25q8 4 20 13.5t24 20.5t22.5 22.5t14.5 19.5q-22 0 -33.5 15.5t-7.5 36.5q5 21 24 37t41 16q23 0 36 -16t7 -42zM337 42q-9 -45 -39.5 -80.5t-75.5 -67.5l-33 25q8 4 20 13.5t24 20.5t22.5 22.5t14.5 19.5q-22 0 -33.5 15.5
t-7.5 36.5q5 21 24 37t41 16q23 0 36 -16t7 -42z" />
    <glyph glyph-name="dagger" unicode="&#x2020;" horiz-adv-x="432" 
d="M463 333l-14 -67h-146l-85 -398h-67l85 398h-141l14 67h141l32 148h67l-32 -148h146z" />
    <glyph glyph-name="daggerdbl" unicode="&#x2021;" horiz-adv-x="435" 
d="M449 266h-147l-32 -152h147l-15 -67h-147l-41 -193h-66l41 193h-142l15 67h142l32 152h-142l14 67h142l41 190h66l-41 -190h147z" />
    <glyph glyph-name="bullet" unicode="&#x2022;" horiz-adv-x="366" 
d="M197 96q-35 0 -55 15.5t-26.5 39t-1 50.5t22.5 50.5t43.5 39t61.5 15.5t55 -15.5t26.5 -39t1 -50.5t-22.5 -50.5t-43.5 -39t-61.5 -15.5z" />
    <glyph glyph-name="ellipsis" unicode="&#x2026;" horiz-adv-x="571" 
d="M154 48q-5 -21 -21.5 -34.5t-37.5 -13.5t-32.5 13.5t-6.5 34.5t21.5 35.5t37.5 14.5t32.5 -14.5t6.5 -35.5zM530 48q-5 -21 -21.5 -34.5t-37.5 -13.5t-32.5 13.5t-6.5 34.5t21.5 35.5t37.5 14.5t32.5 -14.5t6.5 -35.5zM342 48q-5 -21 -21.5 -34.5t-37.5 -13.5t-32.5 13.5
t-6.5 34.5t21.5 35.5t37.5 14.5t32.5 -14.5t6.5 -35.5z" />
    <glyph glyph-name="perthousand" unicode="&#x2030;" horiz-adv-x="810" 
d="M309 347q-5 -24 -16 -47t-27.5 -41.5t-37.5 -29.5t-45 -11q-25 0 -41 11.5t-24.5 30t-10 41.5t3.5 46q4 21 15 44t27.5 42t37.5 31t47 12q25 0 41 -11.5t24 -30t9.5 -41.5t-3.5 -46zM258 347q2 10 2.5 23t-2.5 24.5t-10.5 19.5t-21.5 8q-17 0 -28.5 -10t-19 -22.5
t-11.5 -25t-5 -17.5q-2 -10 -2.5 -23t2.5 -24.5t10.5 -19.5t21.5 -8q13 0 24 7.5t19 18.5t13.5 24.5t7.5 24.5zM120 -22l371 528h60l-371 -528h-60zM555 128q-5 -24 -16.5 -47t-28 -41.5t-37.5 -29.5t-45 -11q-25 0 -41 11.5t-24 30t-9.5 41.5t3.5 46q4 21 15 44t27 42
t37 31t47 12q25 0 41 -11.5t24.5 -30t10 -41.5t-3.5 -46zM504 128q2 10 2.5 23t-2.5 24.5t-10.5 19.5t-21.5 8q-17 0 -28.5 -10t-19 -22.5t-11.5 -25t-5 -17.5q-2 -10 -3 -23t2 -24.5t11 -19.5t22 -8q13 0 24 7.5t19 18.5t13 24.5t8 24.5zM796 128q-5 -24 -16.5 -47
t-28 -41.5t-37.5 -29.5t-45 -11q-25 0 -41 11.5t-24 30t-9.5 41.5t3.5 46q4 21 15 44t27 42t37 31t47 12q25 0 41 -11.5t24.5 -30t10 -41.5t-3.5 -46zM745 128q2 10 2.5 23t-2.5 24.5t-10.5 19.5t-21.5 8q-17 0 -28.5 -10t-19 -22.5t-11.5 -25t-5 -17.5q-2 -10 -3 -23
t2 -24.5t11 -19.5t22 -8q13 0 24 7.5t19 18.5t13 24.5t8 24.5z" />
    <glyph glyph-name="minute" unicode="&#x2032;" horiz-adv-x="161" 
d="M170 498l86 1l-101 -161h-50z" />
    <glyph glyph-name="second" unicode="&#x2033;" horiz-adv-x="309" 
d="M170 498l86 1l-101 -161h-50zM296 498l86 1l-101 -161h-50z" />
    <glyph glyph-name="guilsinglleft" unicode="&#x2039;" horiz-adv-x="244" 
d="M72 178l124 147h82l-129 -147l66 -148h-82l-61 148v0z" />
    <glyph glyph-name="guilsinglright" unicode="&#x203a;" horiz-adv-x="243" 
d="M123 30h-82l128 148l-65 147h82l60 -147z" />
    <glyph glyph-name="fraction" unicode="&#x2044;" horiz-adv-x="174" 
d="M-67 -52l343 570h60l-343 -570h-60z" />
    <glyph glyph-name="Euro" unicode="&#x20ac;" horiz-adv-x="498" 
d="M480 52q-30 -26 -64.5 -39.5t-67.5 -17.5t-62 -1t-48 11q-14 6 -30.5 15.5t-31 26t-24.5 41t-11 60.5h-66l12 55h58q1 7 3.5 21t5.5 28h-57l11 53h62q16 42 37.5 70.5t44 47.5t44.5 30t40 17q27 9 56.5 11.5t57.5 -2t52.5 -16.5t41.5 -32l-5 -8q-4 -6 -12.5 -18.5
t-24.5 -35.5q-23 25 -50 34t-50 9q-27 0 -55 -8q-69 -23 -105 -99h166l-11 -53h-173q-3 -14 -5.5 -28t-3.5 -21h172l-12 -55h-160q5 -31 20.5 -49t41.5 -28q27 -9 55 -10q24 -1 54 7t60 34l34 -50v0z" />
    <glyph glyph-name="uni2113" unicode="&#x2113;" horiz-adv-x="222" 
d="M68 171q-5 6 -10.5 16t-10.5 16q16 10 32.5 20t33.5 20l27 128q4 18 11.5 38.5t23.5 34.5q12 12 26 17.5t27.5 4.5t25 -7.5t18.5 -18.5q13 -23 9 -54.5t-20.5 -64t-42.5 -61t-56 -45.5q-3 -12 -8 -36l-10 -48t-8.5 -42l-3.5 -18q-5 -21 5 -24.5t24.5 1.5t28.5 13t17 9
l-10 -49l-22 -10t-22 -9q-95 -29 -77 66l25 120q-2 -1 -6.5 -3.5t-10 -5t-10.5 -5t-6 -3.5zM217 417q-8 0 -13 -7t-10 -30l-3 -15.5t-7 -33.5t-7.5 -33t-3.5 -16q18 12 32 34t21 44t5.5 39t-14.5 18z" />
    <glyph glyph-name="trademark" unicode="&#x2122;" horiz-adv-x="632" 
d="M348 414l10 45h-216l-10 -45h83l-47 -223h49l47 223h84zM444 190l-11 213l-59 -217l-48 5l69 238q6 17 20 24t25 8q19 2 28 -6t11 -22q1 -28 2 -59q1 -26 2.5 -58t3.5 -61q14 29 29 61t27 58q14 31 28 59q6 14 19 22t30 6q5 0 11 -2t11.5 -6t8.5 -9.5t2 -14.5l-33 -238
l-50 -5l33 217l-102 -213h-57z" />
    <glyph glyph-name="Ohm" unicode="&#x2126;" horiz-adv-x="576" 
d="M386 467q48 0 91.5 -11.5t74 -34t44.5 -56t5 -78.5q-8 -36 -30 -65.5t-52 -51.5t-65 -35.5t-69 -17.5l-11 -52h110q35 0 51 11.5t27 45.5h1l-25 -122h-210l29 139q30 6 55.5 20.5t45.5 35.5t33.5 46t19.5 51q7 34 0.5 62t-24 48t-45 31.5t-61.5 11.5q-35 0 -66.5 -11.5
t-57.5 -31.5t-44.5 -48t-25.5 -62q-6 -26 -3 -51t14 -46t30 -35.5t47 -20.5l-29 -139h-210l25 122h1q-2 -34 8.5 -45.5t45.5 -11.5h110l11 52q-33 4 -62 17.5t-49.5 35.5t-29.5 51.5t-1 65.5q9 45 37.5 78.5t69 56t88.5 34t96 11.5z" />
    <glyph glyph-name="estimated" unicode="&#x212e;" horiz-adv-x="371" 
d="M261 351q48 0 72 -20.5t33.5 -48t8 -55t-4.5 -41.5q-3 -15 -17.5 -23t-29.5 -8h-191q-9 -45 4 -70t37 -36q13 -6 30 -4.5t32.5 6.5t28 11.5t18.5 10.5l13 -48q-14 -8 -35 -16t-44.5 -12t-48 -2.5t-43.5 12.5q-32 19 -50 59.5t-4 104.5q6 29 21.5 61t39.5 58.5t56.5 43.5
t73.5 17zM312 201q4 16 2.5 32.5t-9 30t-22 22.5t-35.5 9t-39 -9.5t-31.5 -23.5t-22 -30.5t-11.5 -30.5h168z" />
    <glyph glyph-name="partialdiff" unicode="&#x2202;" horiz-adv-x="363" 
d="M396 369q-1 -26 -8 -64.5t-21 -80.5t-34 -83.5t-47.5 -74t-61.5 -52.5t-75 -19q-43 1 -63.5 25.5t-24 60t9 76t37 74.5t59 54.5t74.5 16.5q36 -4 51.5 -27t13.5 -47q3 8 10 28.5t14.5 46.5t13.5 54t6.5 51.5t-6.5 38.5t-26 15q-16 0 -28.5 -10.5t-24.5 -21t-25.5 -16.5
t-30.5 2q-14 14 -6.5 29t24.5 27t37.5 20t32.5 10q29 3 49 -8t31.5 -30.5t16 -45t2.5 -49.5zM267 134q3 6 8 27t5 43.5t-9 40.5t-36 19q-25 0 -47 -16.5t-38 -42t-25 -54.5t-8 -54.5t13 -42t38 -16.5q19 0 34 8.5t27 22t21.5 30.5t16.5 35z" />
    <glyph glyph-name="Delta" unicode="&#x2206;" horiz-adv-x="437" 
d="M324 512l104 -512h-420zM273 349l-187 -297h244z" />
    </font>
</defs>
</svg>
